G04 EAGLE Gerber RS-274X export*
G75*
%MOMM*%
%FSLAX34Y34*%
%LPD*%
%INSoldermask Bottom*%
%IPPOS*%
%AMOC8*
5,1,8,0,0,1.08239X$1,22.5*%
G01*
%ADD10C,1.127000*%
%ADD11C,6.127000*%
%ADD12C,1.227000*%
%ADD13C,1.727000*%
%ADD14C,0.228344*%
%ADD15C,0.228959*%
%ADD16C,0.736600*%
%ADD17C,0.225369*%
%ADD18C,0.228600*%
%ADD19C,1.270000*%
%ADD20C,1.627000*%

G36*
X761402Y896029D02*
X761402Y896029D01*
X761411Y896032D01*
X761437Y896034D01*
X765271Y896868D01*
X765280Y896872D01*
X765306Y896878D01*
X768982Y898249D01*
X768990Y898255D01*
X769014Y898264D01*
X772458Y900144D01*
X772465Y900151D01*
X772488Y900163D01*
X775629Y902515D01*
X775635Y902523D01*
X775656Y902538D01*
X778430Y905313D01*
X778435Y905321D01*
X778453Y905339D01*
X780805Y908480D01*
X780808Y908490D01*
X780824Y908510D01*
X782704Y911954D01*
X782707Y911963D01*
X782719Y911986D01*
X784090Y915663D01*
X784091Y915672D01*
X784100Y915697D01*
X784934Y919531D01*
X784934Y919540D01*
X784940Y919566D01*
X785219Y923480D01*
X785217Y923489D01*
X785219Y923515D01*
X784940Y927429D01*
X784938Y927433D01*
X784938Y927436D01*
X784936Y927442D01*
X784934Y927464D01*
X784100Y931298D01*
X784096Y931307D01*
X784090Y931332D01*
X782719Y935008D01*
X782713Y935016D01*
X782704Y935041D01*
X780824Y938484D01*
X780817Y938491D01*
X780805Y938514D01*
X778453Y941655D01*
X778446Y941661D01*
X778430Y941682D01*
X775656Y944457D01*
X775647Y944461D01*
X775629Y944480D01*
X772488Y946831D01*
X772479Y946835D01*
X772458Y946851D01*
X769014Y948731D01*
X769005Y948733D01*
X768982Y948746D01*
X765306Y950117D01*
X765296Y950118D01*
X765271Y950127D01*
X761437Y950961D01*
X761428Y950960D01*
X761402Y950966D01*
X757489Y951246D01*
X757477Y951243D01*
X757444Y951246D01*
X753530Y950966D01*
X753521Y950963D01*
X753495Y950961D01*
X749661Y950127D01*
X749652Y950122D01*
X749627Y950117D01*
X745950Y948746D01*
X745943Y948740D01*
X745918Y948731D01*
X742474Y946851D01*
X742468Y946844D01*
X742444Y946831D01*
X739303Y944480D01*
X739298Y944472D01*
X739277Y944457D01*
X736502Y941682D01*
X736497Y941674D01*
X736479Y941655D01*
X734127Y938514D01*
X734124Y938505D01*
X734108Y938484D01*
X732228Y935041D01*
X732226Y935031D01*
X732213Y935008D01*
X730842Y931332D01*
X730841Y931323D01*
X730832Y931298D01*
X729998Y927464D01*
X729998Y927454D01*
X729993Y927429D01*
X729713Y923515D01*
X729715Y923506D01*
X729713Y923480D01*
X729993Y919566D01*
X729996Y919557D01*
X729998Y919531D01*
X730832Y915697D01*
X730836Y915688D01*
X730842Y915663D01*
X732213Y911986D01*
X732219Y911979D01*
X732228Y911954D01*
X734108Y908510D01*
X734115Y908504D01*
X734127Y908480D01*
X736479Y905339D01*
X736487Y905334D01*
X736502Y905313D01*
X739277Y902538D01*
X739285Y902533D01*
X739303Y902515D01*
X742444Y900163D01*
X742454Y900160D01*
X742474Y900144D01*
X745918Y898264D01*
X745927Y898262D01*
X745950Y898249D01*
X749627Y896878D01*
X749636Y896877D01*
X749661Y896868D01*
X753495Y896034D01*
X753504Y896034D01*
X753530Y896029D01*
X757444Y895749D01*
X757456Y895751D01*
X757489Y895749D01*
X761402Y896029D01*
G37*
G36*
X381393Y412531D02*
X381393Y412531D01*
X381402Y412535D01*
X381428Y412536D01*
X385262Y413370D01*
X385271Y413375D01*
X385296Y413380D01*
X388972Y414752D01*
X388980Y414757D01*
X389005Y414766D01*
X392448Y416647D01*
X392455Y416654D01*
X392478Y416666D01*
X395619Y419017D01*
X395625Y419025D01*
X395646Y419041D01*
X398421Y421815D01*
X398425Y421824D01*
X398444Y421842D01*
X400795Y424983D01*
X400799Y424992D01*
X400815Y425013D01*
X402695Y428457D01*
X402697Y428466D01*
X402710Y428489D01*
X404081Y432165D01*
X404082Y432175D01*
X404091Y432199D01*
X404925Y436033D01*
X404924Y436043D01*
X404930Y436069D01*
X405210Y439982D01*
X405208Y439992D01*
X405210Y440018D01*
X404930Y443931D01*
X404929Y443936D01*
X404929Y443939D01*
X404926Y443945D01*
X404925Y443967D01*
X404091Y447801D01*
X404086Y447809D01*
X404081Y447835D01*
X402710Y451511D01*
X402704Y451519D01*
X402695Y451543D01*
X400815Y454987D01*
X400808Y454994D01*
X400795Y455017D01*
X398444Y458158D01*
X398436Y458164D01*
X398421Y458185D01*
X395646Y460959D01*
X395638Y460964D01*
X395619Y460983D01*
X392478Y463334D01*
X392469Y463337D01*
X392448Y463353D01*
X389005Y465234D01*
X388995Y465236D01*
X388972Y465248D01*
X385296Y466620D01*
X385287Y466620D01*
X385262Y466630D01*
X381428Y467464D01*
X381418Y467463D01*
X381393Y467469D01*
X377479Y467749D01*
X377467Y467746D01*
X377434Y467749D01*
X373521Y467469D01*
X373511Y467465D01*
X373485Y467464D01*
X369651Y466630D01*
X369643Y466625D01*
X369617Y466620D01*
X365941Y465248D01*
X365933Y465243D01*
X365909Y465234D01*
X362465Y463353D01*
X362458Y463346D01*
X362435Y463334D01*
X359294Y460983D01*
X359288Y460975D01*
X359267Y460959D01*
X356493Y458185D01*
X356488Y458176D01*
X356469Y458158D01*
X354118Y455017D01*
X354115Y455008D01*
X354099Y454987D01*
X352218Y451543D01*
X352216Y451534D01*
X352204Y451511D01*
X350832Y447835D01*
X350832Y447825D01*
X350822Y447801D01*
X349988Y443967D01*
X349989Y443957D01*
X349983Y443931D01*
X349703Y440018D01*
X349705Y440008D01*
X349703Y439982D01*
X349983Y436069D01*
X349987Y436059D01*
X349988Y436033D01*
X350822Y432199D01*
X350827Y432191D01*
X350832Y432165D01*
X352204Y428489D01*
X352209Y428481D01*
X352218Y428457D01*
X354099Y425013D01*
X354106Y425006D01*
X354118Y424983D01*
X356469Y421842D01*
X356477Y421836D01*
X356493Y421815D01*
X359267Y419041D01*
X359276Y419036D01*
X359294Y419017D01*
X362435Y416666D01*
X362444Y416663D01*
X362465Y416647D01*
X365909Y414766D01*
X365918Y414764D01*
X365941Y414752D01*
X369617Y413380D01*
X369627Y413380D01*
X369651Y413370D01*
X373485Y412536D01*
X373495Y412537D01*
X373521Y412531D01*
X377434Y412251D01*
X377446Y412254D01*
X377479Y412251D01*
X381393Y412531D01*
G37*
G36*
X377508Y895751D02*
X377508Y895751D01*
X377511Y895750D01*
X377513Y895751D01*
X381393Y896029D01*
X381402Y896032D01*
X381428Y896034D01*
X385262Y896868D01*
X385271Y896872D01*
X385296Y896878D01*
X388972Y898249D01*
X388980Y898255D01*
X389005Y898264D01*
X392448Y900144D01*
X392455Y900151D01*
X392478Y900163D01*
X395619Y902515D01*
X395625Y902523D01*
X395646Y902538D01*
X398421Y905313D01*
X398425Y905321D01*
X398444Y905339D01*
X400795Y908480D01*
X400799Y908490D01*
X400815Y908510D01*
X402695Y911954D01*
X402697Y911963D01*
X402710Y911986D01*
X404081Y915663D01*
X404082Y915672D01*
X404091Y915697D01*
X404925Y919531D01*
X404924Y919540D01*
X404930Y919566D01*
X405210Y923480D01*
X405208Y923489D01*
X405210Y923515D01*
X404930Y927429D01*
X404929Y927433D01*
X404929Y927436D01*
X404926Y927442D01*
X404925Y927464D01*
X404091Y931298D01*
X404086Y931307D01*
X404081Y931332D01*
X402710Y935008D01*
X402704Y935016D01*
X402695Y935041D01*
X400815Y938484D01*
X400808Y938491D01*
X400795Y938514D01*
X398444Y941655D01*
X398436Y941661D01*
X398421Y941682D01*
X395646Y944457D01*
X395638Y944461D01*
X395619Y944480D01*
X392478Y946831D01*
X392469Y946835D01*
X392448Y946851D01*
X389005Y948731D01*
X388995Y948733D01*
X388972Y948746D01*
X385296Y950117D01*
X385287Y950118D01*
X385262Y950127D01*
X381428Y950961D01*
X381418Y950960D01*
X381393Y950966D01*
X377479Y951246D01*
X377474Y951245D01*
X377460Y951246D01*
X377431Y951244D01*
X377428Y951244D01*
X377426Y951244D01*
X373546Y950966D01*
X373537Y950963D01*
X373511Y950961D01*
X369677Y950127D01*
X369668Y950122D01*
X369643Y950117D01*
X365966Y948746D01*
X365959Y948740D01*
X365934Y948731D01*
X362490Y946851D01*
X362484Y946844D01*
X362460Y946831D01*
X359319Y944480D01*
X359314Y944472D01*
X359293Y944457D01*
X356518Y941682D01*
X356513Y941674D01*
X356495Y941655D01*
X354143Y938514D01*
X354140Y938505D01*
X354124Y938484D01*
X352244Y935041D01*
X352242Y935031D01*
X352229Y935008D01*
X350858Y931332D01*
X350857Y931323D01*
X350848Y931298D01*
X350014Y927464D01*
X350014Y927454D01*
X350009Y927429D01*
X349729Y923515D01*
X349731Y923506D01*
X349729Y923480D01*
X350009Y919566D01*
X350012Y919557D01*
X350014Y919531D01*
X350848Y915697D01*
X350852Y915688D01*
X350858Y915663D01*
X352229Y911986D01*
X352235Y911979D01*
X352244Y911954D01*
X354124Y908510D01*
X354131Y908504D01*
X354143Y908480D01*
X356495Y905339D01*
X356503Y905334D01*
X356518Y905313D01*
X359293Y902538D01*
X359301Y902533D01*
X359319Y902515D01*
X362460Y900163D01*
X362470Y900160D01*
X362490Y900144D01*
X365934Y898264D01*
X365943Y898262D01*
X365966Y898249D01*
X369643Y896878D01*
X369652Y896877D01*
X369677Y896868D01*
X373511Y896034D01*
X373520Y896034D01*
X373546Y896029D01*
X377460Y895749D01*
X377465Y895750D01*
X377479Y895749D01*
X377508Y895751D01*
G37*
G36*
X757492Y412253D02*
X757492Y412253D01*
X757495Y412253D01*
X757497Y412254D01*
X761377Y412531D01*
X761386Y412535D01*
X761412Y412536D01*
X765246Y413370D01*
X765255Y413375D01*
X765280Y413380D01*
X768956Y414752D01*
X768964Y414757D01*
X768989Y414766D01*
X772432Y416647D01*
X772439Y416654D01*
X772462Y416666D01*
X775603Y419017D01*
X775609Y419025D01*
X775630Y419041D01*
X778405Y421815D01*
X778409Y421824D01*
X778428Y421842D01*
X780779Y424983D01*
X780783Y424992D01*
X780799Y425013D01*
X782679Y428457D01*
X782681Y428466D01*
X782694Y428489D01*
X784065Y432165D01*
X784066Y432175D01*
X784075Y432199D01*
X784909Y436033D01*
X784908Y436043D01*
X784914Y436069D01*
X785194Y439982D01*
X785192Y439992D01*
X785194Y440018D01*
X784914Y443931D01*
X784913Y443936D01*
X784913Y443939D01*
X784910Y443945D01*
X784909Y443967D01*
X784075Y447801D01*
X784070Y447809D01*
X784065Y447835D01*
X782694Y451511D01*
X782688Y451519D01*
X782679Y451543D01*
X780799Y454987D01*
X780792Y454994D01*
X780779Y455017D01*
X778428Y458158D01*
X778420Y458164D01*
X778405Y458185D01*
X775630Y460959D01*
X775622Y460964D01*
X775603Y460983D01*
X772462Y463334D01*
X772453Y463337D01*
X772432Y463353D01*
X768989Y465234D01*
X768979Y465236D01*
X768956Y465248D01*
X765280Y466620D01*
X765271Y466620D01*
X765246Y466630D01*
X761412Y467464D01*
X761402Y467463D01*
X761377Y467469D01*
X757463Y467749D01*
X757458Y467748D01*
X757444Y467749D01*
X757415Y467747D01*
X757412Y467747D01*
X757410Y467746D01*
X753530Y467469D01*
X753521Y467465D01*
X753495Y467464D01*
X749661Y466630D01*
X749652Y466625D01*
X749627Y466620D01*
X745950Y465248D01*
X745943Y465243D01*
X745918Y465234D01*
X742474Y463353D01*
X742468Y463346D01*
X742444Y463334D01*
X739303Y460983D01*
X739298Y460975D01*
X739277Y460959D01*
X736502Y458185D01*
X736497Y458176D01*
X736479Y458158D01*
X734127Y455017D01*
X734124Y455008D01*
X734108Y454987D01*
X732228Y451543D01*
X732226Y451534D01*
X732213Y451511D01*
X730842Y447835D01*
X730841Y447825D01*
X730832Y447801D01*
X729998Y443967D01*
X729998Y443957D01*
X729993Y443931D01*
X729713Y440018D01*
X729715Y440008D01*
X729713Y439982D01*
X729993Y436069D01*
X729996Y436059D01*
X729998Y436033D01*
X730832Y432199D01*
X730836Y432191D01*
X730842Y432165D01*
X732213Y428489D01*
X732219Y428481D01*
X732228Y428457D01*
X734108Y425013D01*
X734115Y425006D01*
X734127Y424983D01*
X736479Y421842D01*
X736487Y421836D01*
X736502Y421815D01*
X739277Y419041D01*
X739285Y419036D01*
X739303Y419017D01*
X742444Y416666D01*
X742454Y416663D01*
X742474Y416647D01*
X745918Y414766D01*
X745927Y414764D01*
X745950Y414752D01*
X749627Y413380D01*
X749636Y413380D01*
X749661Y413370D01*
X753495Y412536D01*
X753504Y412537D01*
X753530Y412531D01*
X757444Y412251D01*
X757449Y412253D01*
X757463Y412251D01*
X757492Y412253D01*
G37*
%LPC*%
G36*
X754763Y906460D02*
X754763Y906460D01*
X752131Y907092D01*
X749630Y908128D01*
X747322Y909542D01*
X745264Y911300D01*
X743506Y913358D01*
X742092Y915666D01*
X741056Y918167D01*
X740424Y920799D01*
X740211Y923497D01*
X740424Y926196D01*
X741056Y928828D01*
X742092Y931329D01*
X743506Y933637D01*
X745264Y935695D01*
X747322Y937453D01*
X749630Y938867D01*
X752131Y939903D01*
X754763Y940535D01*
X757466Y940748D01*
X760169Y940535D01*
X762801Y939903D01*
X765302Y938867D01*
X767610Y937453D01*
X769668Y935695D01*
X771426Y933637D01*
X772841Y931329D01*
X773877Y928828D01*
X774508Y926196D01*
X774721Y923497D01*
X774508Y920799D01*
X773877Y918167D01*
X772841Y915666D01*
X771426Y913358D01*
X769668Y911300D01*
X767610Y909542D01*
X765302Y908128D01*
X762801Y907092D01*
X760169Y906460D01*
X757466Y906247D01*
X754763Y906460D01*
G37*
%LPD*%
%LPC*%
G36*
X374754Y422962D02*
X374754Y422962D01*
X372121Y423594D01*
X369621Y424630D01*
X367313Y426044D01*
X365254Y427802D01*
X363496Y429861D01*
X362082Y432169D01*
X361046Y434669D01*
X360414Y437302D01*
X360202Y440000D01*
X360414Y442698D01*
X361046Y445331D01*
X362082Y447831D01*
X363496Y450139D01*
X365254Y452198D01*
X367313Y453956D01*
X369621Y455370D01*
X372121Y456406D01*
X374754Y457038D01*
X377457Y457250D01*
X380160Y457038D01*
X382792Y456406D01*
X385293Y455370D01*
X387601Y453956D01*
X389659Y452198D01*
X391417Y450139D01*
X392831Y447831D01*
X393867Y445331D01*
X394499Y442698D01*
X394711Y440000D01*
X394499Y437302D01*
X393867Y434669D01*
X392831Y432169D01*
X391417Y429861D01*
X389659Y427802D01*
X387601Y426044D01*
X385293Y424630D01*
X382792Y423594D01*
X380160Y422962D01*
X377457Y422750D01*
X374754Y422962D01*
G37*
%LPD*%
%LPC*%
G36*
X374779Y906460D02*
X374779Y906460D01*
X372147Y907092D01*
X369646Y908128D01*
X367338Y909542D01*
X365280Y911300D01*
X363522Y913358D01*
X362108Y915666D01*
X361072Y918167D01*
X360440Y920799D01*
X360227Y923497D01*
X360440Y926196D01*
X361072Y928828D01*
X362108Y931329D01*
X363522Y933637D01*
X365280Y935695D01*
X367338Y937453D01*
X369646Y938867D01*
X372147Y939903D01*
X374779Y940535D01*
X377469Y940747D01*
X380160Y940535D01*
X382792Y939903D01*
X385293Y938867D01*
X387601Y937453D01*
X389659Y935695D01*
X391417Y933637D01*
X392831Y931329D01*
X393867Y928828D01*
X394499Y926196D01*
X394711Y923497D01*
X394499Y920799D01*
X393867Y918167D01*
X392831Y915666D01*
X391417Y913358D01*
X389659Y911300D01*
X387601Y909542D01*
X385293Y908128D01*
X382792Y907092D01*
X380160Y906460D01*
X377469Y906248D01*
X374779Y906460D01*
G37*
%LPD*%
%LPC*%
G36*
X754763Y422962D02*
X754763Y422962D01*
X752131Y423594D01*
X749630Y424630D01*
X747322Y426044D01*
X745264Y427802D01*
X743506Y429861D01*
X742092Y432169D01*
X741056Y434669D01*
X740424Y437302D01*
X740211Y440000D01*
X740424Y442698D01*
X741056Y445331D01*
X742092Y447831D01*
X743506Y450139D01*
X745264Y452198D01*
X747322Y453956D01*
X749630Y455370D01*
X752131Y456406D01*
X754763Y457038D01*
X757453Y457249D01*
X760144Y457038D01*
X762776Y456406D01*
X765277Y455370D01*
X767585Y453956D01*
X769643Y452198D01*
X771401Y450139D01*
X772815Y447831D01*
X773851Y445331D01*
X774483Y442698D01*
X774695Y440000D01*
X774483Y437302D01*
X773851Y434669D01*
X772815Y432169D01*
X771401Y429861D01*
X769643Y427802D01*
X767585Y426044D01*
X765277Y424630D01*
X762776Y423594D01*
X760144Y422962D01*
X757453Y422751D01*
X754763Y422962D01*
G37*
%LPD*%
G36*
X1409Y896029D02*
X1409Y896029D01*
X1418Y896032D01*
X1444Y896034D01*
X5278Y896868D01*
X5287Y896872D01*
X5312Y896878D01*
X8988Y898249D01*
X8996Y898255D01*
X9021Y898264D01*
X12464Y900144D01*
X12471Y900151D01*
X12494Y900163D01*
X15635Y902515D01*
X15641Y902523D01*
X15662Y902538D01*
X18437Y905313D01*
X18441Y905321D01*
X18460Y905339D01*
X20811Y908480D01*
X20815Y908490D01*
X20831Y908510D01*
X22711Y911954D01*
X22713Y911963D01*
X22726Y911986D01*
X24097Y915663D01*
X24098Y915672D01*
X24107Y915697D01*
X24941Y919531D01*
X24940Y919540D01*
X24946Y919566D01*
X25226Y923480D01*
X25224Y923489D01*
X25226Y923515D01*
X24946Y927429D01*
X24945Y927433D01*
X24945Y927436D01*
X24942Y927442D01*
X24941Y927464D01*
X24107Y931298D01*
X24102Y931307D01*
X24097Y931332D01*
X22726Y935008D01*
X22720Y935016D01*
X22711Y935041D01*
X20831Y938484D01*
X20824Y938491D01*
X20811Y938514D01*
X18460Y941655D01*
X18452Y941661D01*
X18437Y941682D01*
X15662Y944457D01*
X15654Y944461D01*
X15635Y944480D01*
X12494Y946831D01*
X12485Y946835D01*
X12464Y946851D01*
X9021Y948731D01*
X9011Y948733D01*
X8988Y948746D01*
X5312Y950117D01*
X5303Y950118D01*
X5278Y950127D01*
X1444Y950961D01*
X1434Y950960D01*
X1409Y950966D01*
X-2505Y951246D01*
X-2530Y951241D01*
X-2556Y951244D01*
X-2597Y951226D01*
X-2641Y951217D01*
X-2660Y951198D01*
X-2684Y951188D01*
X-2709Y951150D01*
X-2741Y951118D01*
X-2746Y951093D01*
X-2761Y951071D01*
X-2772Y950997D01*
X-2772Y940997D01*
X-2770Y940990D01*
X-2771Y940983D01*
X-2750Y940924D01*
X-2733Y940863D01*
X-2727Y940858D01*
X-2725Y940852D01*
X-2675Y940813D01*
X-2627Y940771D01*
X-2620Y940770D01*
X-2615Y940766D01*
X-2542Y940749D01*
X176Y940535D01*
X2808Y939903D01*
X5309Y938867D01*
X7617Y937453D01*
X9675Y935695D01*
X11433Y933637D01*
X12847Y931329D01*
X13883Y928828D01*
X14515Y926196D01*
X14727Y923497D01*
X14515Y920799D01*
X13883Y918167D01*
X12847Y915666D01*
X11433Y913358D01*
X9675Y911300D01*
X7617Y909542D01*
X5309Y908128D01*
X2808Y907092D01*
X176Y906460D01*
X-2542Y906246D01*
X-2549Y906243D01*
X-2556Y906244D01*
X-2614Y906219D01*
X-2673Y906196D01*
X-2677Y906191D01*
X-2684Y906188D01*
X-2719Y906135D01*
X-2756Y906084D01*
X-2757Y906077D01*
X-2761Y906071D01*
X-2772Y905997D01*
X-2772Y895997D01*
X-2765Y895972D01*
X-2767Y895946D01*
X-2745Y895907D01*
X-2733Y895863D01*
X-2713Y895846D01*
X-2701Y895823D01*
X-2661Y895801D01*
X-2627Y895771D01*
X-2602Y895767D01*
X-2579Y895755D01*
X-2505Y895749D01*
X1409Y896029D01*
G37*
G36*
X1383Y412531D02*
X1383Y412531D01*
X1393Y412535D01*
X1419Y412536D01*
X5253Y413370D01*
X5261Y413375D01*
X5287Y413380D01*
X8963Y414752D01*
X8971Y414757D01*
X8995Y414766D01*
X12439Y416647D01*
X12446Y416654D01*
X12469Y416666D01*
X15610Y419017D01*
X15616Y419025D01*
X15637Y419041D01*
X18411Y421815D01*
X18416Y421824D01*
X18435Y421842D01*
X20786Y424983D01*
X20789Y424992D01*
X20805Y425013D01*
X22686Y428457D01*
X22688Y428466D01*
X22700Y428489D01*
X24072Y432165D01*
X24072Y432175D01*
X24082Y432199D01*
X24916Y436033D01*
X24915Y436043D01*
X24921Y436069D01*
X25201Y439982D01*
X25199Y439992D01*
X25201Y440018D01*
X24921Y443931D01*
X24919Y443936D01*
X24920Y443939D01*
X24917Y443945D01*
X24916Y443967D01*
X24082Y447801D01*
X24077Y447809D01*
X24072Y447835D01*
X22700Y451511D01*
X22695Y451519D01*
X22686Y451543D01*
X20805Y454987D01*
X20798Y454994D01*
X20786Y455017D01*
X18435Y458158D01*
X18427Y458164D01*
X18411Y458185D01*
X15637Y460959D01*
X15628Y460964D01*
X15610Y460983D01*
X12469Y463334D01*
X12460Y463337D01*
X12439Y463353D01*
X8995Y465234D01*
X8986Y465236D01*
X8963Y465248D01*
X5287Y466620D01*
X5277Y466620D01*
X5253Y466630D01*
X1419Y467464D01*
X1409Y467463D01*
X1383Y467469D01*
X-2530Y467749D01*
X-2556Y467743D01*
X-2581Y467747D01*
X-2623Y467729D01*
X-2667Y467719D01*
X-2685Y467701D01*
X-2709Y467690D01*
X-2734Y467652D01*
X-2766Y467621D01*
X-2772Y467595D01*
X-2786Y467574D01*
X-2797Y467500D01*
X-2797Y457500D01*
X-2795Y457493D01*
X-2797Y457486D01*
X-2776Y457427D01*
X-2758Y457366D01*
X-2753Y457361D01*
X-2750Y457354D01*
X-2700Y457316D01*
X-2653Y457274D01*
X-2646Y457273D01*
X-2640Y457268D01*
X-2568Y457252D01*
X150Y457038D01*
X2783Y456406D01*
X5283Y455370D01*
X7591Y453956D01*
X9650Y452198D01*
X11408Y450139D01*
X12822Y447831D01*
X13858Y445331D01*
X14490Y442698D01*
X14702Y440000D01*
X14490Y437302D01*
X13858Y434669D01*
X12822Y432169D01*
X11408Y429861D01*
X9650Y427802D01*
X7591Y426044D01*
X5283Y424630D01*
X2783Y423594D01*
X150Y422962D01*
X-2568Y422748D01*
X-2574Y422746D01*
X-2581Y422747D01*
X-2639Y422721D01*
X-2698Y422699D01*
X-2703Y422693D01*
X-2709Y422690D01*
X-2744Y422637D01*
X-2782Y422587D01*
X-2782Y422580D01*
X-2786Y422574D01*
X-2797Y422500D01*
X-2797Y412500D01*
X-2790Y412475D01*
X-2792Y412449D01*
X-2771Y412409D01*
X-2758Y412366D01*
X-2738Y412349D01*
X-2726Y412326D01*
X-2687Y412304D01*
X-2653Y412274D01*
X-2627Y412270D01*
X-2604Y412257D01*
X-2530Y412251D01*
X1383Y412531D01*
G37*
G36*
X1137479Y895754D02*
X1137479Y895754D01*
X1137504Y895750D01*
X1137546Y895769D01*
X1137590Y895778D01*
X1137608Y895797D01*
X1137632Y895807D01*
X1137657Y895845D01*
X1137689Y895877D01*
X1137695Y895902D01*
X1137709Y895924D01*
X1137720Y895997D01*
X1137720Y905997D01*
X1137718Y906004D01*
X1137720Y906011D01*
X1137699Y906071D01*
X1137681Y906132D01*
X1137675Y906136D01*
X1137673Y906143D01*
X1137623Y906182D01*
X1137576Y906224D01*
X1137568Y906225D01*
X1137563Y906229D01*
X1137490Y906246D01*
X1134772Y906460D01*
X1132140Y907092D01*
X1129639Y908128D01*
X1127332Y909542D01*
X1125273Y911300D01*
X1123515Y913358D01*
X1122101Y915666D01*
X1121065Y918167D01*
X1120433Y920799D01*
X1120221Y923497D01*
X1120433Y926196D01*
X1121065Y928828D01*
X1122101Y931329D01*
X1123515Y933637D01*
X1125273Y935695D01*
X1127332Y937453D01*
X1129639Y938867D01*
X1132140Y939903D01*
X1134772Y940535D01*
X1137490Y940749D01*
X1137497Y940752D01*
X1137504Y940750D01*
X1137562Y940776D01*
X1137621Y940799D01*
X1137625Y940804D01*
X1137632Y940807D01*
X1137667Y940860D01*
X1137705Y940911D01*
X1137705Y940918D01*
X1137709Y940924D01*
X1137720Y940997D01*
X1137720Y950997D01*
X1137713Y951022D01*
X1137715Y951048D01*
X1137694Y951088D01*
X1137681Y951132D01*
X1137661Y951149D01*
X1137649Y951172D01*
X1137610Y951194D01*
X1137576Y951224D01*
X1137550Y951227D01*
X1137527Y951240D01*
X1137453Y951246D01*
X1133539Y950966D01*
X1133530Y950963D01*
X1133504Y950961D01*
X1129670Y950127D01*
X1129662Y950122D01*
X1129636Y950117D01*
X1125960Y948746D01*
X1125952Y948740D01*
X1125927Y948731D01*
X1122484Y946851D01*
X1122477Y946844D01*
X1122454Y946831D01*
X1119313Y944480D01*
X1119307Y944472D01*
X1119286Y944457D01*
X1116511Y941682D01*
X1116507Y941674D01*
X1116488Y941655D01*
X1114137Y938514D01*
X1114133Y938505D01*
X1114118Y938484D01*
X1112237Y935041D01*
X1112235Y935031D01*
X1112222Y935008D01*
X1110851Y931332D01*
X1110851Y931323D01*
X1110841Y931298D01*
X1110007Y927464D01*
X1110008Y927454D01*
X1110002Y927429D01*
X1109722Y923515D01*
X1109724Y923506D01*
X1109722Y923480D01*
X1110002Y919566D01*
X1110005Y919557D01*
X1110007Y919531D01*
X1110841Y915697D01*
X1110846Y915688D01*
X1110851Y915663D01*
X1112222Y911986D01*
X1112228Y911979D01*
X1112237Y911954D01*
X1114118Y908510D01*
X1114124Y908504D01*
X1114137Y908480D01*
X1116488Y905339D01*
X1116496Y905334D01*
X1116511Y905313D01*
X1119286Y902538D01*
X1119294Y902533D01*
X1119313Y902515D01*
X1122454Y900163D01*
X1122463Y900160D01*
X1122484Y900144D01*
X1125927Y898264D01*
X1125937Y898262D01*
X1125960Y898249D01*
X1129636Y896878D01*
X1129646Y896877D01*
X1129670Y896868D01*
X1133504Y896034D01*
X1133514Y896034D01*
X1133539Y896029D01*
X1137453Y895749D01*
X1137479Y895754D01*
G37*
G36*
X1137453Y412257D02*
X1137453Y412257D01*
X1137479Y412253D01*
X1137520Y412271D01*
X1137564Y412281D01*
X1137583Y412299D01*
X1137607Y412310D01*
X1137631Y412348D01*
X1137664Y412379D01*
X1137669Y412405D01*
X1137684Y412427D01*
X1137695Y412500D01*
X1137695Y422500D01*
X1137693Y422507D01*
X1137694Y422514D01*
X1137673Y422573D01*
X1137655Y422634D01*
X1137650Y422639D01*
X1137648Y422646D01*
X1137598Y422685D01*
X1137550Y422726D01*
X1137543Y422727D01*
X1137537Y422732D01*
X1137465Y422748D01*
X1134747Y422962D01*
X1132115Y423594D01*
X1129614Y424630D01*
X1127306Y426044D01*
X1125248Y427802D01*
X1123490Y429861D01*
X1122076Y432169D01*
X1121040Y434669D01*
X1120408Y437302D01*
X1120195Y440000D01*
X1120408Y442698D01*
X1121040Y445331D01*
X1122076Y447831D01*
X1123490Y450139D01*
X1125248Y452198D01*
X1127306Y453956D01*
X1129614Y455370D01*
X1132115Y456406D01*
X1134747Y457038D01*
X1137465Y457252D01*
X1137472Y457254D01*
X1137479Y457253D01*
X1137537Y457279D01*
X1137596Y457301D01*
X1137600Y457307D01*
X1137607Y457310D01*
X1137641Y457363D01*
X1137679Y457413D01*
X1137680Y457421D01*
X1137684Y457427D01*
X1137695Y457500D01*
X1137695Y467500D01*
X1137687Y467525D01*
X1137689Y467551D01*
X1137668Y467591D01*
X1137655Y467634D01*
X1137636Y467651D01*
X1137624Y467674D01*
X1137584Y467696D01*
X1137550Y467726D01*
X1137524Y467730D01*
X1137502Y467743D01*
X1137428Y467749D01*
X1133514Y467469D01*
X1133505Y467465D01*
X1133479Y467464D01*
X1129645Y466630D01*
X1129636Y466625D01*
X1129611Y466620D01*
X1125934Y465248D01*
X1125927Y465243D01*
X1125902Y465234D01*
X1122458Y463353D01*
X1122452Y463346D01*
X1122428Y463334D01*
X1119287Y460983D01*
X1119282Y460975D01*
X1119261Y460959D01*
X1116486Y458185D01*
X1116481Y458176D01*
X1116463Y458158D01*
X1114111Y455017D01*
X1114108Y455008D01*
X1114092Y454987D01*
X1112212Y451543D01*
X1112210Y451534D01*
X1112197Y451511D01*
X1110826Y447835D01*
X1110825Y447825D01*
X1110816Y447801D01*
X1109982Y443967D01*
X1109982Y443957D01*
X1109977Y443931D01*
X1109697Y440018D01*
X1109699Y440008D01*
X1109697Y439982D01*
X1109977Y436069D01*
X1109980Y436059D01*
X1109982Y436033D01*
X1110816Y432199D01*
X1110820Y432191D01*
X1110826Y432165D01*
X1112197Y428489D01*
X1112203Y428481D01*
X1112212Y428457D01*
X1114092Y425013D01*
X1114099Y425006D01*
X1114111Y424983D01*
X1116463Y421842D01*
X1116471Y421836D01*
X1116486Y421815D01*
X1119261Y419041D01*
X1119269Y419036D01*
X1119287Y419017D01*
X1122428Y416666D01*
X1122438Y416663D01*
X1122458Y416647D01*
X1125902Y414766D01*
X1125911Y414764D01*
X1125934Y414752D01*
X1129611Y413380D01*
X1129620Y413380D01*
X1129645Y413370D01*
X1133479Y412536D01*
X1133488Y412537D01*
X1133514Y412531D01*
X1137428Y412251D01*
X1137453Y412257D01*
G37*
G36*
X1075806Y1004100D02*
X1075806Y1004100D01*
X1075871Y1004102D01*
X1075915Y1004119D01*
X1075962Y1004128D01*
X1076018Y1004161D01*
X1076079Y1004186D01*
X1076114Y1004218D01*
X1076155Y1004242D01*
X1076196Y1004293D01*
X1076245Y1004337D01*
X1076266Y1004380D01*
X1076296Y1004416D01*
X1076317Y1004478D01*
X1076347Y1004537D01*
X1076356Y1004591D01*
X1076368Y1004629D01*
X1076367Y1004668D01*
X1076375Y1004722D01*
X1076375Y1008532D01*
X1076363Y1008597D01*
X1076361Y1008663D01*
X1076344Y1008707D01*
X1076335Y1008753D01*
X1076302Y1008810D01*
X1076277Y1008871D01*
X1076245Y1008906D01*
X1076221Y1008946D01*
X1076170Y1008988D01*
X1076126Y1009036D01*
X1076084Y1009058D01*
X1076047Y1009088D01*
X1075985Y1009109D01*
X1075926Y1009139D01*
X1075872Y1009147D01*
X1075835Y1009160D01*
X1075795Y1009159D01*
X1075741Y1009167D01*
X1073201Y1009167D01*
X1073136Y1009155D01*
X1073070Y1009153D01*
X1073027Y1009135D01*
X1072980Y1009127D01*
X1072923Y1009093D01*
X1072862Y1009069D01*
X1072828Y1009037D01*
X1072787Y1009013D01*
X1072745Y1008962D01*
X1072697Y1008917D01*
X1072675Y1008875D01*
X1072645Y1008839D01*
X1072624Y1008776D01*
X1072594Y1008718D01*
X1072586Y1008663D01*
X1072574Y1008626D01*
X1072574Y1008622D01*
X1072575Y1008586D01*
X1072567Y1008532D01*
X1072567Y1004722D01*
X1072578Y1004658D01*
X1072580Y1004592D01*
X1072598Y1004548D01*
X1072606Y1004502D01*
X1072640Y1004445D01*
X1072664Y1004384D01*
X1072696Y1004349D01*
X1072720Y1004308D01*
X1072771Y1004267D01*
X1072816Y1004218D01*
X1072858Y1004197D01*
X1072895Y1004167D01*
X1072957Y1004146D01*
X1073015Y1004116D01*
X1073070Y1004108D01*
X1073107Y1004095D01*
X1073146Y1004096D01*
X1073201Y1004088D01*
X1075741Y1004088D01*
X1075806Y1004100D01*
G37*
G36*
X695796Y1004100D02*
X695796Y1004100D01*
X695862Y1004102D01*
X695906Y1004119D01*
X695952Y1004128D01*
X696009Y1004161D01*
X696070Y1004186D01*
X696105Y1004218D01*
X696145Y1004242D01*
X696187Y1004293D01*
X696235Y1004337D01*
X696257Y1004380D01*
X696287Y1004416D01*
X696308Y1004478D01*
X696338Y1004537D01*
X696346Y1004591D01*
X696359Y1004629D01*
X696358Y1004668D01*
X696366Y1004722D01*
X696366Y1008532D01*
X696354Y1008597D01*
X696352Y1008663D01*
X696334Y1008707D01*
X696326Y1008753D01*
X696292Y1008810D01*
X696268Y1008871D01*
X696236Y1008906D01*
X696212Y1008946D01*
X696161Y1008988D01*
X696116Y1009036D01*
X696074Y1009058D01*
X696038Y1009088D01*
X695975Y1009109D01*
X695917Y1009139D01*
X695862Y1009147D01*
X695825Y1009160D01*
X695786Y1009159D01*
X695731Y1009167D01*
X693191Y1009167D01*
X693127Y1009155D01*
X693061Y1009153D01*
X693017Y1009135D01*
X692971Y1009127D01*
X692914Y1009093D01*
X692853Y1009069D01*
X692818Y1009037D01*
X692777Y1009013D01*
X692736Y1008962D01*
X692687Y1008917D01*
X692666Y1008875D01*
X692636Y1008839D01*
X692615Y1008776D01*
X692585Y1008718D01*
X692577Y1008663D01*
X692564Y1008626D01*
X692564Y1008622D01*
X692565Y1008586D01*
X692557Y1008532D01*
X692557Y1004722D01*
X692569Y1004658D01*
X692571Y1004592D01*
X692588Y1004548D01*
X692597Y1004502D01*
X692630Y1004445D01*
X692655Y1004384D01*
X692687Y1004349D01*
X692711Y1004308D01*
X692762Y1004267D01*
X692806Y1004218D01*
X692849Y1004197D01*
X692885Y1004167D01*
X692947Y1004146D01*
X693006Y1004116D01*
X693060Y1004108D01*
X693098Y1004095D01*
X693137Y1004096D01*
X693191Y1004088D01*
X695731Y1004088D01*
X695796Y1004100D01*
G37*
G36*
X315812Y1004100D02*
X315812Y1004100D01*
X315878Y1004102D01*
X315922Y1004119D01*
X315968Y1004128D01*
X316025Y1004161D01*
X316086Y1004186D01*
X316121Y1004218D01*
X316161Y1004242D01*
X316203Y1004293D01*
X316251Y1004337D01*
X316273Y1004380D01*
X316303Y1004416D01*
X316324Y1004478D01*
X316354Y1004537D01*
X316362Y1004591D01*
X316375Y1004629D01*
X316374Y1004668D01*
X316382Y1004722D01*
X316382Y1008532D01*
X316370Y1008597D01*
X316368Y1008663D01*
X316350Y1008707D01*
X316342Y1008753D01*
X316308Y1008810D01*
X316284Y1008871D01*
X316252Y1008906D01*
X316228Y1008946D01*
X316177Y1008988D01*
X316132Y1009036D01*
X316090Y1009058D01*
X316054Y1009088D01*
X315991Y1009109D01*
X315933Y1009139D01*
X315878Y1009147D01*
X315841Y1009160D01*
X315802Y1009159D01*
X315747Y1009167D01*
X313207Y1009167D01*
X313143Y1009155D01*
X313077Y1009153D01*
X313033Y1009135D01*
X312987Y1009127D01*
X312930Y1009093D01*
X312869Y1009069D01*
X312834Y1009037D01*
X312793Y1009013D01*
X312752Y1008962D01*
X312703Y1008917D01*
X312682Y1008875D01*
X312652Y1008839D01*
X312631Y1008776D01*
X312601Y1008718D01*
X312593Y1008663D01*
X312580Y1008626D01*
X312580Y1008622D01*
X312581Y1008586D01*
X312573Y1008532D01*
X312573Y1004722D01*
X312585Y1004658D01*
X312587Y1004592D01*
X312604Y1004548D01*
X312613Y1004502D01*
X312646Y1004445D01*
X312671Y1004384D01*
X312703Y1004349D01*
X312727Y1004308D01*
X312778Y1004267D01*
X312822Y1004218D01*
X312865Y1004197D01*
X312901Y1004167D01*
X312963Y1004146D01*
X313022Y1004116D01*
X313076Y1004108D01*
X313114Y1004095D01*
X313153Y1004096D01*
X313207Y1004088D01*
X315747Y1004088D01*
X315812Y1004100D01*
G37*
G36*
X821780Y354342D02*
X821780Y354342D01*
X821846Y354344D01*
X821890Y354362D01*
X821936Y354370D01*
X821993Y354404D01*
X822054Y354429D01*
X822089Y354460D01*
X822129Y354485D01*
X822171Y354536D01*
X822219Y354580D01*
X822241Y354622D01*
X822271Y354659D01*
X822292Y354721D01*
X822322Y354780D01*
X822330Y354834D01*
X822343Y354871D01*
X822342Y354911D01*
X822350Y354965D01*
X822350Y358775D01*
X822338Y358840D01*
X822336Y358906D01*
X822318Y358949D01*
X822310Y358996D01*
X822276Y359053D01*
X822252Y359113D01*
X822220Y359148D01*
X822196Y359189D01*
X822145Y359231D01*
X822100Y359279D01*
X822058Y359301D01*
X822022Y359330D01*
X821959Y359351D01*
X821901Y359382D01*
X821846Y359390D01*
X821809Y359402D01*
X821770Y359401D01*
X821715Y359409D01*
X819175Y359409D01*
X819111Y359398D01*
X819045Y359396D01*
X819001Y359378D01*
X818955Y359370D01*
X818898Y359336D01*
X818837Y359311D01*
X818802Y359280D01*
X818761Y359255D01*
X818720Y359204D01*
X818671Y359160D01*
X818650Y359118D01*
X818620Y359081D01*
X818599Y359019D01*
X818569Y358960D01*
X818561Y358906D01*
X818548Y358869D01*
X818548Y358865D01*
X818548Y358864D01*
X818549Y358829D01*
X818541Y358775D01*
X818541Y354965D01*
X818553Y354900D01*
X818555Y354834D01*
X818572Y354791D01*
X818581Y354744D01*
X818614Y354687D01*
X818639Y354627D01*
X818671Y354592D01*
X818695Y354551D01*
X818746Y354510D01*
X818790Y354461D01*
X818833Y354439D01*
X818869Y354410D01*
X818931Y354389D01*
X818990Y354358D01*
X819044Y354350D01*
X819082Y354338D01*
X819121Y354339D01*
X819175Y354331D01*
X821715Y354331D01*
X821780Y354342D01*
G37*
G36*
X441796Y354342D02*
X441796Y354342D01*
X441862Y354344D01*
X441906Y354362D01*
X441952Y354370D01*
X442009Y354404D01*
X442070Y354429D01*
X442105Y354460D01*
X442145Y354485D01*
X442187Y354536D01*
X442235Y354580D01*
X442257Y354622D01*
X442287Y354659D01*
X442308Y354721D01*
X442338Y354780D01*
X442346Y354834D01*
X442359Y354871D01*
X442358Y354911D01*
X442366Y354965D01*
X442366Y358775D01*
X442354Y358840D01*
X442352Y358906D01*
X442334Y358949D01*
X442326Y358996D01*
X442292Y359053D01*
X442268Y359113D01*
X442236Y359148D01*
X442212Y359189D01*
X442161Y359231D01*
X442116Y359279D01*
X442074Y359301D01*
X442038Y359330D01*
X441975Y359351D01*
X441917Y359382D01*
X441862Y359390D01*
X441825Y359402D01*
X441786Y359401D01*
X441731Y359409D01*
X439191Y359409D01*
X439127Y359398D01*
X439061Y359396D01*
X439017Y359378D01*
X438971Y359370D01*
X438914Y359336D01*
X438853Y359311D01*
X438818Y359280D01*
X438777Y359255D01*
X438736Y359204D01*
X438687Y359160D01*
X438666Y359118D01*
X438636Y359081D01*
X438615Y359019D01*
X438585Y358960D01*
X438577Y358906D01*
X438564Y358869D01*
X438564Y358865D01*
X438564Y358864D01*
X438565Y358829D01*
X438557Y358775D01*
X438557Y354965D01*
X438569Y354900D01*
X438571Y354834D01*
X438588Y354791D01*
X438597Y354744D01*
X438630Y354687D01*
X438655Y354627D01*
X438687Y354592D01*
X438711Y354551D01*
X438762Y354510D01*
X438806Y354461D01*
X438849Y354439D01*
X438885Y354410D01*
X438947Y354389D01*
X439006Y354358D01*
X439060Y354350D01*
X439098Y354338D01*
X439137Y354339D01*
X439191Y354331D01*
X441731Y354331D01*
X441796Y354342D01*
G37*
G36*
X61787Y354342D02*
X61787Y354342D01*
X61853Y354344D01*
X61896Y354362D01*
X61943Y354370D01*
X62000Y354404D01*
X62060Y354429D01*
X62095Y354460D01*
X62136Y354485D01*
X62178Y354536D01*
X62226Y354580D01*
X62248Y354622D01*
X62277Y354659D01*
X62298Y354721D01*
X62329Y354780D01*
X62337Y354834D01*
X62349Y354871D01*
X62348Y354911D01*
X62356Y354965D01*
X62356Y358775D01*
X62345Y358840D01*
X62343Y358906D01*
X62325Y358949D01*
X62317Y358996D01*
X62283Y359053D01*
X62258Y359113D01*
X62227Y359148D01*
X62202Y359189D01*
X62151Y359231D01*
X62107Y359279D01*
X62065Y359301D01*
X62028Y359330D01*
X61966Y359351D01*
X61907Y359382D01*
X61853Y359390D01*
X61816Y359402D01*
X61776Y359401D01*
X61722Y359409D01*
X59182Y359409D01*
X59117Y359398D01*
X59051Y359396D01*
X59008Y359378D01*
X58961Y359370D01*
X58904Y359336D01*
X58844Y359311D01*
X58809Y359280D01*
X58768Y359255D01*
X58727Y359204D01*
X58678Y359160D01*
X58656Y359118D01*
X58627Y359081D01*
X58606Y359019D01*
X58575Y358960D01*
X58567Y358906D01*
X58555Y358869D01*
X58555Y358865D01*
X58555Y358864D01*
X58556Y358829D01*
X58548Y358775D01*
X58548Y354965D01*
X58559Y354900D01*
X58561Y354834D01*
X58579Y354791D01*
X58587Y354744D01*
X58621Y354687D01*
X58646Y354627D01*
X58677Y354592D01*
X58702Y354551D01*
X58753Y354510D01*
X58797Y354461D01*
X58839Y354439D01*
X58876Y354410D01*
X58938Y354389D01*
X58997Y354358D01*
X59051Y354350D01*
X59088Y354338D01*
X59128Y354339D01*
X59182Y354331D01*
X61722Y354331D01*
X61787Y354342D01*
G37*
D10*
X365252Y50800D03*
X9652Y635000D03*
D11*
X66446Y600792D03*
X308458Y600792D03*
D12*
X312452Y114300D03*
D13*
X62452Y114300D03*
D14*
X54608Y369568D02*
X54608Y375160D01*
X66296Y375160D01*
X66296Y369568D01*
X54608Y369568D01*
X54608Y371737D02*
X66296Y371737D01*
X66296Y373906D02*
X54608Y373906D01*
X54608Y364746D02*
X54608Y359154D01*
X54608Y364746D02*
X66296Y364746D01*
X66296Y359154D01*
X54608Y359154D01*
X54608Y361323D02*
X66296Y361323D01*
X66296Y363492D02*
X54608Y363492D01*
X54608Y354332D02*
X54608Y348740D01*
X54608Y354332D02*
X66296Y354332D01*
X66296Y348740D01*
X54608Y348740D01*
X54608Y350909D02*
X66296Y350909D01*
X66296Y353078D02*
X54608Y353078D01*
D15*
X276212Y6010D02*
X278692Y6010D01*
X276212Y6010D02*
X276212Y24490D01*
X278692Y24490D01*
X278692Y6010D01*
X278692Y8185D02*
X276212Y8185D01*
X276212Y10360D02*
X278692Y10360D01*
X278692Y12535D02*
X276212Y12535D01*
X276212Y14710D02*
X278692Y14710D01*
X278692Y16885D02*
X276212Y16885D01*
X276212Y19060D02*
X278692Y19060D01*
X278692Y21235D02*
X276212Y21235D01*
X276212Y23410D02*
X278692Y23410D01*
X273692Y6010D02*
X271212Y6010D01*
X271212Y24490D01*
X273692Y24490D01*
X273692Y6010D01*
X273692Y8185D02*
X271212Y8185D01*
X271212Y10360D02*
X273692Y10360D01*
X273692Y12535D02*
X271212Y12535D01*
X271212Y14710D02*
X273692Y14710D01*
X273692Y16885D02*
X271212Y16885D01*
X271212Y19060D02*
X273692Y19060D01*
X273692Y21235D02*
X271212Y21235D01*
X271212Y23410D02*
X273692Y23410D01*
X268692Y6010D02*
X266212Y6010D01*
X266212Y24490D01*
X268692Y24490D01*
X268692Y6010D01*
X268692Y8185D02*
X266212Y8185D01*
X266212Y10360D02*
X268692Y10360D01*
X268692Y12535D02*
X266212Y12535D01*
X266212Y14710D02*
X268692Y14710D01*
X268692Y16885D02*
X266212Y16885D01*
X266212Y19060D02*
X268692Y19060D01*
X268692Y21235D02*
X266212Y21235D01*
X266212Y23410D02*
X268692Y23410D01*
X263692Y6010D02*
X261212Y6010D01*
X261212Y24490D01*
X263692Y24490D01*
X263692Y6010D01*
X263692Y8185D02*
X261212Y8185D01*
X261212Y10360D02*
X263692Y10360D01*
X263692Y12535D02*
X261212Y12535D01*
X261212Y14710D02*
X263692Y14710D01*
X263692Y16885D02*
X261212Y16885D01*
X261212Y19060D02*
X263692Y19060D01*
X263692Y21235D02*
X261212Y21235D01*
X261212Y23410D02*
X263692Y23410D01*
X258692Y6010D02*
X256212Y6010D01*
X256212Y24490D01*
X258692Y24490D01*
X258692Y6010D01*
X258692Y8185D02*
X256212Y8185D01*
X256212Y10360D02*
X258692Y10360D01*
X258692Y12535D02*
X256212Y12535D01*
X256212Y14710D02*
X258692Y14710D01*
X258692Y16885D02*
X256212Y16885D01*
X256212Y19060D02*
X258692Y19060D01*
X258692Y21235D02*
X256212Y21235D01*
X256212Y23410D02*
X258692Y23410D01*
X253692Y6010D02*
X251212Y6010D01*
X251212Y24490D01*
X253692Y24490D01*
X253692Y6010D01*
X253692Y8185D02*
X251212Y8185D01*
X251212Y10360D02*
X253692Y10360D01*
X253692Y12535D02*
X251212Y12535D01*
X251212Y14710D02*
X253692Y14710D01*
X253692Y16885D02*
X251212Y16885D01*
X251212Y19060D02*
X253692Y19060D01*
X253692Y21235D02*
X251212Y21235D01*
X251212Y23410D02*
X253692Y23410D01*
X248692Y6010D02*
X246212Y6010D01*
X246212Y24490D01*
X248692Y24490D01*
X248692Y6010D01*
X248692Y8185D02*
X246212Y8185D01*
X246212Y10360D02*
X248692Y10360D01*
X248692Y12535D02*
X246212Y12535D01*
X246212Y14710D02*
X248692Y14710D01*
X248692Y16885D02*
X246212Y16885D01*
X246212Y19060D02*
X248692Y19060D01*
X248692Y21235D02*
X246212Y21235D01*
X246212Y23410D02*
X248692Y23410D01*
X243692Y6010D02*
X241212Y6010D01*
X241212Y24490D01*
X243692Y24490D01*
X243692Y6010D01*
X243692Y8185D02*
X241212Y8185D01*
X241212Y10360D02*
X243692Y10360D01*
X243692Y12535D02*
X241212Y12535D01*
X241212Y14710D02*
X243692Y14710D01*
X243692Y16885D02*
X241212Y16885D01*
X241212Y19060D02*
X243692Y19060D01*
X243692Y21235D02*
X241212Y21235D01*
X241212Y23410D02*
X243692Y23410D01*
X238692Y6010D02*
X236212Y6010D01*
X236212Y24490D01*
X238692Y24490D01*
X238692Y6010D01*
X238692Y8185D02*
X236212Y8185D01*
X236212Y10360D02*
X238692Y10360D01*
X238692Y12535D02*
X236212Y12535D01*
X236212Y14710D02*
X238692Y14710D01*
X238692Y16885D02*
X236212Y16885D01*
X236212Y19060D02*
X238692Y19060D01*
X238692Y21235D02*
X236212Y21235D01*
X236212Y23410D02*
X238692Y23410D01*
X233692Y6010D02*
X231212Y6010D01*
X231212Y24490D01*
X233692Y24490D01*
X233692Y6010D01*
X233692Y8185D02*
X231212Y8185D01*
X231212Y10360D02*
X233692Y10360D01*
X233692Y12535D02*
X231212Y12535D01*
X231212Y14710D02*
X233692Y14710D01*
X233692Y16885D02*
X231212Y16885D01*
X231212Y19060D02*
X233692Y19060D01*
X233692Y21235D02*
X231212Y21235D01*
X231212Y23410D02*
X233692Y23410D01*
X228692Y6010D02*
X226212Y6010D01*
X226212Y24490D01*
X228692Y24490D01*
X228692Y6010D01*
X228692Y8185D02*
X226212Y8185D01*
X226212Y10360D02*
X228692Y10360D01*
X228692Y12535D02*
X226212Y12535D01*
X226212Y14710D02*
X228692Y14710D01*
X228692Y16885D02*
X226212Y16885D01*
X226212Y19060D02*
X228692Y19060D01*
X228692Y21235D02*
X226212Y21235D01*
X226212Y23410D02*
X228692Y23410D01*
X203692Y6010D02*
X201212Y6010D01*
X201212Y24490D01*
X203692Y24490D01*
X203692Y6010D01*
X203692Y8185D02*
X201212Y8185D01*
X201212Y10360D02*
X203692Y10360D01*
X203692Y12535D02*
X201212Y12535D01*
X201212Y14710D02*
X203692Y14710D01*
X203692Y16885D02*
X201212Y16885D01*
X201212Y19060D02*
X203692Y19060D01*
X203692Y21235D02*
X201212Y21235D01*
X201212Y23410D02*
X203692Y23410D01*
X198692Y6010D02*
X196212Y6010D01*
X196212Y24490D01*
X198692Y24490D01*
X198692Y6010D01*
X198692Y8185D02*
X196212Y8185D01*
X196212Y10360D02*
X198692Y10360D01*
X198692Y12535D02*
X196212Y12535D01*
X196212Y14710D02*
X198692Y14710D01*
X198692Y16885D02*
X196212Y16885D01*
X196212Y19060D02*
X198692Y19060D01*
X198692Y21235D02*
X196212Y21235D01*
X196212Y23410D02*
X198692Y23410D01*
X193692Y6010D02*
X191212Y6010D01*
X191212Y24490D01*
X193692Y24490D01*
X193692Y6010D01*
X193692Y8185D02*
X191212Y8185D01*
X191212Y10360D02*
X193692Y10360D01*
X193692Y12535D02*
X191212Y12535D01*
X191212Y14710D02*
X193692Y14710D01*
X193692Y16885D02*
X191212Y16885D01*
X191212Y19060D02*
X193692Y19060D01*
X193692Y21235D02*
X191212Y21235D01*
X191212Y23410D02*
X193692Y23410D01*
X188692Y6010D02*
X186212Y6010D01*
X186212Y24490D01*
X188692Y24490D01*
X188692Y6010D01*
X188692Y8185D02*
X186212Y8185D01*
X186212Y10360D02*
X188692Y10360D01*
X188692Y12535D02*
X186212Y12535D01*
X186212Y14710D02*
X188692Y14710D01*
X188692Y16885D02*
X186212Y16885D01*
X186212Y19060D02*
X188692Y19060D01*
X188692Y21235D02*
X186212Y21235D01*
X186212Y23410D02*
X188692Y23410D01*
X183692Y6010D02*
X181212Y6010D01*
X181212Y24490D01*
X183692Y24490D01*
X183692Y6010D01*
X183692Y8185D02*
X181212Y8185D01*
X181212Y10360D02*
X183692Y10360D01*
X183692Y12535D02*
X181212Y12535D01*
X181212Y14710D02*
X183692Y14710D01*
X183692Y16885D02*
X181212Y16885D01*
X181212Y19060D02*
X183692Y19060D01*
X183692Y21235D02*
X181212Y21235D01*
X181212Y23410D02*
X183692Y23410D01*
X178692Y6010D02*
X176212Y6010D01*
X176212Y24490D01*
X178692Y24490D01*
X178692Y6010D01*
X178692Y8185D02*
X176212Y8185D01*
X176212Y10360D02*
X178692Y10360D01*
X178692Y12535D02*
X176212Y12535D01*
X176212Y14710D02*
X178692Y14710D01*
X178692Y16885D02*
X176212Y16885D01*
X176212Y19060D02*
X178692Y19060D01*
X178692Y21235D02*
X176212Y21235D01*
X176212Y23410D02*
X178692Y23410D01*
X173692Y6010D02*
X171212Y6010D01*
X171212Y24490D01*
X173692Y24490D01*
X173692Y6010D01*
X173692Y8185D02*
X171212Y8185D01*
X171212Y10360D02*
X173692Y10360D01*
X173692Y12535D02*
X171212Y12535D01*
X171212Y14710D02*
X173692Y14710D01*
X173692Y16885D02*
X171212Y16885D01*
X171212Y19060D02*
X173692Y19060D01*
X173692Y21235D02*
X171212Y21235D01*
X171212Y23410D02*
X173692Y23410D01*
X168692Y6010D02*
X166212Y6010D01*
X166212Y24490D01*
X168692Y24490D01*
X168692Y6010D01*
X168692Y8185D02*
X166212Y8185D01*
X166212Y10360D02*
X168692Y10360D01*
X168692Y12535D02*
X166212Y12535D01*
X166212Y14710D02*
X168692Y14710D01*
X168692Y16885D02*
X166212Y16885D01*
X166212Y19060D02*
X168692Y19060D01*
X168692Y21235D02*
X166212Y21235D01*
X166212Y23410D02*
X168692Y23410D01*
X163692Y6010D02*
X161212Y6010D01*
X161212Y24490D01*
X163692Y24490D01*
X163692Y6010D01*
X163692Y8185D02*
X161212Y8185D01*
X161212Y10360D02*
X163692Y10360D01*
X163692Y12535D02*
X161212Y12535D01*
X161212Y14710D02*
X163692Y14710D01*
X163692Y16885D02*
X161212Y16885D01*
X161212Y19060D02*
X163692Y19060D01*
X163692Y21235D02*
X161212Y21235D01*
X161212Y23410D02*
X163692Y23410D01*
X158692Y6010D02*
X156212Y6010D01*
X156212Y24490D01*
X158692Y24490D01*
X158692Y6010D01*
X158692Y8185D02*
X156212Y8185D01*
X156212Y10360D02*
X158692Y10360D01*
X158692Y12535D02*
X156212Y12535D01*
X156212Y14710D02*
X158692Y14710D01*
X158692Y16885D02*
X156212Y16885D01*
X156212Y19060D02*
X158692Y19060D01*
X158692Y21235D02*
X156212Y21235D01*
X156212Y23410D02*
X158692Y23410D01*
X153692Y6010D02*
X151212Y6010D01*
X151212Y24490D01*
X153692Y24490D01*
X153692Y6010D01*
X153692Y8185D02*
X151212Y8185D01*
X151212Y10360D02*
X153692Y10360D01*
X153692Y12535D02*
X151212Y12535D01*
X151212Y14710D02*
X153692Y14710D01*
X153692Y16885D02*
X151212Y16885D01*
X151212Y19060D02*
X153692Y19060D01*
X153692Y21235D02*
X151212Y21235D01*
X151212Y23410D02*
X153692Y23410D01*
X148692Y6010D02*
X146212Y6010D01*
X146212Y24490D01*
X148692Y24490D01*
X148692Y6010D01*
X148692Y8185D02*
X146212Y8185D01*
X146212Y10360D02*
X148692Y10360D01*
X148692Y12535D02*
X146212Y12535D01*
X146212Y14710D02*
X148692Y14710D01*
X148692Y16885D02*
X146212Y16885D01*
X146212Y19060D02*
X148692Y19060D01*
X148692Y21235D02*
X146212Y21235D01*
X146212Y23410D02*
X148692Y23410D01*
X143692Y6010D02*
X141212Y6010D01*
X141212Y24490D01*
X143692Y24490D01*
X143692Y6010D01*
X143692Y8185D02*
X141212Y8185D01*
X141212Y10360D02*
X143692Y10360D01*
X143692Y12535D02*
X141212Y12535D01*
X141212Y14710D02*
X143692Y14710D01*
X143692Y16885D02*
X141212Y16885D01*
X141212Y19060D02*
X143692Y19060D01*
X143692Y21235D02*
X141212Y21235D01*
X141212Y23410D02*
X143692Y23410D01*
X138692Y6010D02*
X136212Y6010D01*
X136212Y24490D01*
X138692Y24490D01*
X138692Y6010D01*
X138692Y8185D02*
X136212Y8185D01*
X136212Y10360D02*
X138692Y10360D01*
X138692Y12535D02*
X136212Y12535D01*
X136212Y14710D02*
X138692Y14710D01*
X138692Y16885D02*
X136212Y16885D01*
X136212Y19060D02*
X138692Y19060D01*
X138692Y21235D02*
X136212Y21235D01*
X136212Y23410D02*
X138692Y23410D01*
X133692Y6010D02*
X131212Y6010D01*
X131212Y24490D01*
X133692Y24490D01*
X133692Y6010D01*
X133692Y8185D02*
X131212Y8185D01*
X131212Y10360D02*
X133692Y10360D01*
X133692Y12535D02*
X131212Y12535D01*
X131212Y14710D02*
X133692Y14710D01*
X133692Y16885D02*
X131212Y16885D01*
X131212Y19060D02*
X133692Y19060D01*
X133692Y21235D02*
X131212Y21235D01*
X131212Y23410D02*
X133692Y23410D01*
X128692Y6010D02*
X126212Y6010D01*
X126212Y24490D01*
X128692Y24490D01*
X128692Y6010D01*
X128692Y8185D02*
X126212Y8185D01*
X126212Y10360D02*
X128692Y10360D01*
X128692Y12535D02*
X126212Y12535D01*
X126212Y14710D02*
X128692Y14710D01*
X128692Y16885D02*
X126212Y16885D01*
X126212Y19060D02*
X128692Y19060D01*
X128692Y21235D02*
X126212Y21235D01*
X126212Y23410D02*
X128692Y23410D01*
X123692Y6010D02*
X121212Y6010D01*
X121212Y24490D01*
X123692Y24490D01*
X123692Y6010D01*
X123692Y8185D02*
X121212Y8185D01*
X121212Y10360D02*
X123692Y10360D01*
X123692Y12535D02*
X121212Y12535D01*
X121212Y14710D02*
X123692Y14710D01*
X123692Y16885D02*
X121212Y16885D01*
X121212Y19060D02*
X123692Y19060D01*
X123692Y21235D02*
X121212Y21235D01*
X121212Y23410D02*
X123692Y23410D01*
X118692Y6010D02*
X116212Y6010D01*
X116212Y24490D01*
X118692Y24490D01*
X118692Y6010D01*
X118692Y8185D02*
X116212Y8185D01*
X116212Y10360D02*
X118692Y10360D01*
X118692Y12535D02*
X116212Y12535D01*
X116212Y14710D02*
X118692Y14710D01*
X118692Y16885D02*
X116212Y16885D01*
X116212Y19060D02*
X118692Y19060D01*
X118692Y21235D02*
X116212Y21235D01*
X116212Y23410D02*
X118692Y23410D01*
X113692Y6010D02*
X111212Y6010D01*
X111212Y24490D01*
X113692Y24490D01*
X113692Y6010D01*
X113692Y8185D02*
X111212Y8185D01*
X111212Y10360D02*
X113692Y10360D01*
X113692Y12535D02*
X111212Y12535D01*
X111212Y14710D02*
X113692Y14710D01*
X113692Y16885D02*
X111212Y16885D01*
X111212Y19060D02*
X113692Y19060D01*
X113692Y21235D02*
X111212Y21235D01*
X111212Y23410D02*
X113692Y23410D01*
X108692Y6010D02*
X106212Y6010D01*
X106212Y24490D01*
X108692Y24490D01*
X108692Y6010D01*
X108692Y8185D02*
X106212Y8185D01*
X106212Y10360D02*
X108692Y10360D01*
X108692Y12535D02*
X106212Y12535D01*
X106212Y14710D02*
X108692Y14710D01*
X108692Y16885D02*
X106212Y16885D01*
X106212Y19060D02*
X108692Y19060D01*
X108692Y21235D02*
X106212Y21235D01*
X106212Y23410D02*
X108692Y23410D01*
X103692Y6010D02*
X101212Y6010D01*
X101212Y24490D01*
X103692Y24490D01*
X103692Y6010D01*
X103692Y8185D02*
X101212Y8185D01*
X101212Y10360D02*
X103692Y10360D01*
X103692Y12535D02*
X101212Y12535D01*
X101212Y14710D02*
X103692Y14710D01*
X103692Y16885D02*
X101212Y16885D01*
X101212Y19060D02*
X103692Y19060D01*
X103692Y21235D02*
X101212Y21235D01*
X101212Y23410D02*
X103692Y23410D01*
X98692Y6010D02*
X96212Y6010D01*
X96212Y24490D01*
X98692Y24490D01*
X98692Y6010D01*
X98692Y8185D02*
X96212Y8185D01*
X96212Y10360D02*
X98692Y10360D01*
X98692Y12535D02*
X96212Y12535D01*
X96212Y14710D02*
X98692Y14710D01*
X98692Y16885D02*
X96212Y16885D01*
X96212Y19060D02*
X98692Y19060D01*
X98692Y21235D02*
X96212Y21235D01*
X96212Y23410D02*
X98692Y23410D01*
D16*
X367452Y461000D03*
X367452Y419000D03*
X354452Y440000D03*
X7452Y419000D03*
X7452Y461000D03*
X20452Y440000D03*
D17*
X164960Y186658D02*
X164960Y181642D01*
X153944Y181642D01*
X153944Y186658D01*
X164960Y186658D01*
X164960Y183783D02*
X153944Y183783D01*
X153944Y185924D02*
X164960Y185924D01*
X164960Y194342D02*
X164960Y199358D01*
X164960Y194342D02*
X153944Y194342D01*
X153944Y199358D01*
X164960Y199358D01*
X164960Y196483D02*
X153944Y196483D01*
X153944Y198624D02*
X164960Y198624D01*
X164960Y207042D02*
X164960Y212058D01*
X164960Y207042D02*
X153944Y207042D01*
X153944Y212058D01*
X164960Y212058D01*
X164960Y209183D02*
X153944Y209183D01*
X153944Y211324D02*
X164960Y211324D01*
X164960Y219742D02*
X164960Y224758D01*
X164960Y219742D02*
X153944Y219742D01*
X153944Y224758D01*
X164960Y224758D01*
X164960Y221883D02*
X153944Y221883D01*
X153944Y224024D02*
X164960Y224024D01*
X220960Y224758D02*
X220960Y219742D01*
X209944Y219742D01*
X209944Y224758D01*
X220960Y224758D01*
X220960Y221883D02*
X209944Y221883D01*
X209944Y224024D02*
X220960Y224024D01*
X220960Y212058D02*
X220960Y207042D01*
X209944Y207042D01*
X209944Y212058D01*
X220960Y212058D01*
X220960Y209183D02*
X209944Y209183D01*
X209944Y211324D02*
X220960Y211324D01*
X220960Y199358D02*
X220960Y194342D01*
X209944Y194342D01*
X209944Y199358D01*
X220960Y199358D01*
X220960Y196483D02*
X209944Y196483D01*
X209944Y198624D02*
X220960Y198624D01*
X220960Y186658D02*
X220960Y181642D01*
X209944Y181642D01*
X209944Y186658D01*
X220960Y186658D01*
X220960Y183783D02*
X209944Y183783D01*
X209944Y185924D02*
X220960Y185924D01*
D18*
X232410Y219837D02*
X232410Y225171D01*
X244094Y225171D01*
X244094Y219837D01*
X232410Y219837D01*
X232410Y222009D02*
X244094Y222009D01*
X244094Y224181D02*
X232410Y224181D01*
X232410Y217043D02*
X232410Y211709D01*
X232410Y217043D02*
X244094Y217043D01*
X244094Y211709D01*
X232410Y211709D01*
X232410Y213881D02*
X244094Y213881D01*
X244094Y216053D02*
X232410Y216053D01*
D10*
X745261Y50800D03*
X389661Y635000D03*
D11*
X446456Y600792D03*
X688467Y600792D03*
D12*
X692461Y114300D03*
D13*
X442461Y114300D03*
D14*
X434617Y369568D02*
X434617Y375160D01*
X446305Y375160D01*
X446305Y369568D01*
X434617Y369568D01*
X434617Y371737D02*
X446305Y371737D01*
X446305Y373906D02*
X434617Y373906D01*
X434617Y364746D02*
X434617Y359154D01*
X434617Y364746D02*
X446305Y364746D01*
X446305Y359154D01*
X434617Y359154D01*
X434617Y361323D02*
X446305Y361323D01*
X446305Y363492D02*
X434617Y363492D01*
X434617Y354332D02*
X434617Y348740D01*
X434617Y354332D02*
X446305Y354332D01*
X446305Y348740D01*
X434617Y348740D01*
X434617Y350909D02*
X446305Y350909D01*
X446305Y353078D02*
X434617Y353078D01*
D15*
X656221Y6010D02*
X658701Y6010D01*
X656221Y6010D02*
X656221Y24490D01*
X658701Y24490D01*
X658701Y6010D01*
X658701Y8185D02*
X656221Y8185D01*
X656221Y10360D02*
X658701Y10360D01*
X658701Y12535D02*
X656221Y12535D01*
X656221Y14710D02*
X658701Y14710D01*
X658701Y16885D02*
X656221Y16885D01*
X656221Y19060D02*
X658701Y19060D01*
X658701Y21235D02*
X656221Y21235D01*
X656221Y23410D02*
X658701Y23410D01*
X653701Y6010D02*
X651221Y6010D01*
X651221Y24490D01*
X653701Y24490D01*
X653701Y6010D01*
X653701Y8185D02*
X651221Y8185D01*
X651221Y10360D02*
X653701Y10360D01*
X653701Y12535D02*
X651221Y12535D01*
X651221Y14710D02*
X653701Y14710D01*
X653701Y16885D02*
X651221Y16885D01*
X651221Y19060D02*
X653701Y19060D01*
X653701Y21235D02*
X651221Y21235D01*
X651221Y23410D02*
X653701Y23410D01*
X648701Y6010D02*
X646221Y6010D01*
X646221Y24490D01*
X648701Y24490D01*
X648701Y6010D01*
X648701Y8185D02*
X646221Y8185D01*
X646221Y10360D02*
X648701Y10360D01*
X648701Y12535D02*
X646221Y12535D01*
X646221Y14710D02*
X648701Y14710D01*
X648701Y16885D02*
X646221Y16885D01*
X646221Y19060D02*
X648701Y19060D01*
X648701Y21235D02*
X646221Y21235D01*
X646221Y23410D02*
X648701Y23410D01*
X643701Y6010D02*
X641221Y6010D01*
X641221Y24490D01*
X643701Y24490D01*
X643701Y6010D01*
X643701Y8185D02*
X641221Y8185D01*
X641221Y10360D02*
X643701Y10360D01*
X643701Y12535D02*
X641221Y12535D01*
X641221Y14710D02*
X643701Y14710D01*
X643701Y16885D02*
X641221Y16885D01*
X641221Y19060D02*
X643701Y19060D01*
X643701Y21235D02*
X641221Y21235D01*
X641221Y23410D02*
X643701Y23410D01*
X638701Y6010D02*
X636221Y6010D01*
X636221Y24490D01*
X638701Y24490D01*
X638701Y6010D01*
X638701Y8185D02*
X636221Y8185D01*
X636221Y10360D02*
X638701Y10360D01*
X638701Y12535D02*
X636221Y12535D01*
X636221Y14710D02*
X638701Y14710D01*
X638701Y16885D02*
X636221Y16885D01*
X636221Y19060D02*
X638701Y19060D01*
X638701Y21235D02*
X636221Y21235D01*
X636221Y23410D02*
X638701Y23410D01*
X633701Y6010D02*
X631221Y6010D01*
X631221Y24490D01*
X633701Y24490D01*
X633701Y6010D01*
X633701Y8185D02*
X631221Y8185D01*
X631221Y10360D02*
X633701Y10360D01*
X633701Y12535D02*
X631221Y12535D01*
X631221Y14710D02*
X633701Y14710D01*
X633701Y16885D02*
X631221Y16885D01*
X631221Y19060D02*
X633701Y19060D01*
X633701Y21235D02*
X631221Y21235D01*
X631221Y23410D02*
X633701Y23410D01*
X628701Y6010D02*
X626221Y6010D01*
X626221Y24490D01*
X628701Y24490D01*
X628701Y6010D01*
X628701Y8185D02*
X626221Y8185D01*
X626221Y10360D02*
X628701Y10360D01*
X628701Y12535D02*
X626221Y12535D01*
X626221Y14710D02*
X628701Y14710D01*
X628701Y16885D02*
X626221Y16885D01*
X626221Y19060D02*
X628701Y19060D01*
X628701Y21235D02*
X626221Y21235D01*
X626221Y23410D02*
X628701Y23410D01*
X623701Y6010D02*
X621221Y6010D01*
X621221Y24490D01*
X623701Y24490D01*
X623701Y6010D01*
X623701Y8185D02*
X621221Y8185D01*
X621221Y10360D02*
X623701Y10360D01*
X623701Y12535D02*
X621221Y12535D01*
X621221Y14710D02*
X623701Y14710D01*
X623701Y16885D02*
X621221Y16885D01*
X621221Y19060D02*
X623701Y19060D01*
X623701Y21235D02*
X621221Y21235D01*
X621221Y23410D02*
X623701Y23410D01*
X618701Y6010D02*
X616221Y6010D01*
X616221Y24490D01*
X618701Y24490D01*
X618701Y6010D01*
X618701Y8185D02*
X616221Y8185D01*
X616221Y10360D02*
X618701Y10360D01*
X618701Y12535D02*
X616221Y12535D01*
X616221Y14710D02*
X618701Y14710D01*
X618701Y16885D02*
X616221Y16885D01*
X616221Y19060D02*
X618701Y19060D01*
X618701Y21235D02*
X616221Y21235D01*
X616221Y23410D02*
X618701Y23410D01*
X613701Y6010D02*
X611221Y6010D01*
X611221Y24490D01*
X613701Y24490D01*
X613701Y6010D01*
X613701Y8185D02*
X611221Y8185D01*
X611221Y10360D02*
X613701Y10360D01*
X613701Y12535D02*
X611221Y12535D01*
X611221Y14710D02*
X613701Y14710D01*
X613701Y16885D02*
X611221Y16885D01*
X611221Y19060D02*
X613701Y19060D01*
X613701Y21235D02*
X611221Y21235D01*
X611221Y23410D02*
X613701Y23410D01*
X608701Y6010D02*
X606221Y6010D01*
X606221Y24490D01*
X608701Y24490D01*
X608701Y6010D01*
X608701Y8185D02*
X606221Y8185D01*
X606221Y10360D02*
X608701Y10360D01*
X608701Y12535D02*
X606221Y12535D01*
X606221Y14710D02*
X608701Y14710D01*
X608701Y16885D02*
X606221Y16885D01*
X606221Y19060D02*
X608701Y19060D01*
X608701Y21235D02*
X606221Y21235D01*
X606221Y23410D02*
X608701Y23410D01*
X583701Y6010D02*
X581221Y6010D01*
X581221Y24490D01*
X583701Y24490D01*
X583701Y6010D01*
X583701Y8185D02*
X581221Y8185D01*
X581221Y10360D02*
X583701Y10360D01*
X583701Y12535D02*
X581221Y12535D01*
X581221Y14710D02*
X583701Y14710D01*
X583701Y16885D02*
X581221Y16885D01*
X581221Y19060D02*
X583701Y19060D01*
X583701Y21235D02*
X581221Y21235D01*
X581221Y23410D02*
X583701Y23410D01*
X578701Y6010D02*
X576221Y6010D01*
X576221Y24490D01*
X578701Y24490D01*
X578701Y6010D01*
X578701Y8185D02*
X576221Y8185D01*
X576221Y10360D02*
X578701Y10360D01*
X578701Y12535D02*
X576221Y12535D01*
X576221Y14710D02*
X578701Y14710D01*
X578701Y16885D02*
X576221Y16885D01*
X576221Y19060D02*
X578701Y19060D01*
X578701Y21235D02*
X576221Y21235D01*
X576221Y23410D02*
X578701Y23410D01*
X573701Y6010D02*
X571221Y6010D01*
X571221Y24490D01*
X573701Y24490D01*
X573701Y6010D01*
X573701Y8185D02*
X571221Y8185D01*
X571221Y10360D02*
X573701Y10360D01*
X573701Y12535D02*
X571221Y12535D01*
X571221Y14710D02*
X573701Y14710D01*
X573701Y16885D02*
X571221Y16885D01*
X571221Y19060D02*
X573701Y19060D01*
X573701Y21235D02*
X571221Y21235D01*
X571221Y23410D02*
X573701Y23410D01*
X568701Y6010D02*
X566221Y6010D01*
X566221Y24490D01*
X568701Y24490D01*
X568701Y6010D01*
X568701Y8185D02*
X566221Y8185D01*
X566221Y10360D02*
X568701Y10360D01*
X568701Y12535D02*
X566221Y12535D01*
X566221Y14710D02*
X568701Y14710D01*
X568701Y16885D02*
X566221Y16885D01*
X566221Y19060D02*
X568701Y19060D01*
X568701Y21235D02*
X566221Y21235D01*
X566221Y23410D02*
X568701Y23410D01*
X563701Y6010D02*
X561221Y6010D01*
X561221Y24490D01*
X563701Y24490D01*
X563701Y6010D01*
X563701Y8185D02*
X561221Y8185D01*
X561221Y10360D02*
X563701Y10360D01*
X563701Y12535D02*
X561221Y12535D01*
X561221Y14710D02*
X563701Y14710D01*
X563701Y16885D02*
X561221Y16885D01*
X561221Y19060D02*
X563701Y19060D01*
X563701Y21235D02*
X561221Y21235D01*
X561221Y23410D02*
X563701Y23410D01*
X558701Y6010D02*
X556221Y6010D01*
X556221Y24490D01*
X558701Y24490D01*
X558701Y6010D01*
X558701Y8185D02*
X556221Y8185D01*
X556221Y10360D02*
X558701Y10360D01*
X558701Y12535D02*
X556221Y12535D01*
X556221Y14710D02*
X558701Y14710D01*
X558701Y16885D02*
X556221Y16885D01*
X556221Y19060D02*
X558701Y19060D01*
X558701Y21235D02*
X556221Y21235D01*
X556221Y23410D02*
X558701Y23410D01*
X553701Y6010D02*
X551221Y6010D01*
X551221Y24490D01*
X553701Y24490D01*
X553701Y6010D01*
X553701Y8185D02*
X551221Y8185D01*
X551221Y10360D02*
X553701Y10360D01*
X553701Y12535D02*
X551221Y12535D01*
X551221Y14710D02*
X553701Y14710D01*
X553701Y16885D02*
X551221Y16885D01*
X551221Y19060D02*
X553701Y19060D01*
X553701Y21235D02*
X551221Y21235D01*
X551221Y23410D02*
X553701Y23410D01*
X548701Y6010D02*
X546221Y6010D01*
X546221Y24490D01*
X548701Y24490D01*
X548701Y6010D01*
X548701Y8185D02*
X546221Y8185D01*
X546221Y10360D02*
X548701Y10360D01*
X548701Y12535D02*
X546221Y12535D01*
X546221Y14710D02*
X548701Y14710D01*
X548701Y16885D02*
X546221Y16885D01*
X546221Y19060D02*
X548701Y19060D01*
X548701Y21235D02*
X546221Y21235D01*
X546221Y23410D02*
X548701Y23410D01*
X543701Y6010D02*
X541221Y6010D01*
X541221Y24490D01*
X543701Y24490D01*
X543701Y6010D01*
X543701Y8185D02*
X541221Y8185D01*
X541221Y10360D02*
X543701Y10360D01*
X543701Y12535D02*
X541221Y12535D01*
X541221Y14710D02*
X543701Y14710D01*
X543701Y16885D02*
X541221Y16885D01*
X541221Y19060D02*
X543701Y19060D01*
X543701Y21235D02*
X541221Y21235D01*
X541221Y23410D02*
X543701Y23410D01*
X538701Y6010D02*
X536221Y6010D01*
X536221Y24490D01*
X538701Y24490D01*
X538701Y6010D01*
X538701Y8185D02*
X536221Y8185D01*
X536221Y10360D02*
X538701Y10360D01*
X538701Y12535D02*
X536221Y12535D01*
X536221Y14710D02*
X538701Y14710D01*
X538701Y16885D02*
X536221Y16885D01*
X536221Y19060D02*
X538701Y19060D01*
X538701Y21235D02*
X536221Y21235D01*
X536221Y23410D02*
X538701Y23410D01*
X533701Y6010D02*
X531221Y6010D01*
X531221Y24490D01*
X533701Y24490D01*
X533701Y6010D01*
X533701Y8185D02*
X531221Y8185D01*
X531221Y10360D02*
X533701Y10360D01*
X533701Y12535D02*
X531221Y12535D01*
X531221Y14710D02*
X533701Y14710D01*
X533701Y16885D02*
X531221Y16885D01*
X531221Y19060D02*
X533701Y19060D01*
X533701Y21235D02*
X531221Y21235D01*
X531221Y23410D02*
X533701Y23410D01*
X528701Y6010D02*
X526221Y6010D01*
X526221Y24490D01*
X528701Y24490D01*
X528701Y6010D01*
X528701Y8185D02*
X526221Y8185D01*
X526221Y10360D02*
X528701Y10360D01*
X528701Y12535D02*
X526221Y12535D01*
X526221Y14710D02*
X528701Y14710D01*
X528701Y16885D02*
X526221Y16885D01*
X526221Y19060D02*
X528701Y19060D01*
X528701Y21235D02*
X526221Y21235D01*
X526221Y23410D02*
X528701Y23410D01*
X523701Y6010D02*
X521221Y6010D01*
X521221Y24490D01*
X523701Y24490D01*
X523701Y6010D01*
X523701Y8185D02*
X521221Y8185D01*
X521221Y10360D02*
X523701Y10360D01*
X523701Y12535D02*
X521221Y12535D01*
X521221Y14710D02*
X523701Y14710D01*
X523701Y16885D02*
X521221Y16885D01*
X521221Y19060D02*
X523701Y19060D01*
X523701Y21235D02*
X521221Y21235D01*
X521221Y23410D02*
X523701Y23410D01*
X518701Y6010D02*
X516221Y6010D01*
X516221Y24490D01*
X518701Y24490D01*
X518701Y6010D01*
X518701Y8185D02*
X516221Y8185D01*
X516221Y10360D02*
X518701Y10360D01*
X518701Y12535D02*
X516221Y12535D01*
X516221Y14710D02*
X518701Y14710D01*
X518701Y16885D02*
X516221Y16885D01*
X516221Y19060D02*
X518701Y19060D01*
X518701Y21235D02*
X516221Y21235D01*
X516221Y23410D02*
X518701Y23410D01*
X513701Y6010D02*
X511221Y6010D01*
X511221Y24490D01*
X513701Y24490D01*
X513701Y6010D01*
X513701Y8185D02*
X511221Y8185D01*
X511221Y10360D02*
X513701Y10360D01*
X513701Y12535D02*
X511221Y12535D01*
X511221Y14710D02*
X513701Y14710D01*
X513701Y16885D02*
X511221Y16885D01*
X511221Y19060D02*
X513701Y19060D01*
X513701Y21235D02*
X511221Y21235D01*
X511221Y23410D02*
X513701Y23410D01*
X508701Y6010D02*
X506221Y6010D01*
X506221Y24490D01*
X508701Y24490D01*
X508701Y6010D01*
X508701Y8185D02*
X506221Y8185D01*
X506221Y10360D02*
X508701Y10360D01*
X508701Y12535D02*
X506221Y12535D01*
X506221Y14710D02*
X508701Y14710D01*
X508701Y16885D02*
X506221Y16885D01*
X506221Y19060D02*
X508701Y19060D01*
X508701Y21235D02*
X506221Y21235D01*
X506221Y23410D02*
X508701Y23410D01*
X503701Y6010D02*
X501221Y6010D01*
X501221Y24490D01*
X503701Y24490D01*
X503701Y6010D01*
X503701Y8185D02*
X501221Y8185D01*
X501221Y10360D02*
X503701Y10360D01*
X503701Y12535D02*
X501221Y12535D01*
X501221Y14710D02*
X503701Y14710D01*
X503701Y16885D02*
X501221Y16885D01*
X501221Y19060D02*
X503701Y19060D01*
X503701Y21235D02*
X501221Y21235D01*
X501221Y23410D02*
X503701Y23410D01*
X498701Y6010D02*
X496221Y6010D01*
X496221Y24490D01*
X498701Y24490D01*
X498701Y6010D01*
X498701Y8185D02*
X496221Y8185D01*
X496221Y10360D02*
X498701Y10360D01*
X498701Y12535D02*
X496221Y12535D01*
X496221Y14710D02*
X498701Y14710D01*
X498701Y16885D02*
X496221Y16885D01*
X496221Y19060D02*
X498701Y19060D01*
X498701Y21235D02*
X496221Y21235D01*
X496221Y23410D02*
X498701Y23410D01*
X493701Y6010D02*
X491221Y6010D01*
X491221Y24490D01*
X493701Y24490D01*
X493701Y6010D01*
X493701Y8185D02*
X491221Y8185D01*
X491221Y10360D02*
X493701Y10360D01*
X493701Y12535D02*
X491221Y12535D01*
X491221Y14710D02*
X493701Y14710D01*
X493701Y16885D02*
X491221Y16885D01*
X491221Y19060D02*
X493701Y19060D01*
X493701Y21235D02*
X491221Y21235D01*
X491221Y23410D02*
X493701Y23410D01*
X488701Y6010D02*
X486221Y6010D01*
X486221Y24490D01*
X488701Y24490D01*
X488701Y6010D01*
X488701Y8185D02*
X486221Y8185D01*
X486221Y10360D02*
X488701Y10360D01*
X488701Y12535D02*
X486221Y12535D01*
X486221Y14710D02*
X488701Y14710D01*
X488701Y16885D02*
X486221Y16885D01*
X486221Y19060D02*
X488701Y19060D01*
X488701Y21235D02*
X486221Y21235D01*
X486221Y23410D02*
X488701Y23410D01*
X483701Y6010D02*
X481221Y6010D01*
X481221Y24490D01*
X483701Y24490D01*
X483701Y6010D01*
X483701Y8185D02*
X481221Y8185D01*
X481221Y10360D02*
X483701Y10360D01*
X483701Y12535D02*
X481221Y12535D01*
X481221Y14710D02*
X483701Y14710D01*
X483701Y16885D02*
X481221Y16885D01*
X481221Y19060D02*
X483701Y19060D01*
X483701Y21235D02*
X481221Y21235D01*
X481221Y23410D02*
X483701Y23410D01*
X478701Y6010D02*
X476221Y6010D01*
X476221Y24490D01*
X478701Y24490D01*
X478701Y6010D01*
X478701Y8185D02*
X476221Y8185D01*
X476221Y10360D02*
X478701Y10360D01*
X478701Y12535D02*
X476221Y12535D01*
X476221Y14710D02*
X478701Y14710D01*
X478701Y16885D02*
X476221Y16885D01*
X476221Y19060D02*
X478701Y19060D01*
X478701Y21235D02*
X476221Y21235D01*
X476221Y23410D02*
X478701Y23410D01*
D16*
X747461Y461000D03*
X747461Y419000D03*
X734461Y440000D03*
X387461Y419000D03*
X387461Y461000D03*
X400461Y440000D03*
D17*
X544969Y186658D02*
X544969Y181642D01*
X533953Y181642D01*
X533953Y186658D01*
X544969Y186658D01*
X544969Y183783D02*
X533953Y183783D01*
X533953Y185924D02*
X544969Y185924D01*
X544969Y194342D02*
X544969Y199358D01*
X544969Y194342D02*
X533953Y194342D01*
X533953Y199358D01*
X544969Y199358D01*
X544969Y196483D02*
X533953Y196483D01*
X533953Y198624D02*
X544969Y198624D01*
X544969Y207042D02*
X544969Y212058D01*
X544969Y207042D02*
X533953Y207042D01*
X533953Y212058D01*
X544969Y212058D01*
X544969Y209183D02*
X533953Y209183D01*
X533953Y211324D02*
X544969Y211324D01*
X544969Y219742D02*
X544969Y224758D01*
X544969Y219742D02*
X533953Y219742D01*
X533953Y224758D01*
X544969Y224758D01*
X544969Y221883D02*
X533953Y221883D01*
X533953Y224024D02*
X544969Y224024D01*
X600969Y224758D02*
X600969Y219742D01*
X589953Y219742D01*
X589953Y224758D01*
X600969Y224758D01*
X600969Y221883D02*
X589953Y221883D01*
X589953Y224024D02*
X600969Y224024D01*
X600969Y212058D02*
X600969Y207042D01*
X589953Y207042D01*
X589953Y212058D01*
X600969Y212058D01*
X600969Y209183D02*
X589953Y209183D01*
X589953Y211324D02*
X600969Y211324D01*
X600969Y199358D02*
X600969Y194342D01*
X589953Y194342D01*
X589953Y199358D01*
X600969Y199358D01*
X600969Y196483D02*
X589953Y196483D01*
X589953Y198624D02*
X600969Y198624D01*
X600969Y186658D02*
X600969Y181642D01*
X589953Y181642D01*
X589953Y186658D01*
X600969Y186658D01*
X600969Y183783D02*
X589953Y183783D01*
X589953Y185924D02*
X600969Y185924D01*
D18*
X612419Y219837D02*
X612419Y225171D01*
X624103Y225171D01*
X624103Y219837D01*
X612419Y219837D01*
X612419Y222009D02*
X624103Y222009D01*
X624103Y224181D02*
X612419Y224181D01*
X612419Y217043D02*
X612419Y211709D01*
X612419Y217043D02*
X624103Y217043D01*
X624103Y211709D01*
X612419Y211709D01*
X612419Y213881D02*
X624103Y213881D01*
X624103Y216053D02*
X612419Y216053D01*
D10*
X1125245Y50800D03*
X769645Y635000D03*
D11*
X826440Y600792D03*
X1068451Y600792D03*
D12*
X1072445Y114300D03*
D13*
X822445Y114300D03*
D14*
X814601Y369568D02*
X814601Y375160D01*
X826289Y375160D01*
X826289Y369568D01*
X814601Y369568D01*
X814601Y371737D02*
X826289Y371737D01*
X826289Y373906D02*
X814601Y373906D01*
X814601Y364746D02*
X814601Y359154D01*
X814601Y364746D02*
X826289Y364746D01*
X826289Y359154D01*
X814601Y359154D01*
X814601Y361323D02*
X826289Y361323D01*
X826289Y363492D02*
X814601Y363492D01*
X814601Y354332D02*
X814601Y348740D01*
X814601Y354332D02*
X826289Y354332D01*
X826289Y348740D01*
X814601Y348740D01*
X814601Y350909D02*
X826289Y350909D01*
X826289Y353078D02*
X814601Y353078D01*
D15*
X1036205Y6010D02*
X1038685Y6010D01*
X1036205Y6010D02*
X1036205Y24490D01*
X1038685Y24490D01*
X1038685Y6010D01*
X1038685Y8185D02*
X1036205Y8185D01*
X1036205Y10360D02*
X1038685Y10360D01*
X1038685Y12535D02*
X1036205Y12535D01*
X1036205Y14710D02*
X1038685Y14710D01*
X1038685Y16885D02*
X1036205Y16885D01*
X1036205Y19060D02*
X1038685Y19060D01*
X1038685Y21235D02*
X1036205Y21235D01*
X1036205Y23410D02*
X1038685Y23410D01*
X1033685Y6010D02*
X1031205Y6010D01*
X1031205Y24490D01*
X1033685Y24490D01*
X1033685Y6010D01*
X1033685Y8185D02*
X1031205Y8185D01*
X1031205Y10360D02*
X1033685Y10360D01*
X1033685Y12535D02*
X1031205Y12535D01*
X1031205Y14710D02*
X1033685Y14710D01*
X1033685Y16885D02*
X1031205Y16885D01*
X1031205Y19060D02*
X1033685Y19060D01*
X1033685Y21235D02*
X1031205Y21235D01*
X1031205Y23410D02*
X1033685Y23410D01*
X1028685Y6010D02*
X1026205Y6010D01*
X1026205Y24490D01*
X1028685Y24490D01*
X1028685Y6010D01*
X1028685Y8185D02*
X1026205Y8185D01*
X1026205Y10360D02*
X1028685Y10360D01*
X1028685Y12535D02*
X1026205Y12535D01*
X1026205Y14710D02*
X1028685Y14710D01*
X1028685Y16885D02*
X1026205Y16885D01*
X1026205Y19060D02*
X1028685Y19060D01*
X1028685Y21235D02*
X1026205Y21235D01*
X1026205Y23410D02*
X1028685Y23410D01*
X1023685Y6010D02*
X1021205Y6010D01*
X1021205Y24490D01*
X1023685Y24490D01*
X1023685Y6010D01*
X1023685Y8185D02*
X1021205Y8185D01*
X1021205Y10360D02*
X1023685Y10360D01*
X1023685Y12535D02*
X1021205Y12535D01*
X1021205Y14710D02*
X1023685Y14710D01*
X1023685Y16885D02*
X1021205Y16885D01*
X1021205Y19060D02*
X1023685Y19060D01*
X1023685Y21235D02*
X1021205Y21235D01*
X1021205Y23410D02*
X1023685Y23410D01*
X1018685Y6010D02*
X1016205Y6010D01*
X1016205Y24490D01*
X1018685Y24490D01*
X1018685Y6010D01*
X1018685Y8185D02*
X1016205Y8185D01*
X1016205Y10360D02*
X1018685Y10360D01*
X1018685Y12535D02*
X1016205Y12535D01*
X1016205Y14710D02*
X1018685Y14710D01*
X1018685Y16885D02*
X1016205Y16885D01*
X1016205Y19060D02*
X1018685Y19060D01*
X1018685Y21235D02*
X1016205Y21235D01*
X1016205Y23410D02*
X1018685Y23410D01*
X1013685Y6010D02*
X1011205Y6010D01*
X1011205Y24490D01*
X1013685Y24490D01*
X1013685Y6010D01*
X1013685Y8185D02*
X1011205Y8185D01*
X1011205Y10360D02*
X1013685Y10360D01*
X1013685Y12535D02*
X1011205Y12535D01*
X1011205Y14710D02*
X1013685Y14710D01*
X1013685Y16885D02*
X1011205Y16885D01*
X1011205Y19060D02*
X1013685Y19060D01*
X1013685Y21235D02*
X1011205Y21235D01*
X1011205Y23410D02*
X1013685Y23410D01*
X1008685Y6010D02*
X1006205Y6010D01*
X1006205Y24490D01*
X1008685Y24490D01*
X1008685Y6010D01*
X1008685Y8185D02*
X1006205Y8185D01*
X1006205Y10360D02*
X1008685Y10360D01*
X1008685Y12535D02*
X1006205Y12535D01*
X1006205Y14710D02*
X1008685Y14710D01*
X1008685Y16885D02*
X1006205Y16885D01*
X1006205Y19060D02*
X1008685Y19060D01*
X1008685Y21235D02*
X1006205Y21235D01*
X1006205Y23410D02*
X1008685Y23410D01*
X1003685Y6010D02*
X1001205Y6010D01*
X1001205Y24490D01*
X1003685Y24490D01*
X1003685Y6010D01*
X1003685Y8185D02*
X1001205Y8185D01*
X1001205Y10360D02*
X1003685Y10360D01*
X1003685Y12535D02*
X1001205Y12535D01*
X1001205Y14710D02*
X1003685Y14710D01*
X1003685Y16885D02*
X1001205Y16885D01*
X1001205Y19060D02*
X1003685Y19060D01*
X1003685Y21235D02*
X1001205Y21235D01*
X1001205Y23410D02*
X1003685Y23410D01*
X998685Y6010D02*
X996205Y6010D01*
X996205Y24490D01*
X998685Y24490D01*
X998685Y6010D01*
X998685Y8185D02*
X996205Y8185D01*
X996205Y10360D02*
X998685Y10360D01*
X998685Y12535D02*
X996205Y12535D01*
X996205Y14710D02*
X998685Y14710D01*
X998685Y16885D02*
X996205Y16885D01*
X996205Y19060D02*
X998685Y19060D01*
X998685Y21235D02*
X996205Y21235D01*
X996205Y23410D02*
X998685Y23410D01*
X993685Y6010D02*
X991205Y6010D01*
X991205Y24490D01*
X993685Y24490D01*
X993685Y6010D01*
X993685Y8185D02*
X991205Y8185D01*
X991205Y10360D02*
X993685Y10360D01*
X993685Y12535D02*
X991205Y12535D01*
X991205Y14710D02*
X993685Y14710D01*
X993685Y16885D02*
X991205Y16885D01*
X991205Y19060D02*
X993685Y19060D01*
X993685Y21235D02*
X991205Y21235D01*
X991205Y23410D02*
X993685Y23410D01*
X988685Y6010D02*
X986205Y6010D01*
X986205Y24490D01*
X988685Y24490D01*
X988685Y6010D01*
X988685Y8185D02*
X986205Y8185D01*
X986205Y10360D02*
X988685Y10360D01*
X988685Y12535D02*
X986205Y12535D01*
X986205Y14710D02*
X988685Y14710D01*
X988685Y16885D02*
X986205Y16885D01*
X986205Y19060D02*
X988685Y19060D01*
X988685Y21235D02*
X986205Y21235D01*
X986205Y23410D02*
X988685Y23410D01*
X963685Y6010D02*
X961205Y6010D01*
X961205Y24490D01*
X963685Y24490D01*
X963685Y6010D01*
X963685Y8185D02*
X961205Y8185D01*
X961205Y10360D02*
X963685Y10360D01*
X963685Y12535D02*
X961205Y12535D01*
X961205Y14710D02*
X963685Y14710D01*
X963685Y16885D02*
X961205Y16885D01*
X961205Y19060D02*
X963685Y19060D01*
X963685Y21235D02*
X961205Y21235D01*
X961205Y23410D02*
X963685Y23410D01*
X958685Y6010D02*
X956205Y6010D01*
X956205Y24490D01*
X958685Y24490D01*
X958685Y6010D01*
X958685Y8185D02*
X956205Y8185D01*
X956205Y10360D02*
X958685Y10360D01*
X958685Y12535D02*
X956205Y12535D01*
X956205Y14710D02*
X958685Y14710D01*
X958685Y16885D02*
X956205Y16885D01*
X956205Y19060D02*
X958685Y19060D01*
X958685Y21235D02*
X956205Y21235D01*
X956205Y23410D02*
X958685Y23410D01*
X953685Y6010D02*
X951205Y6010D01*
X951205Y24490D01*
X953685Y24490D01*
X953685Y6010D01*
X953685Y8185D02*
X951205Y8185D01*
X951205Y10360D02*
X953685Y10360D01*
X953685Y12535D02*
X951205Y12535D01*
X951205Y14710D02*
X953685Y14710D01*
X953685Y16885D02*
X951205Y16885D01*
X951205Y19060D02*
X953685Y19060D01*
X953685Y21235D02*
X951205Y21235D01*
X951205Y23410D02*
X953685Y23410D01*
X948685Y6010D02*
X946205Y6010D01*
X946205Y24490D01*
X948685Y24490D01*
X948685Y6010D01*
X948685Y8185D02*
X946205Y8185D01*
X946205Y10360D02*
X948685Y10360D01*
X948685Y12535D02*
X946205Y12535D01*
X946205Y14710D02*
X948685Y14710D01*
X948685Y16885D02*
X946205Y16885D01*
X946205Y19060D02*
X948685Y19060D01*
X948685Y21235D02*
X946205Y21235D01*
X946205Y23410D02*
X948685Y23410D01*
X943685Y6010D02*
X941205Y6010D01*
X941205Y24490D01*
X943685Y24490D01*
X943685Y6010D01*
X943685Y8185D02*
X941205Y8185D01*
X941205Y10360D02*
X943685Y10360D01*
X943685Y12535D02*
X941205Y12535D01*
X941205Y14710D02*
X943685Y14710D01*
X943685Y16885D02*
X941205Y16885D01*
X941205Y19060D02*
X943685Y19060D01*
X943685Y21235D02*
X941205Y21235D01*
X941205Y23410D02*
X943685Y23410D01*
X938685Y6010D02*
X936205Y6010D01*
X936205Y24490D01*
X938685Y24490D01*
X938685Y6010D01*
X938685Y8185D02*
X936205Y8185D01*
X936205Y10360D02*
X938685Y10360D01*
X938685Y12535D02*
X936205Y12535D01*
X936205Y14710D02*
X938685Y14710D01*
X938685Y16885D02*
X936205Y16885D01*
X936205Y19060D02*
X938685Y19060D01*
X938685Y21235D02*
X936205Y21235D01*
X936205Y23410D02*
X938685Y23410D01*
X933685Y6010D02*
X931205Y6010D01*
X931205Y24490D01*
X933685Y24490D01*
X933685Y6010D01*
X933685Y8185D02*
X931205Y8185D01*
X931205Y10360D02*
X933685Y10360D01*
X933685Y12535D02*
X931205Y12535D01*
X931205Y14710D02*
X933685Y14710D01*
X933685Y16885D02*
X931205Y16885D01*
X931205Y19060D02*
X933685Y19060D01*
X933685Y21235D02*
X931205Y21235D01*
X931205Y23410D02*
X933685Y23410D01*
X928685Y6010D02*
X926205Y6010D01*
X926205Y24490D01*
X928685Y24490D01*
X928685Y6010D01*
X928685Y8185D02*
X926205Y8185D01*
X926205Y10360D02*
X928685Y10360D01*
X928685Y12535D02*
X926205Y12535D01*
X926205Y14710D02*
X928685Y14710D01*
X928685Y16885D02*
X926205Y16885D01*
X926205Y19060D02*
X928685Y19060D01*
X928685Y21235D02*
X926205Y21235D01*
X926205Y23410D02*
X928685Y23410D01*
X923685Y6010D02*
X921205Y6010D01*
X921205Y24490D01*
X923685Y24490D01*
X923685Y6010D01*
X923685Y8185D02*
X921205Y8185D01*
X921205Y10360D02*
X923685Y10360D01*
X923685Y12535D02*
X921205Y12535D01*
X921205Y14710D02*
X923685Y14710D01*
X923685Y16885D02*
X921205Y16885D01*
X921205Y19060D02*
X923685Y19060D01*
X923685Y21235D02*
X921205Y21235D01*
X921205Y23410D02*
X923685Y23410D01*
X918685Y6010D02*
X916205Y6010D01*
X916205Y24490D01*
X918685Y24490D01*
X918685Y6010D01*
X918685Y8185D02*
X916205Y8185D01*
X916205Y10360D02*
X918685Y10360D01*
X918685Y12535D02*
X916205Y12535D01*
X916205Y14710D02*
X918685Y14710D01*
X918685Y16885D02*
X916205Y16885D01*
X916205Y19060D02*
X918685Y19060D01*
X918685Y21235D02*
X916205Y21235D01*
X916205Y23410D02*
X918685Y23410D01*
X913685Y6010D02*
X911205Y6010D01*
X911205Y24490D01*
X913685Y24490D01*
X913685Y6010D01*
X913685Y8185D02*
X911205Y8185D01*
X911205Y10360D02*
X913685Y10360D01*
X913685Y12535D02*
X911205Y12535D01*
X911205Y14710D02*
X913685Y14710D01*
X913685Y16885D02*
X911205Y16885D01*
X911205Y19060D02*
X913685Y19060D01*
X913685Y21235D02*
X911205Y21235D01*
X911205Y23410D02*
X913685Y23410D01*
X908685Y6010D02*
X906205Y6010D01*
X906205Y24490D01*
X908685Y24490D01*
X908685Y6010D01*
X908685Y8185D02*
X906205Y8185D01*
X906205Y10360D02*
X908685Y10360D01*
X908685Y12535D02*
X906205Y12535D01*
X906205Y14710D02*
X908685Y14710D01*
X908685Y16885D02*
X906205Y16885D01*
X906205Y19060D02*
X908685Y19060D01*
X908685Y21235D02*
X906205Y21235D01*
X906205Y23410D02*
X908685Y23410D01*
X903685Y6010D02*
X901205Y6010D01*
X901205Y24490D01*
X903685Y24490D01*
X903685Y6010D01*
X903685Y8185D02*
X901205Y8185D01*
X901205Y10360D02*
X903685Y10360D01*
X903685Y12535D02*
X901205Y12535D01*
X901205Y14710D02*
X903685Y14710D01*
X903685Y16885D02*
X901205Y16885D01*
X901205Y19060D02*
X903685Y19060D01*
X903685Y21235D02*
X901205Y21235D01*
X901205Y23410D02*
X903685Y23410D01*
X898685Y6010D02*
X896205Y6010D01*
X896205Y24490D01*
X898685Y24490D01*
X898685Y6010D01*
X898685Y8185D02*
X896205Y8185D01*
X896205Y10360D02*
X898685Y10360D01*
X898685Y12535D02*
X896205Y12535D01*
X896205Y14710D02*
X898685Y14710D01*
X898685Y16885D02*
X896205Y16885D01*
X896205Y19060D02*
X898685Y19060D01*
X898685Y21235D02*
X896205Y21235D01*
X896205Y23410D02*
X898685Y23410D01*
X893685Y6010D02*
X891205Y6010D01*
X891205Y24490D01*
X893685Y24490D01*
X893685Y6010D01*
X893685Y8185D02*
X891205Y8185D01*
X891205Y10360D02*
X893685Y10360D01*
X893685Y12535D02*
X891205Y12535D01*
X891205Y14710D02*
X893685Y14710D01*
X893685Y16885D02*
X891205Y16885D01*
X891205Y19060D02*
X893685Y19060D01*
X893685Y21235D02*
X891205Y21235D01*
X891205Y23410D02*
X893685Y23410D01*
X888685Y6010D02*
X886205Y6010D01*
X886205Y24490D01*
X888685Y24490D01*
X888685Y6010D01*
X888685Y8185D02*
X886205Y8185D01*
X886205Y10360D02*
X888685Y10360D01*
X888685Y12535D02*
X886205Y12535D01*
X886205Y14710D02*
X888685Y14710D01*
X888685Y16885D02*
X886205Y16885D01*
X886205Y19060D02*
X888685Y19060D01*
X888685Y21235D02*
X886205Y21235D01*
X886205Y23410D02*
X888685Y23410D01*
X883685Y6010D02*
X881205Y6010D01*
X881205Y24490D01*
X883685Y24490D01*
X883685Y6010D01*
X883685Y8185D02*
X881205Y8185D01*
X881205Y10360D02*
X883685Y10360D01*
X883685Y12535D02*
X881205Y12535D01*
X881205Y14710D02*
X883685Y14710D01*
X883685Y16885D02*
X881205Y16885D01*
X881205Y19060D02*
X883685Y19060D01*
X883685Y21235D02*
X881205Y21235D01*
X881205Y23410D02*
X883685Y23410D01*
X878685Y6010D02*
X876205Y6010D01*
X876205Y24490D01*
X878685Y24490D01*
X878685Y6010D01*
X878685Y8185D02*
X876205Y8185D01*
X876205Y10360D02*
X878685Y10360D01*
X878685Y12535D02*
X876205Y12535D01*
X876205Y14710D02*
X878685Y14710D01*
X878685Y16885D02*
X876205Y16885D01*
X876205Y19060D02*
X878685Y19060D01*
X878685Y21235D02*
X876205Y21235D01*
X876205Y23410D02*
X878685Y23410D01*
X873685Y6010D02*
X871205Y6010D01*
X871205Y24490D01*
X873685Y24490D01*
X873685Y6010D01*
X873685Y8185D02*
X871205Y8185D01*
X871205Y10360D02*
X873685Y10360D01*
X873685Y12535D02*
X871205Y12535D01*
X871205Y14710D02*
X873685Y14710D01*
X873685Y16885D02*
X871205Y16885D01*
X871205Y19060D02*
X873685Y19060D01*
X873685Y21235D02*
X871205Y21235D01*
X871205Y23410D02*
X873685Y23410D01*
X868685Y6010D02*
X866205Y6010D01*
X866205Y24490D01*
X868685Y24490D01*
X868685Y6010D01*
X868685Y8185D02*
X866205Y8185D01*
X866205Y10360D02*
X868685Y10360D01*
X868685Y12535D02*
X866205Y12535D01*
X866205Y14710D02*
X868685Y14710D01*
X868685Y16885D02*
X866205Y16885D01*
X866205Y19060D02*
X868685Y19060D01*
X868685Y21235D02*
X866205Y21235D01*
X866205Y23410D02*
X868685Y23410D01*
X863685Y6010D02*
X861205Y6010D01*
X861205Y24490D01*
X863685Y24490D01*
X863685Y6010D01*
X863685Y8185D02*
X861205Y8185D01*
X861205Y10360D02*
X863685Y10360D01*
X863685Y12535D02*
X861205Y12535D01*
X861205Y14710D02*
X863685Y14710D01*
X863685Y16885D02*
X861205Y16885D01*
X861205Y19060D02*
X863685Y19060D01*
X863685Y21235D02*
X861205Y21235D01*
X861205Y23410D02*
X863685Y23410D01*
X858685Y6010D02*
X856205Y6010D01*
X856205Y24490D01*
X858685Y24490D01*
X858685Y6010D01*
X858685Y8185D02*
X856205Y8185D01*
X856205Y10360D02*
X858685Y10360D01*
X858685Y12535D02*
X856205Y12535D01*
X856205Y14710D02*
X858685Y14710D01*
X858685Y16885D02*
X856205Y16885D01*
X856205Y19060D02*
X858685Y19060D01*
X858685Y21235D02*
X856205Y21235D01*
X856205Y23410D02*
X858685Y23410D01*
D16*
X1127445Y461000D03*
X1127445Y419000D03*
X1114445Y440000D03*
X767445Y419000D03*
X767445Y461000D03*
X780445Y440000D03*
D17*
X924953Y186658D02*
X924953Y181642D01*
X913937Y181642D01*
X913937Y186658D01*
X924953Y186658D01*
X924953Y183783D02*
X913937Y183783D01*
X913937Y185924D02*
X924953Y185924D01*
X924953Y194342D02*
X924953Y199358D01*
X924953Y194342D02*
X913937Y194342D01*
X913937Y199358D01*
X924953Y199358D01*
X924953Y196483D02*
X913937Y196483D01*
X913937Y198624D02*
X924953Y198624D01*
X924953Y207042D02*
X924953Y212058D01*
X924953Y207042D02*
X913937Y207042D01*
X913937Y212058D01*
X924953Y212058D01*
X924953Y209183D02*
X913937Y209183D01*
X913937Y211324D02*
X924953Y211324D01*
X924953Y219742D02*
X924953Y224758D01*
X924953Y219742D02*
X913937Y219742D01*
X913937Y224758D01*
X924953Y224758D01*
X924953Y221883D02*
X913937Y221883D01*
X913937Y224024D02*
X924953Y224024D01*
X980953Y224758D02*
X980953Y219742D01*
X969937Y219742D01*
X969937Y224758D01*
X980953Y224758D01*
X980953Y221883D02*
X969937Y221883D01*
X969937Y224024D02*
X980953Y224024D01*
X980953Y212058D02*
X980953Y207042D01*
X969937Y207042D01*
X969937Y212058D01*
X980953Y212058D01*
X980953Y209183D02*
X969937Y209183D01*
X969937Y211324D02*
X980953Y211324D01*
X980953Y199358D02*
X980953Y194342D01*
X969937Y194342D01*
X969937Y199358D01*
X980953Y199358D01*
X980953Y196483D02*
X969937Y196483D01*
X969937Y198624D02*
X980953Y198624D01*
X980953Y186658D02*
X980953Y181642D01*
X969937Y181642D01*
X969937Y186658D01*
X980953Y186658D01*
X980953Y183783D02*
X969937Y183783D01*
X969937Y185924D02*
X980953Y185924D01*
D18*
X992403Y219837D02*
X992403Y225171D01*
X1004087Y225171D01*
X1004087Y219837D01*
X992403Y219837D01*
X992403Y222009D02*
X1004087Y222009D01*
X1004087Y224181D02*
X992403Y224181D01*
X992403Y217043D02*
X992403Y211709D01*
X992403Y217043D02*
X1004087Y217043D01*
X1004087Y211709D01*
X992403Y211709D01*
X992403Y213881D02*
X1004087Y213881D01*
X1004087Y216053D02*
X992403Y216053D01*
D10*
X9677Y1312697D03*
X365277Y728497D03*
D11*
X308483Y762706D03*
X66472Y762706D03*
D12*
X62477Y1249197D03*
D13*
X312477Y1249197D03*
D14*
X320321Y993929D02*
X320321Y988337D01*
X308633Y988337D01*
X308633Y993929D01*
X320321Y993929D01*
X320321Y990506D02*
X308633Y990506D01*
X308633Y992675D02*
X320321Y992675D01*
X320321Y998751D02*
X320321Y1004343D01*
X320321Y998751D02*
X308633Y998751D01*
X308633Y1004343D01*
X320321Y1004343D01*
X320321Y1000920D02*
X308633Y1000920D01*
X308633Y1003089D02*
X320321Y1003089D01*
X320321Y1009165D02*
X320321Y1014757D01*
X320321Y1009165D02*
X308633Y1009165D01*
X308633Y1014757D01*
X320321Y1014757D01*
X320321Y1011334D02*
X308633Y1011334D01*
X308633Y1013503D02*
X320321Y1013503D01*
D15*
X98717Y1357487D02*
X96237Y1357487D01*
X98717Y1357487D02*
X98717Y1339007D01*
X96237Y1339007D01*
X96237Y1357487D01*
X96237Y1341182D02*
X98717Y1341182D01*
X98717Y1343357D02*
X96237Y1343357D01*
X96237Y1345532D02*
X98717Y1345532D01*
X98717Y1347707D02*
X96237Y1347707D01*
X96237Y1349882D02*
X98717Y1349882D01*
X98717Y1352057D02*
X96237Y1352057D01*
X96237Y1354232D02*
X98717Y1354232D01*
X98717Y1356407D02*
X96237Y1356407D01*
X101237Y1357487D02*
X103717Y1357487D01*
X103717Y1339007D01*
X101237Y1339007D01*
X101237Y1357487D01*
X101237Y1341182D02*
X103717Y1341182D01*
X103717Y1343357D02*
X101237Y1343357D01*
X101237Y1345532D02*
X103717Y1345532D01*
X103717Y1347707D02*
X101237Y1347707D01*
X101237Y1349882D02*
X103717Y1349882D01*
X103717Y1352057D02*
X101237Y1352057D01*
X101237Y1354232D02*
X103717Y1354232D01*
X103717Y1356407D02*
X101237Y1356407D01*
X106237Y1357487D02*
X108717Y1357487D01*
X108717Y1339007D01*
X106237Y1339007D01*
X106237Y1357487D01*
X106237Y1341182D02*
X108717Y1341182D01*
X108717Y1343357D02*
X106237Y1343357D01*
X106237Y1345532D02*
X108717Y1345532D01*
X108717Y1347707D02*
X106237Y1347707D01*
X106237Y1349882D02*
X108717Y1349882D01*
X108717Y1352057D02*
X106237Y1352057D01*
X106237Y1354232D02*
X108717Y1354232D01*
X108717Y1356407D02*
X106237Y1356407D01*
X111237Y1357487D02*
X113717Y1357487D01*
X113717Y1339007D01*
X111237Y1339007D01*
X111237Y1357487D01*
X111237Y1341182D02*
X113717Y1341182D01*
X113717Y1343357D02*
X111237Y1343357D01*
X111237Y1345532D02*
X113717Y1345532D01*
X113717Y1347707D02*
X111237Y1347707D01*
X111237Y1349882D02*
X113717Y1349882D01*
X113717Y1352057D02*
X111237Y1352057D01*
X111237Y1354232D02*
X113717Y1354232D01*
X113717Y1356407D02*
X111237Y1356407D01*
X116237Y1357487D02*
X118717Y1357487D01*
X118717Y1339007D01*
X116237Y1339007D01*
X116237Y1357487D01*
X116237Y1341182D02*
X118717Y1341182D01*
X118717Y1343357D02*
X116237Y1343357D01*
X116237Y1345532D02*
X118717Y1345532D01*
X118717Y1347707D02*
X116237Y1347707D01*
X116237Y1349882D02*
X118717Y1349882D01*
X118717Y1352057D02*
X116237Y1352057D01*
X116237Y1354232D02*
X118717Y1354232D01*
X118717Y1356407D02*
X116237Y1356407D01*
X121237Y1357487D02*
X123717Y1357487D01*
X123717Y1339007D01*
X121237Y1339007D01*
X121237Y1357487D01*
X121237Y1341182D02*
X123717Y1341182D01*
X123717Y1343357D02*
X121237Y1343357D01*
X121237Y1345532D02*
X123717Y1345532D01*
X123717Y1347707D02*
X121237Y1347707D01*
X121237Y1349882D02*
X123717Y1349882D01*
X123717Y1352057D02*
X121237Y1352057D01*
X121237Y1354232D02*
X123717Y1354232D01*
X123717Y1356407D02*
X121237Y1356407D01*
X126237Y1357487D02*
X128717Y1357487D01*
X128717Y1339007D01*
X126237Y1339007D01*
X126237Y1357487D01*
X126237Y1341182D02*
X128717Y1341182D01*
X128717Y1343357D02*
X126237Y1343357D01*
X126237Y1345532D02*
X128717Y1345532D01*
X128717Y1347707D02*
X126237Y1347707D01*
X126237Y1349882D02*
X128717Y1349882D01*
X128717Y1352057D02*
X126237Y1352057D01*
X126237Y1354232D02*
X128717Y1354232D01*
X128717Y1356407D02*
X126237Y1356407D01*
X131237Y1357487D02*
X133717Y1357487D01*
X133717Y1339007D01*
X131237Y1339007D01*
X131237Y1357487D01*
X131237Y1341182D02*
X133717Y1341182D01*
X133717Y1343357D02*
X131237Y1343357D01*
X131237Y1345532D02*
X133717Y1345532D01*
X133717Y1347707D02*
X131237Y1347707D01*
X131237Y1349882D02*
X133717Y1349882D01*
X133717Y1352057D02*
X131237Y1352057D01*
X131237Y1354232D02*
X133717Y1354232D01*
X133717Y1356407D02*
X131237Y1356407D01*
X136237Y1357487D02*
X138717Y1357487D01*
X138717Y1339007D01*
X136237Y1339007D01*
X136237Y1357487D01*
X136237Y1341182D02*
X138717Y1341182D01*
X138717Y1343357D02*
X136237Y1343357D01*
X136237Y1345532D02*
X138717Y1345532D01*
X138717Y1347707D02*
X136237Y1347707D01*
X136237Y1349882D02*
X138717Y1349882D01*
X138717Y1352057D02*
X136237Y1352057D01*
X136237Y1354232D02*
X138717Y1354232D01*
X138717Y1356407D02*
X136237Y1356407D01*
X141237Y1357487D02*
X143717Y1357487D01*
X143717Y1339007D01*
X141237Y1339007D01*
X141237Y1357487D01*
X141237Y1341182D02*
X143717Y1341182D01*
X143717Y1343357D02*
X141237Y1343357D01*
X141237Y1345532D02*
X143717Y1345532D01*
X143717Y1347707D02*
X141237Y1347707D01*
X141237Y1349882D02*
X143717Y1349882D01*
X143717Y1352057D02*
X141237Y1352057D01*
X141237Y1354232D02*
X143717Y1354232D01*
X143717Y1356407D02*
X141237Y1356407D01*
X146237Y1357487D02*
X148717Y1357487D01*
X148717Y1339007D01*
X146237Y1339007D01*
X146237Y1357487D01*
X146237Y1341182D02*
X148717Y1341182D01*
X148717Y1343357D02*
X146237Y1343357D01*
X146237Y1345532D02*
X148717Y1345532D01*
X148717Y1347707D02*
X146237Y1347707D01*
X146237Y1349882D02*
X148717Y1349882D01*
X148717Y1352057D02*
X146237Y1352057D01*
X146237Y1354232D02*
X148717Y1354232D01*
X148717Y1356407D02*
X146237Y1356407D01*
X171237Y1357487D02*
X173717Y1357487D01*
X173717Y1339007D01*
X171237Y1339007D01*
X171237Y1357487D01*
X171237Y1341182D02*
X173717Y1341182D01*
X173717Y1343357D02*
X171237Y1343357D01*
X171237Y1345532D02*
X173717Y1345532D01*
X173717Y1347707D02*
X171237Y1347707D01*
X171237Y1349882D02*
X173717Y1349882D01*
X173717Y1352057D02*
X171237Y1352057D01*
X171237Y1354232D02*
X173717Y1354232D01*
X173717Y1356407D02*
X171237Y1356407D01*
X176237Y1357487D02*
X178717Y1357487D01*
X178717Y1339007D01*
X176237Y1339007D01*
X176237Y1357487D01*
X176237Y1341182D02*
X178717Y1341182D01*
X178717Y1343357D02*
X176237Y1343357D01*
X176237Y1345532D02*
X178717Y1345532D01*
X178717Y1347707D02*
X176237Y1347707D01*
X176237Y1349882D02*
X178717Y1349882D01*
X178717Y1352057D02*
X176237Y1352057D01*
X176237Y1354232D02*
X178717Y1354232D01*
X178717Y1356407D02*
X176237Y1356407D01*
X181237Y1357487D02*
X183717Y1357487D01*
X183717Y1339007D01*
X181237Y1339007D01*
X181237Y1357487D01*
X181237Y1341182D02*
X183717Y1341182D01*
X183717Y1343357D02*
X181237Y1343357D01*
X181237Y1345532D02*
X183717Y1345532D01*
X183717Y1347707D02*
X181237Y1347707D01*
X181237Y1349882D02*
X183717Y1349882D01*
X183717Y1352057D02*
X181237Y1352057D01*
X181237Y1354232D02*
X183717Y1354232D01*
X183717Y1356407D02*
X181237Y1356407D01*
X186237Y1357487D02*
X188717Y1357487D01*
X188717Y1339007D01*
X186237Y1339007D01*
X186237Y1357487D01*
X186237Y1341182D02*
X188717Y1341182D01*
X188717Y1343357D02*
X186237Y1343357D01*
X186237Y1345532D02*
X188717Y1345532D01*
X188717Y1347707D02*
X186237Y1347707D01*
X186237Y1349882D02*
X188717Y1349882D01*
X188717Y1352057D02*
X186237Y1352057D01*
X186237Y1354232D02*
X188717Y1354232D01*
X188717Y1356407D02*
X186237Y1356407D01*
X191237Y1357487D02*
X193717Y1357487D01*
X193717Y1339007D01*
X191237Y1339007D01*
X191237Y1357487D01*
X191237Y1341182D02*
X193717Y1341182D01*
X193717Y1343357D02*
X191237Y1343357D01*
X191237Y1345532D02*
X193717Y1345532D01*
X193717Y1347707D02*
X191237Y1347707D01*
X191237Y1349882D02*
X193717Y1349882D01*
X193717Y1352057D02*
X191237Y1352057D01*
X191237Y1354232D02*
X193717Y1354232D01*
X193717Y1356407D02*
X191237Y1356407D01*
X196237Y1357487D02*
X198717Y1357487D01*
X198717Y1339007D01*
X196237Y1339007D01*
X196237Y1357487D01*
X196237Y1341182D02*
X198717Y1341182D01*
X198717Y1343357D02*
X196237Y1343357D01*
X196237Y1345532D02*
X198717Y1345532D01*
X198717Y1347707D02*
X196237Y1347707D01*
X196237Y1349882D02*
X198717Y1349882D01*
X198717Y1352057D02*
X196237Y1352057D01*
X196237Y1354232D02*
X198717Y1354232D01*
X198717Y1356407D02*
X196237Y1356407D01*
X201237Y1357487D02*
X203717Y1357487D01*
X203717Y1339007D01*
X201237Y1339007D01*
X201237Y1357487D01*
X201237Y1341182D02*
X203717Y1341182D01*
X203717Y1343357D02*
X201237Y1343357D01*
X201237Y1345532D02*
X203717Y1345532D01*
X203717Y1347707D02*
X201237Y1347707D01*
X201237Y1349882D02*
X203717Y1349882D01*
X203717Y1352057D02*
X201237Y1352057D01*
X201237Y1354232D02*
X203717Y1354232D01*
X203717Y1356407D02*
X201237Y1356407D01*
X206237Y1357487D02*
X208717Y1357487D01*
X208717Y1339007D01*
X206237Y1339007D01*
X206237Y1357487D01*
X206237Y1341182D02*
X208717Y1341182D01*
X208717Y1343357D02*
X206237Y1343357D01*
X206237Y1345532D02*
X208717Y1345532D01*
X208717Y1347707D02*
X206237Y1347707D01*
X206237Y1349882D02*
X208717Y1349882D01*
X208717Y1352057D02*
X206237Y1352057D01*
X206237Y1354232D02*
X208717Y1354232D01*
X208717Y1356407D02*
X206237Y1356407D01*
X211237Y1357487D02*
X213717Y1357487D01*
X213717Y1339007D01*
X211237Y1339007D01*
X211237Y1357487D01*
X211237Y1341182D02*
X213717Y1341182D01*
X213717Y1343357D02*
X211237Y1343357D01*
X211237Y1345532D02*
X213717Y1345532D01*
X213717Y1347707D02*
X211237Y1347707D01*
X211237Y1349882D02*
X213717Y1349882D01*
X213717Y1352057D02*
X211237Y1352057D01*
X211237Y1354232D02*
X213717Y1354232D01*
X213717Y1356407D02*
X211237Y1356407D01*
X216237Y1357487D02*
X218717Y1357487D01*
X218717Y1339007D01*
X216237Y1339007D01*
X216237Y1357487D01*
X216237Y1341182D02*
X218717Y1341182D01*
X218717Y1343357D02*
X216237Y1343357D01*
X216237Y1345532D02*
X218717Y1345532D01*
X218717Y1347707D02*
X216237Y1347707D01*
X216237Y1349882D02*
X218717Y1349882D01*
X218717Y1352057D02*
X216237Y1352057D01*
X216237Y1354232D02*
X218717Y1354232D01*
X218717Y1356407D02*
X216237Y1356407D01*
X221237Y1357487D02*
X223717Y1357487D01*
X223717Y1339007D01*
X221237Y1339007D01*
X221237Y1357487D01*
X221237Y1341182D02*
X223717Y1341182D01*
X223717Y1343357D02*
X221237Y1343357D01*
X221237Y1345532D02*
X223717Y1345532D01*
X223717Y1347707D02*
X221237Y1347707D01*
X221237Y1349882D02*
X223717Y1349882D01*
X223717Y1352057D02*
X221237Y1352057D01*
X221237Y1354232D02*
X223717Y1354232D01*
X223717Y1356407D02*
X221237Y1356407D01*
X226237Y1357487D02*
X228717Y1357487D01*
X228717Y1339007D01*
X226237Y1339007D01*
X226237Y1357487D01*
X226237Y1341182D02*
X228717Y1341182D01*
X228717Y1343357D02*
X226237Y1343357D01*
X226237Y1345532D02*
X228717Y1345532D01*
X228717Y1347707D02*
X226237Y1347707D01*
X226237Y1349882D02*
X228717Y1349882D01*
X228717Y1352057D02*
X226237Y1352057D01*
X226237Y1354232D02*
X228717Y1354232D01*
X228717Y1356407D02*
X226237Y1356407D01*
X231237Y1357487D02*
X233717Y1357487D01*
X233717Y1339007D01*
X231237Y1339007D01*
X231237Y1357487D01*
X231237Y1341182D02*
X233717Y1341182D01*
X233717Y1343357D02*
X231237Y1343357D01*
X231237Y1345532D02*
X233717Y1345532D01*
X233717Y1347707D02*
X231237Y1347707D01*
X231237Y1349882D02*
X233717Y1349882D01*
X233717Y1352057D02*
X231237Y1352057D01*
X231237Y1354232D02*
X233717Y1354232D01*
X233717Y1356407D02*
X231237Y1356407D01*
X236237Y1357487D02*
X238717Y1357487D01*
X238717Y1339007D01*
X236237Y1339007D01*
X236237Y1357487D01*
X236237Y1341182D02*
X238717Y1341182D01*
X238717Y1343357D02*
X236237Y1343357D01*
X236237Y1345532D02*
X238717Y1345532D01*
X238717Y1347707D02*
X236237Y1347707D01*
X236237Y1349882D02*
X238717Y1349882D01*
X238717Y1352057D02*
X236237Y1352057D01*
X236237Y1354232D02*
X238717Y1354232D01*
X238717Y1356407D02*
X236237Y1356407D01*
X241237Y1357487D02*
X243717Y1357487D01*
X243717Y1339007D01*
X241237Y1339007D01*
X241237Y1357487D01*
X241237Y1341182D02*
X243717Y1341182D01*
X243717Y1343357D02*
X241237Y1343357D01*
X241237Y1345532D02*
X243717Y1345532D01*
X243717Y1347707D02*
X241237Y1347707D01*
X241237Y1349882D02*
X243717Y1349882D01*
X243717Y1352057D02*
X241237Y1352057D01*
X241237Y1354232D02*
X243717Y1354232D01*
X243717Y1356407D02*
X241237Y1356407D01*
X246237Y1357487D02*
X248717Y1357487D01*
X248717Y1339007D01*
X246237Y1339007D01*
X246237Y1357487D01*
X246237Y1341182D02*
X248717Y1341182D01*
X248717Y1343357D02*
X246237Y1343357D01*
X246237Y1345532D02*
X248717Y1345532D01*
X248717Y1347707D02*
X246237Y1347707D01*
X246237Y1349882D02*
X248717Y1349882D01*
X248717Y1352057D02*
X246237Y1352057D01*
X246237Y1354232D02*
X248717Y1354232D01*
X248717Y1356407D02*
X246237Y1356407D01*
X251237Y1357487D02*
X253717Y1357487D01*
X253717Y1339007D01*
X251237Y1339007D01*
X251237Y1357487D01*
X251237Y1341182D02*
X253717Y1341182D01*
X253717Y1343357D02*
X251237Y1343357D01*
X251237Y1345532D02*
X253717Y1345532D01*
X253717Y1347707D02*
X251237Y1347707D01*
X251237Y1349882D02*
X253717Y1349882D01*
X253717Y1352057D02*
X251237Y1352057D01*
X251237Y1354232D02*
X253717Y1354232D01*
X253717Y1356407D02*
X251237Y1356407D01*
X256237Y1357487D02*
X258717Y1357487D01*
X258717Y1339007D01*
X256237Y1339007D01*
X256237Y1357487D01*
X256237Y1341182D02*
X258717Y1341182D01*
X258717Y1343357D02*
X256237Y1343357D01*
X256237Y1345532D02*
X258717Y1345532D01*
X258717Y1347707D02*
X256237Y1347707D01*
X256237Y1349882D02*
X258717Y1349882D01*
X258717Y1352057D02*
X256237Y1352057D01*
X256237Y1354232D02*
X258717Y1354232D01*
X258717Y1356407D02*
X256237Y1356407D01*
X261237Y1357487D02*
X263717Y1357487D01*
X263717Y1339007D01*
X261237Y1339007D01*
X261237Y1357487D01*
X261237Y1341182D02*
X263717Y1341182D01*
X263717Y1343357D02*
X261237Y1343357D01*
X261237Y1345532D02*
X263717Y1345532D01*
X263717Y1347707D02*
X261237Y1347707D01*
X261237Y1349882D02*
X263717Y1349882D01*
X263717Y1352057D02*
X261237Y1352057D01*
X261237Y1354232D02*
X263717Y1354232D01*
X263717Y1356407D02*
X261237Y1356407D01*
X266237Y1357487D02*
X268717Y1357487D01*
X268717Y1339007D01*
X266237Y1339007D01*
X266237Y1357487D01*
X266237Y1341182D02*
X268717Y1341182D01*
X268717Y1343357D02*
X266237Y1343357D01*
X266237Y1345532D02*
X268717Y1345532D01*
X268717Y1347707D02*
X266237Y1347707D01*
X266237Y1349882D02*
X268717Y1349882D01*
X268717Y1352057D02*
X266237Y1352057D01*
X266237Y1354232D02*
X268717Y1354232D01*
X268717Y1356407D02*
X266237Y1356407D01*
X271237Y1357487D02*
X273717Y1357487D01*
X273717Y1339007D01*
X271237Y1339007D01*
X271237Y1357487D01*
X271237Y1341182D02*
X273717Y1341182D01*
X273717Y1343357D02*
X271237Y1343357D01*
X271237Y1345532D02*
X273717Y1345532D01*
X273717Y1347707D02*
X271237Y1347707D01*
X271237Y1349882D02*
X273717Y1349882D01*
X273717Y1352057D02*
X271237Y1352057D01*
X271237Y1354232D02*
X273717Y1354232D01*
X273717Y1356407D02*
X271237Y1356407D01*
X276237Y1357487D02*
X278717Y1357487D01*
X278717Y1339007D01*
X276237Y1339007D01*
X276237Y1357487D01*
X276237Y1341182D02*
X278717Y1341182D01*
X278717Y1343357D02*
X276237Y1343357D01*
X276237Y1345532D02*
X278717Y1345532D01*
X278717Y1347707D02*
X276237Y1347707D01*
X276237Y1349882D02*
X278717Y1349882D01*
X278717Y1352057D02*
X276237Y1352057D01*
X276237Y1354232D02*
X278717Y1354232D01*
X278717Y1356407D02*
X276237Y1356407D01*
D16*
X7477Y902497D03*
X7477Y944497D03*
X20477Y923497D03*
X367477Y944497D03*
X367477Y902497D03*
X354477Y923497D03*
D17*
X209969Y1176839D02*
X209969Y1181855D01*
X220985Y1181855D01*
X220985Y1176839D01*
X209969Y1176839D01*
X209969Y1178980D02*
X220985Y1178980D01*
X220985Y1181121D02*
X209969Y1181121D01*
X209969Y1169155D02*
X209969Y1164139D01*
X209969Y1169155D02*
X220985Y1169155D01*
X220985Y1164139D01*
X209969Y1164139D01*
X209969Y1166280D02*
X220985Y1166280D01*
X220985Y1168421D02*
X209969Y1168421D01*
X209969Y1156455D02*
X209969Y1151439D01*
X209969Y1156455D02*
X220985Y1156455D01*
X220985Y1151439D01*
X209969Y1151439D01*
X209969Y1153580D02*
X220985Y1153580D01*
X220985Y1155721D02*
X209969Y1155721D01*
X209969Y1143755D02*
X209969Y1138739D01*
X209969Y1143755D02*
X220985Y1143755D01*
X220985Y1138739D01*
X209969Y1138739D01*
X209969Y1140880D02*
X220985Y1140880D01*
X220985Y1143021D02*
X209969Y1143021D01*
X153969Y1143755D02*
X153969Y1138739D01*
X153969Y1143755D02*
X164985Y1143755D01*
X164985Y1138739D01*
X153969Y1138739D01*
X153969Y1140880D02*
X164985Y1140880D01*
X164985Y1143021D02*
X153969Y1143021D01*
X153969Y1151439D02*
X153969Y1156455D01*
X164985Y1156455D01*
X164985Y1151439D01*
X153969Y1151439D01*
X153969Y1153580D02*
X164985Y1153580D01*
X164985Y1155721D02*
X153969Y1155721D01*
X153969Y1164139D02*
X153969Y1169155D01*
X164985Y1169155D01*
X164985Y1164139D01*
X153969Y1164139D01*
X153969Y1166280D02*
X164985Y1166280D01*
X164985Y1168421D02*
X153969Y1168421D01*
X153969Y1176839D02*
X153969Y1181855D01*
X164985Y1181855D01*
X164985Y1176839D01*
X153969Y1176839D01*
X153969Y1178980D02*
X164985Y1178980D01*
X164985Y1181121D02*
X153969Y1181121D01*
D18*
X142519Y1143660D02*
X142519Y1138326D01*
X130835Y1138326D01*
X130835Y1143660D01*
X142519Y1143660D01*
X142519Y1140498D02*
X130835Y1140498D01*
X130835Y1142670D02*
X142519Y1142670D01*
X142519Y1146454D02*
X142519Y1151788D01*
X142519Y1146454D02*
X130835Y1146454D01*
X130835Y1151788D01*
X142519Y1151788D01*
X142519Y1148626D02*
X130835Y1148626D01*
X130835Y1150798D02*
X142519Y1150798D01*
D10*
X389661Y1312697D03*
X745261Y728497D03*
D11*
X688467Y762706D03*
X446456Y762706D03*
D12*
X442461Y1249197D03*
D13*
X692461Y1249197D03*
D14*
X700305Y993929D02*
X700305Y988337D01*
X688617Y988337D01*
X688617Y993929D01*
X700305Y993929D01*
X700305Y990506D02*
X688617Y990506D01*
X688617Y992675D02*
X700305Y992675D01*
X700305Y998751D02*
X700305Y1004343D01*
X700305Y998751D02*
X688617Y998751D01*
X688617Y1004343D01*
X700305Y1004343D01*
X700305Y1000920D02*
X688617Y1000920D01*
X688617Y1003089D02*
X700305Y1003089D01*
X700305Y1009165D02*
X700305Y1014757D01*
X700305Y1009165D02*
X688617Y1009165D01*
X688617Y1014757D01*
X700305Y1014757D01*
X700305Y1011334D02*
X688617Y1011334D01*
X688617Y1013503D02*
X700305Y1013503D01*
D15*
X478701Y1357487D02*
X476221Y1357487D01*
X478701Y1357487D02*
X478701Y1339007D01*
X476221Y1339007D01*
X476221Y1357487D01*
X476221Y1341182D02*
X478701Y1341182D01*
X478701Y1343357D02*
X476221Y1343357D01*
X476221Y1345532D02*
X478701Y1345532D01*
X478701Y1347707D02*
X476221Y1347707D01*
X476221Y1349882D02*
X478701Y1349882D01*
X478701Y1352057D02*
X476221Y1352057D01*
X476221Y1354232D02*
X478701Y1354232D01*
X478701Y1356407D02*
X476221Y1356407D01*
X481221Y1357487D02*
X483701Y1357487D01*
X483701Y1339007D01*
X481221Y1339007D01*
X481221Y1357487D01*
X481221Y1341182D02*
X483701Y1341182D01*
X483701Y1343357D02*
X481221Y1343357D01*
X481221Y1345532D02*
X483701Y1345532D01*
X483701Y1347707D02*
X481221Y1347707D01*
X481221Y1349882D02*
X483701Y1349882D01*
X483701Y1352057D02*
X481221Y1352057D01*
X481221Y1354232D02*
X483701Y1354232D01*
X483701Y1356407D02*
X481221Y1356407D01*
X486221Y1357487D02*
X488701Y1357487D01*
X488701Y1339007D01*
X486221Y1339007D01*
X486221Y1357487D01*
X486221Y1341182D02*
X488701Y1341182D01*
X488701Y1343357D02*
X486221Y1343357D01*
X486221Y1345532D02*
X488701Y1345532D01*
X488701Y1347707D02*
X486221Y1347707D01*
X486221Y1349882D02*
X488701Y1349882D01*
X488701Y1352057D02*
X486221Y1352057D01*
X486221Y1354232D02*
X488701Y1354232D01*
X488701Y1356407D02*
X486221Y1356407D01*
X491221Y1357487D02*
X493701Y1357487D01*
X493701Y1339007D01*
X491221Y1339007D01*
X491221Y1357487D01*
X491221Y1341182D02*
X493701Y1341182D01*
X493701Y1343357D02*
X491221Y1343357D01*
X491221Y1345532D02*
X493701Y1345532D01*
X493701Y1347707D02*
X491221Y1347707D01*
X491221Y1349882D02*
X493701Y1349882D01*
X493701Y1352057D02*
X491221Y1352057D01*
X491221Y1354232D02*
X493701Y1354232D01*
X493701Y1356407D02*
X491221Y1356407D01*
X496221Y1357487D02*
X498701Y1357487D01*
X498701Y1339007D01*
X496221Y1339007D01*
X496221Y1357487D01*
X496221Y1341182D02*
X498701Y1341182D01*
X498701Y1343357D02*
X496221Y1343357D01*
X496221Y1345532D02*
X498701Y1345532D01*
X498701Y1347707D02*
X496221Y1347707D01*
X496221Y1349882D02*
X498701Y1349882D01*
X498701Y1352057D02*
X496221Y1352057D01*
X496221Y1354232D02*
X498701Y1354232D01*
X498701Y1356407D02*
X496221Y1356407D01*
X501221Y1357487D02*
X503701Y1357487D01*
X503701Y1339007D01*
X501221Y1339007D01*
X501221Y1357487D01*
X501221Y1341182D02*
X503701Y1341182D01*
X503701Y1343357D02*
X501221Y1343357D01*
X501221Y1345532D02*
X503701Y1345532D01*
X503701Y1347707D02*
X501221Y1347707D01*
X501221Y1349882D02*
X503701Y1349882D01*
X503701Y1352057D02*
X501221Y1352057D01*
X501221Y1354232D02*
X503701Y1354232D01*
X503701Y1356407D02*
X501221Y1356407D01*
X506221Y1357487D02*
X508701Y1357487D01*
X508701Y1339007D01*
X506221Y1339007D01*
X506221Y1357487D01*
X506221Y1341182D02*
X508701Y1341182D01*
X508701Y1343357D02*
X506221Y1343357D01*
X506221Y1345532D02*
X508701Y1345532D01*
X508701Y1347707D02*
X506221Y1347707D01*
X506221Y1349882D02*
X508701Y1349882D01*
X508701Y1352057D02*
X506221Y1352057D01*
X506221Y1354232D02*
X508701Y1354232D01*
X508701Y1356407D02*
X506221Y1356407D01*
X511221Y1357487D02*
X513701Y1357487D01*
X513701Y1339007D01*
X511221Y1339007D01*
X511221Y1357487D01*
X511221Y1341182D02*
X513701Y1341182D01*
X513701Y1343357D02*
X511221Y1343357D01*
X511221Y1345532D02*
X513701Y1345532D01*
X513701Y1347707D02*
X511221Y1347707D01*
X511221Y1349882D02*
X513701Y1349882D01*
X513701Y1352057D02*
X511221Y1352057D01*
X511221Y1354232D02*
X513701Y1354232D01*
X513701Y1356407D02*
X511221Y1356407D01*
X516221Y1357487D02*
X518701Y1357487D01*
X518701Y1339007D01*
X516221Y1339007D01*
X516221Y1357487D01*
X516221Y1341182D02*
X518701Y1341182D01*
X518701Y1343357D02*
X516221Y1343357D01*
X516221Y1345532D02*
X518701Y1345532D01*
X518701Y1347707D02*
X516221Y1347707D01*
X516221Y1349882D02*
X518701Y1349882D01*
X518701Y1352057D02*
X516221Y1352057D01*
X516221Y1354232D02*
X518701Y1354232D01*
X518701Y1356407D02*
X516221Y1356407D01*
X521221Y1357487D02*
X523701Y1357487D01*
X523701Y1339007D01*
X521221Y1339007D01*
X521221Y1357487D01*
X521221Y1341182D02*
X523701Y1341182D01*
X523701Y1343357D02*
X521221Y1343357D01*
X521221Y1345532D02*
X523701Y1345532D01*
X523701Y1347707D02*
X521221Y1347707D01*
X521221Y1349882D02*
X523701Y1349882D01*
X523701Y1352057D02*
X521221Y1352057D01*
X521221Y1354232D02*
X523701Y1354232D01*
X523701Y1356407D02*
X521221Y1356407D01*
X526221Y1357487D02*
X528701Y1357487D01*
X528701Y1339007D01*
X526221Y1339007D01*
X526221Y1357487D01*
X526221Y1341182D02*
X528701Y1341182D01*
X528701Y1343357D02*
X526221Y1343357D01*
X526221Y1345532D02*
X528701Y1345532D01*
X528701Y1347707D02*
X526221Y1347707D01*
X526221Y1349882D02*
X528701Y1349882D01*
X528701Y1352057D02*
X526221Y1352057D01*
X526221Y1354232D02*
X528701Y1354232D01*
X528701Y1356407D02*
X526221Y1356407D01*
X551221Y1357487D02*
X553701Y1357487D01*
X553701Y1339007D01*
X551221Y1339007D01*
X551221Y1357487D01*
X551221Y1341182D02*
X553701Y1341182D01*
X553701Y1343357D02*
X551221Y1343357D01*
X551221Y1345532D02*
X553701Y1345532D01*
X553701Y1347707D02*
X551221Y1347707D01*
X551221Y1349882D02*
X553701Y1349882D01*
X553701Y1352057D02*
X551221Y1352057D01*
X551221Y1354232D02*
X553701Y1354232D01*
X553701Y1356407D02*
X551221Y1356407D01*
X556221Y1357487D02*
X558701Y1357487D01*
X558701Y1339007D01*
X556221Y1339007D01*
X556221Y1357487D01*
X556221Y1341182D02*
X558701Y1341182D01*
X558701Y1343357D02*
X556221Y1343357D01*
X556221Y1345532D02*
X558701Y1345532D01*
X558701Y1347707D02*
X556221Y1347707D01*
X556221Y1349882D02*
X558701Y1349882D01*
X558701Y1352057D02*
X556221Y1352057D01*
X556221Y1354232D02*
X558701Y1354232D01*
X558701Y1356407D02*
X556221Y1356407D01*
X561221Y1357487D02*
X563701Y1357487D01*
X563701Y1339007D01*
X561221Y1339007D01*
X561221Y1357487D01*
X561221Y1341182D02*
X563701Y1341182D01*
X563701Y1343357D02*
X561221Y1343357D01*
X561221Y1345532D02*
X563701Y1345532D01*
X563701Y1347707D02*
X561221Y1347707D01*
X561221Y1349882D02*
X563701Y1349882D01*
X563701Y1352057D02*
X561221Y1352057D01*
X561221Y1354232D02*
X563701Y1354232D01*
X563701Y1356407D02*
X561221Y1356407D01*
X566221Y1357487D02*
X568701Y1357487D01*
X568701Y1339007D01*
X566221Y1339007D01*
X566221Y1357487D01*
X566221Y1341182D02*
X568701Y1341182D01*
X568701Y1343357D02*
X566221Y1343357D01*
X566221Y1345532D02*
X568701Y1345532D01*
X568701Y1347707D02*
X566221Y1347707D01*
X566221Y1349882D02*
X568701Y1349882D01*
X568701Y1352057D02*
X566221Y1352057D01*
X566221Y1354232D02*
X568701Y1354232D01*
X568701Y1356407D02*
X566221Y1356407D01*
X571221Y1357487D02*
X573701Y1357487D01*
X573701Y1339007D01*
X571221Y1339007D01*
X571221Y1357487D01*
X571221Y1341182D02*
X573701Y1341182D01*
X573701Y1343357D02*
X571221Y1343357D01*
X571221Y1345532D02*
X573701Y1345532D01*
X573701Y1347707D02*
X571221Y1347707D01*
X571221Y1349882D02*
X573701Y1349882D01*
X573701Y1352057D02*
X571221Y1352057D01*
X571221Y1354232D02*
X573701Y1354232D01*
X573701Y1356407D02*
X571221Y1356407D01*
X576221Y1357487D02*
X578701Y1357487D01*
X578701Y1339007D01*
X576221Y1339007D01*
X576221Y1357487D01*
X576221Y1341182D02*
X578701Y1341182D01*
X578701Y1343357D02*
X576221Y1343357D01*
X576221Y1345532D02*
X578701Y1345532D01*
X578701Y1347707D02*
X576221Y1347707D01*
X576221Y1349882D02*
X578701Y1349882D01*
X578701Y1352057D02*
X576221Y1352057D01*
X576221Y1354232D02*
X578701Y1354232D01*
X578701Y1356407D02*
X576221Y1356407D01*
X581221Y1357487D02*
X583701Y1357487D01*
X583701Y1339007D01*
X581221Y1339007D01*
X581221Y1357487D01*
X581221Y1341182D02*
X583701Y1341182D01*
X583701Y1343357D02*
X581221Y1343357D01*
X581221Y1345532D02*
X583701Y1345532D01*
X583701Y1347707D02*
X581221Y1347707D01*
X581221Y1349882D02*
X583701Y1349882D01*
X583701Y1352057D02*
X581221Y1352057D01*
X581221Y1354232D02*
X583701Y1354232D01*
X583701Y1356407D02*
X581221Y1356407D01*
X586221Y1357487D02*
X588701Y1357487D01*
X588701Y1339007D01*
X586221Y1339007D01*
X586221Y1357487D01*
X586221Y1341182D02*
X588701Y1341182D01*
X588701Y1343357D02*
X586221Y1343357D01*
X586221Y1345532D02*
X588701Y1345532D01*
X588701Y1347707D02*
X586221Y1347707D01*
X586221Y1349882D02*
X588701Y1349882D01*
X588701Y1352057D02*
X586221Y1352057D01*
X586221Y1354232D02*
X588701Y1354232D01*
X588701Y1356407D02*
X586221Y1356407D01*
X591221Y1357487D02*
X593701Y1357487D01*
X593701Y1339007D01*
X591221Y1339007D01*
X591221Y1357487D01*
X591221Y1341182D02*
X593701Y1341182D01*
X593701Y1343357D02*
X591221Y1343357D01*
X591221Y1345532D02*
X593701Y1345532D01*
X593701Y1347707D02*
X591221Y1347707D01*
X591221Y1349882D02*
X593701Y1349882D01*
X593701Y1352057D02*
X591221Y1352057D01*
X591221Y1354232D02*
X593701Y1354232D01*
X593701Y1356407D02*
X591221Y1356407D01*
X596221Y1357487D02*
X598701Y1357487D01*
X598701Y1339007D01*
X596221Y1339007D01*
X596221Y1357487D01*
X596221Y1341182D02*
X598701Y1341182D01*
X598701Y1343357D02*
X596221Y1343357D01*
X596221Y1345532D02*
X598701Y1345532D01*
X598701Y1347707D02*
X596221Y1347707D01*
X596221Y1349882D02*
X598701Y1349882D01*
X598701Y1352057D02*
X596221Y1352057D01*
X596221Y1354232D02*
X598701Y1354232D01*
X598701Y1356407D02*
X596221Y1356407D01*
X601221Y1357487D02*
X603701Y1357487D01*
X603701Y1339007D01*
X601221Y1339007D01*
X601221Y1357487D01*
X601221Y1341182D02*
X603701Y1341182D01*
X603701Y1343357D02*
X601221Y1343357D01*
X601221Y1345532D02*
X603701Y1345532D01*
X603701Y1347707D02*
X601221Y1347707D01*
X601221Y1349882D02*
X603701Y1349882D01*
X603701Y1352057D02*
X601221Y1352057D01*
X601221Y1354232D02*
X603701Y1354232D01*
X603701Y1356407D02*
X601221Y1356407D01*
X606221Y1357487D02*
X608701Y1357487D01*
X608701Y1339007D01*
X606221Y1339007D01*
X606221Y1357487D01*
X606221Y1341182D02*
X608701Y1341182D01*
X608701Y1343357D02*
X606221Y1343357D01*
X606221Y1345532D02*
X608701Y1345532D01*
X608701Y1347707D02*
X606221Y1347707D01*
X606221Y1349882D02*
X608701Y1349882D01*
X608701Y1352057D02*
X606221Y1352057D01*
X606221Y1354232D02*
X608701Y1354232D01*
X608701Y1356407D02*
X606221Y1356407D01*
X611221Y1357487D02*
X613701Y1357487D01*
X613701Y1339007D01*
X611221Y1339007D01*
X611221Y1357487D01*
X611221Y1341182D02*
X613701Y1341182D01*
X613701Y1343357D02*
X611221Y1343357D01*
X611221Y1345532D02*
X613701Y1345532D01*
X613701Y1347707D02*
X611221Y1347707D01*
X611221Y1349882D02*
X613701Y1349882D01*
X613701Y1352057D02*
X611221Y1352057D01*
X611221Y1354232D02*
X613701Y1354232D01*
X613701Y1356407D02*
X611221Y1356407D01*
X616221Y1357487D02*
X618701Y1357487D01*
X618701Y1339007D01*
X616221Y1339007D01*
X616221Y1357487D01*
X616221Y1341182D02*
X618701Y1341182D01*
X618701Y1343357D02*
X616221Y1343357D01*
X616221Y1345532D02*
X618701Y1345532D01*
X618701Y1347707D02*
X616221Y1347707D01*
X616221Y1349882D02*
X618701Y1349882D01*
X618701Y1352057D02*
X616221Y1352057D01*
X616221Y1354232D02*
X618701Y1354232D01*
X618701Y1356407D02*
X616221Y1356407D01*
X621221Y1357487D02*
X623701Y1357487D01*
X623701Y1339007D01*
X621221Y1339007D01*
X621221Y1357487D01*
X621221Y1341182D02*
X623701Y1341182D01*
X623701Y1343357D02*
X621221Y1343357D01*
X621221Y1345532D02*
X623701Y1345532D01*
X623701Y1347707D02*
X621221Y1347707D01*
X621221Y1349882D02*
X623701Y1349882D01*
X623701Y1352057D02*
X621221Y1352057D01*
X621221Y1354232D02*
X623701Y1354232D01*
X623701Y1356407D02*
X621221Y1356407D01*
X626221Y1357487D02*
X628701Y1357487D01*
X628701Y1339007D01*
X626221Y1339007D01*
X626221Y1357487D01*
X626221Y1341182D02*
X628701Y1341182D01*
X628701Y1343357D02*
X626221Y1343357D01*
X626221Y1345532D02*
X628701Y1345532D01*
X628701Y1347707D02*
X626221Y1347707D01*
X626221Y1349882D02*
X628701Y1349882D01*
X628701Y1352057D02*
X626221Y1352057D01*
X626221Y1354232D02*
X628701Y1354232D01*
X628701Y1356407D02*
X626221Y1356407D01*
X631221Y1357487D02*
X633701Y1357487D01*
X633701Y1339007D01*
X631221Y1339007D01*
X631221Y1357487D01*
X631221Y1341182D02*
X633701Y1341182D01*
X633701Y1343357D02*
X631221Y1343357D01*
X631221Y1345532D02*
X633701Y1345532D01*
X633701Y1347707D02*
X631221Y1347707D01*
X631221Y1349882D02*
X633701Y1349882D01*
X633701Y1352057D02*
X631221Y1352057D01*
X631221Y1354232D02*
X633701Y1354232D01*
X633701Y1356407D02*
X631221Y1356407D01*
X636221Y1357487D02*
X638701Y1357487D01*
X638701Y1339007D01*
X636221Y1339007D01*
X636221Y1357487D01*
X636221Y1341182D02*
X638701Y1341182D01*
X638701Y1343357D02*
X636221Y1343357D01*
X636221Y1345532D02*
X638701Y1345532D01*
X638701Y1347707D02*
X636221Y1347707D01*
X636221Y1349882D02*
X638701Y1349882D01*
X638701Y1352057D02*
X636221Y1352057D01*
X636221Y1354232D02*
X638701Y1354232D01*
X638701Y1356407D02*
X636221Y1356407D01*
X641221Y1357487D02*
X643701Y1357487D01*
X643701Y1339007D01*
X641221Y1339007D01*
X641221Y1357487D01*
X641221Y1341182D02*
X643701Y1341182D01*
X643701Y1343357D02*
X641221Y1343357D01*
X641221Y1345532D02*
X643701Y1345532D01*
X643701Y1347707D02*
X641221Y1347707D01*
X641221Y1349882D02*
X643701Y1349882D01*
X643701Y1352057D02*
X641221Y1352057D01*
X641221Y1354232D02*
X643701Y1354232D01*
X643701Y1356407D02*
X641221Y1356407D01*
X646221Y1357487D02*
X648701Y1357487D01*
X648701Y1339007D01*
X646221Y1339007D01*
X646221Y1357487D01*
X646221Y1341182D02*
X648701Y1341182D01*
X648701Y1343357D02*
X646221Y1343357D01*
X646221Y1345532D02*
X648701Y1345532D01*
X648701Y1347707D02*
X646221Y1347707D01*
X646221Y1349882D02*
X648701Y1349882D01*
X648701Y1352057D02*
X646221Y1352057D01*
X646221Y1354232D02*
X648701Y1354232D01*
X648701Y1356407D02*
X646221Y1356407D01*
X651221Y1357487D02*
X653701Y1357487D01*
X653701Y1339007D01*
X651221Y1339007D01*
X651221Y1357487D01*
X651221Y1341182D02*
X653701Y1341182D01*
X653701Y1343357D02*
X651221Y1343357D01*
X651221Y1345532D02*
X653701Y1345532D01*
X653701Y1347707D02*
X651221Y1347707D01*
X651221Y1349882D02*
X653701Y1349882D01*
X653701Y1352057D02*
X651221Y1352057D01*
X651221Y1354232D02*
X653701Y1354232D01*
X653701Y1356407D02*
X651221Y1356407D01*
X656221Y1357487D02*
X658701Y1357487D01*
X658701Y1339007D01*
X656221Y1339007D01*
X656221Y1357487D01*
X656221Y1341182D02*
X658701Y1341182D01*
X658701Y1343357D02*
X656221Y1343357D01*
X656221Y1345532D02*
X658701Y1345532D01*
X658701Y1347707D02*
X656221Y1347707D01*
X656221Y1349882D02*
X658701Y1349882D01*
X658701Y1352057D02*
X656221Y1352057D01*
X656221Y1354232D02*
X658701Y1354232D01*
X658701Y1356407D02*
X656221Y1356407D01*
D16*
X387461Y902497D03*
X387461Y944497D03*
X400461Y923497D03*
X747461Y944497D03*
X747461Y902497D03*
X734461Y923497D03*
D17*
X589953Y1176839D02*
X589953Y1181855D01*
X600969Y1181855D01*
X600969Y1176839D01*
X589953Y1176839D01*
X589953Y1178980D02*
X600969Y1178980D01*
X600969Y1181121D02*
X589953Y1181121D01*
X589953Y1169155D02*
X589953Y1164139D01*
X589953Y1169155D02*
X600969Y1169155D01*
X600969Y1164139D01*
X589953Y1164139D01*
X589953Y1166280D02*
X600969Y1166280D01*
X600969Y1168421D02*
X589953Y1168421D01*
X589953Y1156455D02*
X589953Y1151439D01*
X589953Y1156455D02*
X600969Y1156455D01*
X600969Y1151439D01*
X589953Y1151439D01*
X589953Y1153580D02*
X600969Y1153580D01*
X600969Y1155721D02*
X589953Y1155721D01*
X589953Y1143755D02*
X589953Y1138739D01*
X589953Y1143755D02*
X600969Y1143755D01*
X600969Y1138739D01*
X589953Y1138739D01*
X589953Y1140880D02*
X600969Y1140880D01*
X600969Y1143021D02*
X589953Y1143021D01*
X533953Y1143755D02*
X533953Y1138739D01*
X533953Y1143755D02*
X544969Y1143755D01*
X544969Y1138739D01*
X533953Y1138739D01*
X533953Y1140880D02*
X544969Y1140880D01*
X544969Y1143021D02*
X533953Y1143021D01*
X533953Y1151439D02*
X533953Y1156455D01*
X544969Y1156455D01*
X544969Y1151439D01*
X533953Y1151439D01*
X533953Y1153580D02*
X544969Y1153580D01*
X544969Y1155721D02*
X533953Y1155721D01*
X533953Y1164139D02*
X533953Y1169155D01*
X544969Y1169155D01*
X544969Y1164139D01*
X533953Y1164139D01*
X533953Y1166280D02*
X544969Y1166280D01*
X544969Y1168421D02*
X533953Y1168421D01*
X533953Y1176839D02*
X533953Y1181855D01*
X544969Y1181855D01*
X544969Y1176839D01*
X533953Y1176839D01*
X533953Y1178980D02*
X544969Y1178980D01*
X544969Y1181121D02*
X533953Y1181121D01*
D18*
X522503Y1143660D02*
X522503Y1138326D01*
X510819Y1138326D01*
X510819Y1143660D01*
X522503Y1143660D01*
X522503Y1140498D02*
X510819Y1140498D01*
X510819Y1142670D02*
X522503Y1142670D01*
X522503Y1146454D02*
X522503Y1151788D01*
X522503Y1146454D02*
X510819Y1146454D01*
X510819Y1151788D01*
X522503Y1151788D01*
X522503Y1148626D02*
X510819Y1148626D01*
X510819Y1150798D02*
X522503Y1150798D01*
D10*
X769671Y1312697D03*
X1125271Y728497D03*
D11*
X1068476Y762706D03*
X826465Y762706D03*
D12*
X822471Y1249197D03*
D13*
X1072471Y1249197D03*
D14*
X1080315Y993929D02*
X1080315Y988337D01*
X1068627Y988337D01*
X1068627Y993929D01*
X1080315Y993929D01*
X1080315Y990506D02*
X1068627Y990506D01*
X1068627Y992675D02*
X1080315Y992675D01*
X1080315Y998751D02*
X1080315Y1004343D01*
X1080315Y998751D02*
X1068627Y998751D01*
X1068627Y1004343D01*
X1080315Y1004343D01*
X1080315Y1000920D02*
X1068627Y1000920D01*
X1068627Y1003089D02*
X1080315Y1003089D01*
X1080315Y1009165D02*
X1080315Y1014757D01*
X1080315Y1009165D02*
X1068627Y1009165D01*
X1068627Y1014757D01*
X1080315Y1014757D01*
X1080315Y1011334D02*
X1068627Y1011334D01*
X1068627Y1013503D02*
X1080315Y1013503D01*
D15*
X858711Y1357487D02*
X856231Y1357487D01*
X858711Y1357487D02*
X858711Y1339007D01*
X856231Y1339007D01*
X856231Y1357487D01*
X856231Y1341182D02*
X858711Y1341182D01*
X858711Y1343357D02*
X856231Y1343357D01*
X856231Y1345532D02*
X858711Y1345532D01*
X858711Y1347707D02*
X856231Y1347707D01*
X856231Y1349882D02*
X858711Y1349882D01*
X858711Y1352057D02*
X856231Y1352057D01*
X856231Y1354232D02*
X858711Y1354232D01*
X858711Y1356407D02*
X856231Y1356407D01*
X861231Y1357487D02*
X863711Y1357487D01*
X863711Y1339007D01*
X861231Y1339007D01*
X861231Y1357487D01*
X861231Y1341182D02*
X863711Y1341182D01*
X863711Y1343357D02*
X861231Y1343357D01*
X861231Y1345532D02*
X863711Y1345532D01*
X863711Y1347707D02*
X861231Y1347707D01*
X861231Y1349882D02*
X863711Y1349882D01*
X863711Y1352057D02*
X861231Y1352057D01*
X861231Y1354232D02*
X863711Y1354232D01*
X863711Y1356407D02*
X861231Y1356407D01*
X866231Y1357487D02*
X868711Y1357487D01*
X868711Y1339007D01*
X866231Y1339007D01*
X866231Y1357487D01*
X866231Y1341182D02*
X868711Y1341182D01*
X868711Y1343357D02*
X866231Y1343357D01*
X866231Y1345532D02*
X868711Y1345532D01*
X868711Y1347707D02*
X866231Y1347707D01*
X866231Y1349882D02*
X868711Y1349882D01*
X868711Y1352057D02*
X866231Y1352057D01*
X866231Y1354232D02*
X868711Y1354232D01*
X868711Y1356407D02*
X866231Y1356407D01*
X871231Y1357487D02*
X873711Y1357487D01*
X873711Y1339007D01*
X871231Y1339007D01*
X871231Y1357487D01*
X871231Y1341182D02*
X873711Y1341182D01*
X873711Y1343357D02*
X871231Y1343357D01*
X871231Y1345532D02*
X873711Y1345532D01*
X873711Y1347707D02*
X871231Y1347707D01*
X871231Y1349882D02*
X873711Y1349882D01*
X873711Y1352057D02*
X871231Y1352057D01*
X871231Y1354232D02*
X873711Y1354232D01*
X873711Y1356407D02*
X871231Y1356407D01*
X876231Y1357487D02*
X878711Y1357487D01*
X878711Y1339007D01*
X876231Y1339007D01*
X876231Y1357487D01*
X876231Y1341182D02*
X878711Y1341182D01*
X878711Y1343357D02*
X876231Y1343357D01*
X876231Y1345532D02*
X878711Y1345532D01*
X878711Y1347707D02*
X876231Y1347707D01*
X876231Y1349882D02*
X878711Y1349882D01*
X878711Y1352057D02*
X876231Y1352057D01*
X876231Y1354232D02*
X878711Y1354232D01*
X878711Y1356407D02*
X876231Y1356407D01*
X881231Y1357487D02*
X883711Y1357487D01*
X883711Y1339007D01*
X881231Y1339007D01*
X881231Y1357487D01*
X881231Y1341182D02*
X883711Y1341182D01*
X883711Y1343357D02*
X881231Y1343357D01*
X881231Y1345532D02*
X883711Y1345532D01*
X883711Y1347707D02*
X881231Y1347707D01*
X881231Y1349882D02*
X883711Y1349882D01*
X883711Y1352057D02*
X881231Y1352057D01*
X881231Y1354232D02*
X883711Y1354232D01*
X883711Y1356407D02*
X881231Y1356407D01*
X886231Y1357487D02*
X888711Y1357487D01*
X888711Y1339007D01*
X886231Y1339007D01*
X886231Y1357487D01*
X886231Y1341182D02*
X888711Y1341182D01*
X888711Y1343357D02*
X886231Y1343357D01*
X886231Y1345532D02*
X888711Y1345532D01*
X888711Y1347707D02*
X886231Y1347707D01*
X886231Y1349882D02*
X888711Y1349882D01*
X888711Y1352057D02*
X886231Y1352057D01*
X886231Y1354232D02*
X888711Y1354232D01*
X888711Y1356407D02*
X886231Y1356407D01*
X891231Y1357487D02*
X893711Y1357487D01*
X893711Y1339007D01*
X891231Y1339007D01*
X891231Y1357487D01*
X891231Y1341182D02*
X893711Y1341182D01*
X893711Y1343357D02*
X891231Y1343357D01*
X891231Y1345532D02*
X893711Y1345532D01*
X893711Y1347707D02*
X891231Y1347707D01*
X891231Y1349882D02*
X893711Y1349882D01*
X893711Y1352057D02*
X891231Y1352057D01*
X891231Y1354232D02*
X893711Y1354232D01*
X893711Y1356407D02*
X891231Y1356407D01*
X896231Y1357487D02*
X898711Y1357487D01*
X898711Y1339007D01*
X896231Y1339007D01*
X896231Y1357487D01*
X896231Y1341182D02*
X898711Y1341182D01*
X898711Y1343357D02*
X896231Y1343357D01*
X896231Y1345532D02*
X898711Y1345532D01*
X898711Y1347707D02*
X896231Y1347707D01*
X896231Y1349882D02*
X898711Y1349882D01*
X898711Y1352057D02*
X896231Y1352057D01*
X896231Y1354232D02*
X898711Y1354232D01*
X898711Y1356407D02*
X896231Y1356407D01*
X901231Y1357487D02*
X903711Y1357487D01*
X903711Y1339007D01*
X901231Y1339007D01*
X901231Y1357487D01*
X901231Y1341182D02*
X903711Y1341182D01*
X903711Y1343357D02*
X901231Y1343357D01*
X901231Y1345532D02*
X903711Y1345532D01*
X903711Y1347707D02*
X901231Y1347707D01*
X901231Y1349882D02*
X903711Y1349882D01*
X903711Y1352057D02*
X901231Y1352057D01*
X901231Y1354232D02*
X903711Y1354232D01*
X903711Y1356407D02*
X901231Y1356407D01*
X906231Y1357487D02*
X908711Y1357487D01*
X908711Y1339007D01*
X906231Y1339007D01*
X906231Y1357487D01*
X906231Y1341182D02*
X908711Y1341182D01*
X908711Y1343357D02*
X906231Y1343357D01*
X906231Y1345532D02*
X908711Y1345532D01*
X908711Y1347707D02*
X906231Y1347707D01*
X906231Y1349882D02*
X908711Y1349882D01*
X908711Y1352057D02*
X906231Y1352057D01*
X906231Y1354232D02*
X908711Y1354232D01*
X908711Y1356407D02*
X906231Y1356407D01*
X931231Y1357487D02*
X933711Y1357487D01*
X933711Y1339007D01*
X931231Y1339007D01*
X931231Y1357487D01*
X931231Y1341182D02*
X933711Y1341182D01*
X933711Y1343357D02*
X931231Y1343357D01*
X931231Y1345532D02*
X933711Y1345532D01*
X933711Y1347707D02*
X931231Y1347707D01*
X931231Y1349882D02*
X933711Y1349882D01*
X933711Y1352057D02*
X931231Y1352057D01*
X931231Y1354232D02*
X933711Y1354232D01*
X933711Y1356407D02*
X931231Y1356407D01*
X936231Y1357487D02*
X938711Y1357487D01*
X938711Y1339007D01*
X936231Y1339007D01*
X936231Y1357487D01*
X936231Y1341182D02*
X938711Y1341182D01*
X938711Y1343357D02*
X936231Y1343357D01*
X936231Y1345532D02*
X938711Y1345532D01*
X938711Y1347707D02*
X936231Y1347707D01*
X936231Y1349882D02*
X938711Y1349882D01*
X938711Y1352057D02*
X936231Y1352057D01*
X936231Y1354232D02*
X938711Y1354232D01*
X938711Y1356407D02*
X936231Y1356407D01*
X941231Y1357487D02*
X943711Y1357487D01*
X943711Y1339007D01*
X941231Y1339007D01*
X941231Y1357487D01*
X941231Y1341182D02*
X943711Y1341182D01*
X943711Y1343357D02*
X941231Y1343357D01*
X941231Y1345532D02*
X943711Y1345532D01*
X943711Y1347707D02*
X941231Y1347707D01*
X941231Y1349882D02*
X943711Y1349882D01*
X943711Y1352057D02*
X941231Y1352057D01*
X941231Y1354232D02*
X943711Y1354232D01*
X943711Y1356407D02*
X941231Y1356407D01*
X946231Y1357487D02*
X948711Y1357487D01*
X948711Y1339007D01*
X946231Y1339007D01*
X946231Y1357487D01*
X946231Y1341182D02*
X948711Y1341182D01*
X948711Y1343357D02*
X946231Y1343357D01*
X946231Y1345532D02*
X948711Y1345532D01*
X948711Y1347707D02*
X946231Y1347707D01*
X946231Y1349882D02*
X948711Y1349882D01*
X948711Y1352057D02*
X946231Y1352057D01*
X946231Y1354232D02*
X948711Y1354232D01*
X948711Y1356407D02*
X946231Y1356407D01*
X951231Y1357487D02*
X953711Y1357487D01*
X953711Y1339007D01*
X951231Y1339007D01*
X951231Y1357487D01*
X951231Y1341182D02*
X953711Y1341182D01*
X953711Y1343357D02*
X951231Y1343357D01*
X951231Y1345532D02*
X953711Y1345532D01*
X953711Y1347707D02*
X951231Y1347707D01*
X951231Y1349882D02*
X953711Y1349882D01*
X953711Y1352057D02*
X951231Y1352057D01*
X951231Y1354232D02*
X953711Y1354232D01*
X953711Y1356407D02*
X951231Y1356407D01*
X956231Y1357487D02*
X958711Y1357487D01*
X958711Y1339007D01*
X956231Y1339007D01*
X956231Y1357487D01*
X956231Y1341182D02*
X958711Y1341182D01*
X958711Y1343357D02*
X956231Y1343357D01*
X956231Y1345532D02*
X958711Y1345532D01*
X958711Y1347707D02*
X956231Y1347707D01*
X956231Y1349882D02*
X958711Y1349882D01*
X958711Y1352057D02*
X956231Y1352057D01*
X956231Y1354232D02*
X958711Y1354232D01*
X958711Y1356407D02*
X956231Y1356407D01*
X961231Y1357487D02*
X963711Y1357487D01*
X963711Y1339007D01*
X961231Y1339007D01*
X961231Y1357487D01*
X961231Y1341182D02*
X963711Y1341182D01*
X963711Y1343357D02*
X961231Y1343357D01*
X961231Y1345532D02*
X963711Y1345532D01*
X963711Y1347707D02*
X961231Y1347707D01*
X961231Y1349882D02*
X963711Y1349882D01*
X963711Y1352057D02*
X961231Y1352057D01*
X961231Y1354232D02*
X963711Y1354232D01*
X963711Y1356407D02*
X961231Y1356407D01*
X966231Y1357487D02*
X968711Y1357487D01*
X968711Y1339007D01*
X966231Y1339007D01*
X966231Y1357487D01*
X966231Y1341182D02*
X968711Y1341182D01*
X968711Y1343357D02*
X966231Y1343357D01*
X966231Y1345532D02*
X968711Y1345532D01*
X968711Y1347707D02*
X966231Y1347707D01*
X966231Y1349882D02*
X968711Y1349882D01*
X968711Y1352057D02*
X966231Y1352057D01*
X966231Y1354232D02*
X968711Y1354232D01*
X968711Y1356407D02*
X966231Y1356407D01*
X971231Y1357487D02*
X973711Y1357487D01*
X973711Y1339007D01*
X971231Y1339007D01*
X971231Y1357487D01*
X971231Y1341182D02*
X973711Y1341182D01*
X973711Y1343357D02*
X971231Y1343357D01*
X971231Y1345532D02*
X973711Y1345532D01*
X973711Y1347707D02*
X971231Y1347707D01*
X971231Y1349882D02*
X973711Y1349882D01*
X973711Y1352057D02*
X971231Y1352057D01*
X971231Y1354232D02*
X973711Y1354232D01*
X973711Y1356407D02*
X971231Y1356407D01*
X976231Y1357487D02*
X978711Y1357487D01*
X978711Y1339007D01*
X976231Y1339007D01*
X976231Y1357487D01*
X976231Y1341182D02*
X978711Y1341182D01*
X978711Y1343357D02*
X976231Y1343357D01*
X976231Y1345532D02*
X978711Y1345532D01*
X978711Y1347707D02*
X976231Y1347707D01*
X976231Y1349882D02*
X978711Y1349882D01*
X978711Y1352057D02*
X976231Y1352057D01*
X976231Y1354232D02*
X978711Y1354232D01*
X978711Y1356407D02*
X976231Y1356407D01*
X981231Y1357487D02*
X983711Y1357487D01*
X983711Y1339007D01*
X981231Y1339007D01*
X981231Y1357487D01*
X981231Y1341182D02*
X983711Y1341182D01*
X983711Y1343357D02*
X981231Y1343357D01*
X981231Y1345532D02*
X983711Y1345532D01*
X983711Y1347707D02*
X981231Y1347707D01*
X981231Y1349882D02*
X983711Y1349882D01*
X983711Y1352057D02*
X981231Y1352057D01*
X981231Y1354232D02*
X983711Y1354232D01*
X983711Y1356407D02*
X981231Y1356407D01*
X986231Y1357487D02*
X988711Y1357487D01*
X988711Y1339007D01*
X986231Y1339007D01*
X986231Y1357487D01*
X986231Y1341182D02*
X988711Y1341182D01*
X988711Y1343357D02*
X986231Y1343357D01*
X986231Y1345532D02*
X988711Y1345532D01*
X988711Y1347707D02*
X986231Y1347707D01*
X986231Y1349882D02*
X988711Y1349882D01*
X988711Y1352057D02*
X986231Y1352057D01*
X986231Y1354232D02*
X988711Y1354232D01*
X988711Y1356407D02*
X986231Y1356407D01*
X991231Y1357487D02*
X993711Y1357487D01*
X993711Y1339007D01*
X991231Y1339007D01*
X991231Y1357487D01*
X991231Y1341182D02*
X993711Y1341182D01*
X993711Y1343357D02*
X991231Y1343357D01*
X991231Y1345532D02*
X993711Y1345532D01*
X993711Y1347707D02*
X991231Y1347707D01*
X991231Y1349882D02*
X993711Y1349882D01*
X993711Y1352057D02*
X991231Y1352057D01*
X991231Y1354232D02*
X993711Y1354232D01*
X993711Y1356407D02*
X991231Y1356407D01*
X996231Y1357487D02*
X998711Y1357487D01*
X998711Y1339007D01*
X996231Y1339007D01*
X996231Y1357487D01*
X996231Y1341182D02*
X998711Y1341182D01*
X998711Y1343357D02*
X996231Y1343357D01*
X996231Y1345532D02*
X998711Y1345532D01*
X998711Y1347707D02*
X996231Y1347707D01*
X996231Y1349882D02*
X998711Y1349882D01*
X998711Y1352057D02*
X996231Y1352057D01*
X996231Y1354232D02*
X998711Y1354232D01*
X998711Y1356407D02*
X996231Y1356407D01*
X1001231Y1357487D02*
X1003711Y1357487D01*
X1003711Y1339007D01*
X1001231Y1339007D01*
X1001231Y1357487D01*
X1001231Y1341182D02*
X1003711Y1341182D01*
X1003711Y1343357D02*
X1001231Y1343357D01*
X1001231Y1345532D02*
X1003711Y1345532D01*
X1003711Y1347707D02*
X1001231Y1347707D01*
X1001231Y1349882D02*
X1003711Y1349882D01*
X1003711Y1352057D02*
X1001231Y1352057D01*
X1001231Y1354232D02*
X1003711Y1354232D01*
X1003711Y1356407D02*
X1001231Y1356407D01*
X1006231Y1357487D02*
X1008711Y1357487D01*
X1008711Y1339007D01*
X1006231Y1339007D01*
X1006231Y1357487D01*
X1006231Y1341182D02*
X1008711Y1341182D01*
X1008711Y1343357D02*
X1006231Y1343357D01*
X1006231Y1345532D02*
X1008711Y1345532D01*
X1008711Y1347707D02*
X1006231Y1347707D01*
X1006231Y1349882D02*
X1008711Y1349882D01*
X1008711Y1352057D02*
X1006231Y1352057D01*
X1006231Y1354232D02*
X1008711Y1354232D01*
X1008711Y1356407D02*
X1006231Y1356407D01*
X1011231Y1357487D02*
X1013711Y1357487D01*
X1013711Y1339007D01*
X1011231Y1339007D01*
X1011231Y1357487D01*
X1011231Y1341182D02*
X1013711Y1341182D01*
X1013711Y1343357D02*
X1011231Y1343357D01*
X1011231Y1345532D02*
X1013711Y1345532D01*
X1013711Y1347707D02*
X1011231Y1347707D01*
X1011231Y1349882D02*
X1013711Y1349882D01*
X1013711Y1352057D02*
X1011231Y1352057D01*
X1011231Y1354232D02*
X1013711Y1354232D01*
X1013711Y1356407D02*
X1011231Y1356407D01*
X1016231Y1357487D02*
X1018711Y1357487D01*
X1018711Y1339007D01*
X1016231Y1339007D01*
X1016231Y1357487D01*
X1016231Y1341182D02*
X1018711Y1341182D01*
X1018711Y1343357D02*
X1016231Y1343357D01*
X1016231Y1345532D02*
X1018711Y1345532D01*
X1018711Y1347707D02*
X1016231Y1347707D01*
X1016231Y1349882D02*
X1018711Y1349882D01*
X1018711Y1352057D02*
X1016231Y1352057D01*
X1016231Y1354232D02*
X1018711Y1354232D01*
X1018711Y1356407D02*
X1016231Y1356407D01*
X1021231Y1357487D02*
X1023711Y1357487D01*
X1023711Y1339007D01*
X1021231Y1339007D01*
X1021231Y1357487D01*
X1021231Y1341182D02*
X1023711Y1341182D01*
X1023711Y1343357D02*
X1021231Y1343357D01*
X1021231Y1345532D02*
X1023711Y1345532D01*
X1023711Y1347707D02*
X1021231Y1347707D01*
X1021231Y1349882D02*
X1023711Y1349882D01*
X1023711Y1352057D02*
X1021231Y1352057D01*
X1021231Y1354232D02*
X1023711Y1354232D01*
X1023711Y1356407D02*
X1021231Y1356407D01*
X1026231Y1357487D02*
X1028711Y1357487D01*
X1028711Y1339007D01*
X1026231Y1339007D01*
X1026231Y1357487D01*
X1026231Y1341182D02*
X1028711Y1341182D01*
X1028711Y1343357D02*
X1026231Y1343357D01*
X1026231Y1345532D02*
X1028711Y1345532D01*
X1028711Y1347707D02*
X1026231Y1347707D01*
X1026231Y1349882D02*
X1028711Y1349882D01*
X1028711Y1352057D02*
X1026231Y1352057D01*
X1026231Y1354232D02*
X1028711Y1354232D01*
X1028711Y1356407D02*
X1026231Y1356407D01*
X1031231Y1357487D02*
X1033711Y1357487D01*
X1033711Y1339007D01*
X1031231Y1339007D01*
X1031231Y1357487D01*
X1031231Y1341182D02*
X1033711Y1341182D01*
X1033711Y1343357D02*
X1031231Y1343357D01*
X1031231Y1345532D02*
X1033711Y1345532D01*
X1033711Y1347707D02*
X1031231Y1347707D01*
X1031231Y1349882D02*
X1033711Y1349882D01*
X1033711Y1352057D02*
X1031231Y1352057D01*
X1031231Y1354232D02*
X1033711Y1354232D01*
X1033711Y1356407D02*
X1031231Y1356407D01*
X1036231Y1357487D02*
X1038711Y1357487D01*
X1038711Y1339007D01*
X1036231Y1339007D01*
X1036231Y1357487D01*
X1036231Y1341182D02*
X1038711Y1341182D01*
X1038711Y1343357D02*
X1036231Y1343357D01*
X1036231Y1345532D02*
X1038711Y1345532D01*
X1038711Y1347707D02*
X1036231Y1347707D01*
X1036231Y1349882D02*
X1038711Y1349882D01*
X1038711Y1352057D02*
X1036231Y1352057D01*
X1036231Y1354232D02*
X1038711Y1354232D01*
X1038711Y1356407D02*
X1036231Y1356407D01*
D16*
X767471Y902497D03*
X767471Y944497D03*
X780471Y923497D03*
X1127471Y944497D03*
X1127471Y902497D03*
X1114471Y923497D03*
D17*
X969963Y1176839D02*
X969963Y1181855D01*
X980979Y1181855D01*
X980979Y1176839D01*
X969963Y1176839D01*
X969963Y1178980D02*
X980979Y1178980D01*
X980979Y1181121D02*
X969963Y1181121D01*
X969963Y1169155D02*
X969963Y1164139D01*
X969963Y1169155D02*
X980979Y1169155D01*
X980979Y1164139D01*
X969963Y1164139D01*
X969963Y1166280D02*
X980979Y1166280D01*
X980979Y1168421D02*
X969963Y1168421D01*
X969963Y1156455D02*
X969963Y1151439D01*
X969963Y1156455D02*
X980979Y1156455D01*
X980979Y1151439D01*
X969963Y1151439D01*
X969963Y1153580D02*
X980979Y1153580D01*
X980979Y1155721D02*
X969963Y1155721D01*
X969963Y1143755D02*
X969963Y1138739D01*
X969963Y1143755D02*
X980979Y1143755D01*
X980979Y1138739D01*
X969963Y1138739D01*
X969963Y1140880D02*
X980979Y1140880D01*
X980979Y1143021D02*
X969963Y1143021D01*
X913963Y1143755D02*
X913963Y1138739D01*
X913963Y1143755D02*
X924979Y1143755D01*
X924979Y1138739D01*
X913963Y1138739D01*
X913963Y1140880D02*
X924979Y1140880D01*
X924979Y1143021D02*
X913963Y1143021D01*
X913963Y1151439D02*
X913963Y1156455D01*
X924979Y1156455D01*
X924979Y1151439D01*
X913963Y1151439D01*
X913963Y1153580D02*
X924979Y1153580D01*
X924979Y1155721D02*
X913963Y1155721D01*
X913963Y1164139D02*
X913963Y1169155D01*
X924979Y1169155D01*
X924979Y1164139D01*
X913963Y1164139D01*
X913963Y1166280D02*
X924979Y1166280D01*
X924979Y1168421D02*
X913963Y1168421D01*
X913963Y1176839D02*
X913963Y1181855D01*
X924979Y1181855D01*
X924979Y1176839D01*
X913963Y1176839D01*
X913963Y1178980D02*
X924979Y1178980D01*
X924979Y1181121D02*
X913963Y1181121D01*
D18*
X902513Y1143660D02*
X902513Y1138326D01*
X890829Y1138326D01*
X890829Y1143660D01*
X902513Y1143660D01*
X902513Y1140498D02*
X890829Y1140498D01*
X890829Y1142670D02*
X902513Y1142670D01*
X902513Y1146454D02*
X902513Y1151788D01*
X902513Y1146454D02*
X890829Y1146454D01*
X890829Y1151788D01*
X902513Y1151788D01*
X902513Y1148626D02*
X890829Y1148626D01*
X890829Y1150798D02*
X902513Y1150798D01*
D10*
X-26238Y1299997D03*
X1161161Y1299997D03*
D19*
X-35293Y63500D02*
X-35290Y63722D01*
X-35282Y63944D01*
X-35268Y64166D01*
X-35249Y64388D01*
X-35225Y64608D01*
X-35195Y64829D01*
X-35160Y65048D01*
X-35119Y65267D01*
X-35073Y65484D01*
X-35022Y65700D01*
X-34965Y65915D01*
X-34903Y66129D01*
X-34836Y66340D01*
X-34764Y66551D01*
X-34686Y66759D01*
X-34604Y66965D01*
X-34516Y67169D01*
X-34424Y67372D01*
X-34326Y67571D01*
X-34224Y67768D01*
X-34117Y67963D01*
X-34005Y68155D01*
X-33888Y68344D01*
X-33767Y68531D01*
X-33641Y68714D01*
X-33511Y68894D01*
X-33376Y69071D01*
X-33238Y69244D01*
X-33095Y69414D01*
X-32947Y69581D01*
X-32796Y69744D01*
X-32641Y69903D01*
X-32482Y70058D01*
X-32319Y70209D01*
X-32152Y70357D01*
X-31982Y70500D01*
X-31809Y70638D01*
X-31632Y70773D01*
X-31452Y70903D01*
X-31269Y71029D01*
X-31082Y71150D01*
X-30893Y71267D01*
X-30701Y71379D01*
X-30506Y71486D01*
X-30309Y71588D01*
X-30110Y71686D01*
X-29907Y71778D01*
X-29703Y71866D01*
X-29497Y71948D01*
X-29289Y72026D01*
X-29078Y72098D01*
X-28867Y72165D01*
X-28653Y72227D01*
X-28438Y72284D01*
X-28222Y72335D01*
X-28005Y72381D01*
X-27786Y72422D01*
X-27567Y72457D01*
X-27346Y72487D01*
X-27126Y72511D01*
X-26904Y72530D01*
X-26682Y72544D01*
X-26460Y72552D01*
X-26238Y72555D01*
X-26016Y72552D01*
X-25794Y72544D01*
X-25572Y72530D01*
X-25350Y72511D01*
X-25130Y72487D01*
X-24909Y72457D01*
X-24690Y72422D01*
X-24471Y72381D01*
X-24254Y72335D01*
X-24038Y72284D01*
X-23823Y72227D01*
X-23609Y72165D01*
X-23398Y72098D01*
X-23187Y72026D01*
X-22979Y71948D01*
X-22773Y71866D01*
X-22569Y71778D01*
X-22366Y71686D01*
X-22167Y71588D01*
X-21970Y71486D01*
X-21775Y71379D01*
X-21583Y71267D01*
X-21394Y71150D01*
X-21207Y71029D01*
X-21024Y70903D01*
X-20844Y70773D01*
X-20667Y70638D01*
X-20494Y70500D01*
X-20324Y70357D01*
X-20157Y70209D01*
X-19994Y70058D01*
X-19835Y69903D01*
X-19680Y69744D01*
X-19529Y69581D01*
X-19381Y69414D01*
X-19238Y69244D01*
X-19100Y69071D01*
X-18965Y68894D01*
X-18835Y68714D01*
X-18709Y68531D01*
X-18588Y68344D01*
X-18471Y68155D01*
X-18359Y67963D01*
X-18252Y67768D01*
X-18150Y67571D01*
X-18052Y67372D01*
X-17960Y67169D01*
X-17872Y66965D01*
X-17790Y66759D01*
X-17712Y66551D01*
X-17640Y66340D01*
X-17573Y66129D01*
X-17511Y65915D01*
X-17454Y65700D01*
X-17403Y65484D01*
X-17357Y65267D01*
X-17316Y65048D01*
X-17281Y64829D01*
X-17251Y64608D01*
X-17227Y64388D01*
X-17208Y64166D01*
X-17194Y63944D01*
X-17186Y63722D01*
X-17183Y63500D01*
X-17186Y63278D01*
X-17194Y63056D01*
X-17208Y62834D01*
X-17227Y62612D01*
X-17251Y62392D01*
X-17281Y62171D01*
X-17316Y61952D01*
X-17357Y61733D01*
X-17403Y61516D01*
X-17454Y61300D01*
X-17511Y61085D01*
X-17573Y60871D01*
X-17640Y60660D01*
X-17712Y60449D01*
X-17790Y60241D01*
X-17872Y60035D01*
X-17960Y59831D01*
X-18052Y59628D01*
X-18150Y59429D01*
X-18252Y59232D01*
X-18359Y59037D01*
X-18471Y58845D01*
X-18588Y58656D01*
X-18709Y58469D01*
X-18835Y58286D01*
X-18965Y58106D01*
X-19100Y57929D01*
X-19238Y57756D01*
X-19381Y57586D01*
X-19529Y57419D01*
X-19680Y57256D01*
X-19835Y57097D01*
X-19994Y56942D01*
X-20157Y56791D01*
X-20324Y56643D01*
X-20494Y56500D01*
X-20667Y56362D01*
X-20844Y56227D01*
X-21024Y56097D01*
X-21207Y55971D01*
X-21394Y55850D01*
X-21583Y55733D01*
X-21775Y55621D01*
X-21970Y55514D01*
X-22167Y55412D01*
X-22366Y55314D01*
X-22569Y55222D01*
X-22773Y55134D01*
X-22979Y55052D01*
X-23187Y54974D01*
X-23398Y54902D01*
X-23609Y54835D01*
X-23823Y54773D01*
X-24038Y54716D01*
X-24254Y54665D01*
X-24471Y54619D01*
X-24690Y54578D01*
X-24909Y54543D01*
X-25130Y54513D01*
X-25350Y54489D01*
X-25572Y54470D01*
X-25794Y54456D01*
X-26016Y54448D01*
X-26238Y54445D01*
X-26460Y54448D01*
X-26682Y54456D01*
X-26904Y54470D01*
X-27126Y54489D01*
X-27346Y54513D01*
X-27567Y54543D01*
X-27786Y54578D01*
X-28005Y54619D01*
X-28222Y54665D01*
X-28438Y54716D01*
X-28653Y54773D01*
X-28867Y54835D01*
X-29078Y54902D01*
X-29289Y54974D01*
X-29497Y55052D01*
X-29703Y55134D01*
X-29907Y55222D01*
X-30110Y55314D01*
X-30309Y55412D01*
X-30506Y55514D01*
X-30701Y55621D01*
X-30893Y55733D01*
X-31082Y55850D01*
X-31269Y55971D01*
X-31452Y56097D01*
X-31632Y56227D01*
X-31809Y56362D01*
X-31982Y56500D01*
X-32152Y56643D01*
X-32319Y56791D01*
X-32482Y56942D01*
X-32641Y57097D01*
X-32796Y57256D01*
X-32947Y57419D01*
X-33095Y57586D01*
X-33238Y57756D01*
X-33376Y57929D01*
X-33511Y58106D01*
X-33641Y58286D01*
X-33767Y58469D01*
X-33888Y58656D01*
X-34005Y58845D01*
X-34117Y59037D01*
X-34224Y59232D01*
X-34326Y59429D01*
X-34424Y59628D01*
X-34516Y59831D01*
X-34604Y60035D01*
X-34686Y60241D01*
X-34764Y60449D01*
X-34836Y60660D01*
X-34903Y60871D01*
X-34965Y61085D01*
X-35022Y61300D01*
X-35073Y61516D01*
X-35119Y61733D01*
X-35160Y61952D01*
X-35195Y62171D01*
X-35225Y62392D01*
X-35249Y62612D01*
X-35268Y62834D01*
X-35282Y63056D01*
X-35290Y63278D01*
X-35293Y63500D01*
D20*
X-26238Y63500D03*
M02*
