G04 EAGLE Gerber RS-274X export*
G75*
%MOMM*%
%FSLAX34Y34*%
%LPD*%
%INSolderpaste Bottom*%
%IPPOS*%
%AMOC8*
5,1,8,0,0,1.08239X$1,22.5*%
G01*
%ADD10C,0.102000*%


D10*
X164942Y186640D02*
X164942Y181660D01*
X153962Y181660D01*
X153962Y186640D01*
X164942Y186640D01*
X164942Y182629D02*
X153962Y182629D01*
X153962Y183598D02*
X164942Y183598D01*
X164942Y184567D02*
X153962Y184567D01*
X153962Y185536D02*
X164942Y185536D01*
X164942Y186505D02*
X153962Y186505D01*
X164942Y194360D02*
X164942Y199340D01*
X164942Y194360D02*
X153962Y194360D01*
X153962Y199340D01*
X164942Y199340D01*
X164942Y195329D02*
X153962Y195329D01*
X153962Y196298D02*
X164942Y196298D01*
X164942Y197267D02*
X153962Y197267D01*
X153962Y198236D02*
X164942Y198236D01*
X164942Y199205D02*
X153962Y199205D01*
X164942Y207060D02*
X164942Y212040D01*
X164942Y207060D02*
X153962Y207060D01*
X153962Y212040D01*
X164942Y212040D01*
X164942Y208029D02*
X153962Y208029D01*
X153962Y208998D02*
X164942Y208998D01*
X164942Y209967D02*
X153962Y209967D01*
X153962Y210936D02*
X164942Y210936D01*
X164942Y211905D02*
X153962Y211905D01*
X164942Y219760D02*
X164942Y224740D01*
X164942Y219760D02*
X153962Y219760D01*
X153962Y224740D01*
X164942Y224740D01*
X164942Y220729D02*
X153962Y220729D01*
X153962Y221698D02*
X164942Y221698D01*
X164942Y222667D02*
X153962Y222667D01*
X153962Y223636D02*
X164942Y223636D01*
X164942Y224605D02*
X153962Y224605D01*
X220942Y224740D02*
X220942Y219760D01*
X209962Y219760D01*
X209962Y224740D01*
X220942Y224740D01*
X220942Y220729D02*
X209962Y220729D01*
X209962Y221698D02*
X220942Y221698D01*
X220942Y222667D02*
X209962Y222667D01*
X209962Y223636D02*
X220942Y223636D01*
X220942Y224605D02*
X209962Y224605D01*
X220942Y212040D02*
X220942Y207060D01*
X209962Y207060D01*
X209962Y212040D01*
X220942Y212040D01*
X220942Y208029D02*
X209962Y208029D01*
X209962Y208998D02*
X220942Y208998D01*
X220942Y209967D02*
X209962Y209967D01*
X209962Y210936D02*
X220942Y210936D01*
X220942Y211905D02*
X209962Y211905D01*
X220942Y199340D02*
X220942Y194360D01*
X209962Y194360D01*
X209962Y199340D01*
X220942Y199340D01*
X220942Y195329D02*
X209962Y195329D01*
X209962Y196298D02*
X220942Y196298D01*
X220942Y197267D02*
X209962Y197267D01*
X209962Y198236D02*
X220942Y198236D01*
X220942Y199205D02*
X209962Y199205D01*
X220942Y186640D02*
X220942Y181660D01*
X209962Y181660D01*
X209962Y186640D01*
X220942Y186640D01*
X220942Y182629D02*
X209962Y182629D01*
X209962Y183598D02*
X220942Y183598D01*
X220942Y184567D02*
X209962Y184567D01*
X209962Y185536D02*
X220942Y185536D01*
X220942Y186505D02*
X209962Y186505D01*
X544951Y186640D02*
X544951Y181660D01*
X533971Y181660D01*
X533971Y186640D01*
X544951Y186640D01*
X544951Y182629D02*
X533971Y182629D01*
X533971Y183598D02*
X544951Y183598D01*
X544951Y184567D02*
X533971Y184567D01*
X533971Y185536D02*
X544951Y185536D01*
X544951Y186505D02*
X533971Y186505D01*
X544951Y194360D02*
X544951Y199340D01*
X544951Y194360D02*
X533971Y194360D01*
X533971Y199340D01*
X544951Y199340D01*
X544951Y195329D02*
X533971Y195329D01*
X533971Y196298D02*
X544951Y196298D01*
X544951Y197267D02*
X533971Y197267D01*
X533971Y198236D02*
X544951Y198236D01*
X544951Y199205D02*
X533971Y199205D01*
X544951Y207060D02*
X544951Y212040D01*
X544951Y207060D02*
X533971Y207060D01*
X533971Y212040D01*
X544951Y212040D01*
X544951Y208029D02*
X533971Y208029D01*
X533971Y208998D02*
X544951Y208998D01*
X544951Y209967D02*
X533971Y209967D01*
X533971Y210936D02*
X544951Y210936D01*
X544951Y211905D02*
X533971Y211905D01*
X544951Y219760D02*
X544951Y224740D01*
X544951Y219760D02*
X533971Y219760D01*
X533971Y224740D01*
X544951Y224740D01*
X544951Y220729D02*
X533971Y220729D01*
X533971Y221698D02*
X544951Y221698D01*
X544951Y222667D02*
X533971Y222667D01*
X533971Y223636D02*
X544951Y223636D01*
X544951Y224605D02*
X533971Y224605D01*
X600951Y224740D02*
X600951Y219760D01*
X589971Y219760D01*
X589971Y224740D01*
X600951Y224740D01*
X600951Y220729D02*
X589971Y220729D01*
X589971Y221698D02*
X600951Y221698D01*
X600951Y222667D02*
X589971Y222667D01*
X589971Y223636D02*
X600951Y223636D01*
X600951Y224605D02*
X589971Y224605D01*
X600951Y212040D02*
X600951Y207060D01*
X589971Y207060D01*
X589971Y212040D01*
X600951Y212040D01*
X600951Y208029D02*
X589971Y208029D01*
X589971Y208998D02*
X600951Y208998D01*
X600951Y209967D02*
X589971Y209967D01*
X589971Y210936D02*
X600951Y210936D01*
X600951Y211905D02*
X589971Y211905D01*
X600951Y199340D02*
X600951Y194360D01*
X589971Y194360D01*
X589971Y199340D01*
X600951Y199340D01*
X600951Y195329D02*
X589971Y195329D01*
X589971Y196298D02*
X600951Y196298D01*
X600951Y197267D02*
X589971Y197267D01*
X589971Y198236D02*
X600951Y198236D01*
X600951Y199205D02*
X589971Y199205D01*
X600951Y186640D02*
X600951Y181660D01*
X589971Y181660D01*
X589971Y186640D01*
X600951Y186640D01*
X600951Y182629D02*
X589971Y182629D01*
X589971Y183598D02*
X600951Y183598D01*
X600951Y184567D02*
X589971Y184567D01*
X589971Y185536D02*
X600951Y185536D01*
X600951Y186505D02*
X589971Y186505D01*
X924935Y186640D02*
X924935Y181660D01*
X913955Y181660D01*
X913955Y186640D01*
X924935Y186640D01*
X924935Y182629D02*
X913955Y182629D01*
X913955Y183598D02*
X924935Y183598D01*
X924935Y184567D02*
X913955Y184567D01*
X913955Y185536D02*
X924935Y185536D01*
X924935Y186505D02*
X913955Y186505D01*
X924935Y194360D02*
X924935Y199340D01*
X924935Y194360D02*
X913955Y194360D01*
X913955Y199340D01*
X924935Y199340D01*
X924935Y195329D02*
X913955Y195329D01*
X913955Y196298D02*
X924935Y196298D01*
X924935Y197267D02*
X913955Y197267D01*
X913955Y198236D02*
X924935Y198236D01*
X924935Y199205D02*
X913955Y199205D01*
X924935Y207060D02*
X924935Y212040D01*
X924935Y207060D02*
X913955Y207060D01*
X913955Y212040D01*
X924935Y212040D01*
X924935Y208029D02*
X913955Y208029D01*
X913955Y208998D02*
X924935Y208998D01*
X924935Y209967D02*
X913955Y209967D01*
X913955Y210936D02*
X924935Y210936D01*
X924935Y211905D02*
X913955Y211905D01*
X924935Y219760D02*
X924935Y224740D01*
X924935Y219760D02*
X913955Y219760D01*
X913955Y224740D01*
X924935Y224740D01*
X924935Y220729D02*
X913955Y220729D01*
X913955Y221698D02*
X924935Y221698D01*
X924935Y222667D02*
X913955Y222667D01*
X913955Y223636D02*
X924935Y223636D01*
X924935Y224605D02*
X913955Y224605D01*
X980935Y224740D02*
X980935Y219760D01*
X969955Y219760D01*
X969955Y224740D01*
X980935Y224740D01*
X980935Y220729D02*
X969955Y220729D01*
X969955Y221698D02*
X980935Y221698D01*
X980935Y222667D02*
X969955Y222667D01*
X969955Y223636D02*
X980935Y223636D01*
X980935Y224605D02*
X969955Y224605D01*
X980935Y212040D02*
X980935Y207060D01*
X969955Y207060D01*
X969955Y212040D01*
X980935Y212040D01*
X980935Y208029D02*
X969955Y208029D01*
X969955Y208998D02*
X980935Y208998D01*
X980935Y209967D02*
X969955Y209967D01*
X969955Y210936D02*
X980935Y210936D01*
X980935Y211905D02*
X969955Y211905D01*
X980935Y199340D02*
X980935Y194360D01*
X969955Y194360D01*
X969955Y199340D01*
X980935Y199340D01*
X980935Y195329D02*
X969955Y195329D01*
X969955Y196298D02*
X980935Y196298D01*
X980935Y197267D02*
X969955Y197267D01*
X969955Y198236D02*
X980935Y198236D01*
X980935Y199205D02*
X969955Y199205D01*
X980935Y186640D02*
X980935Y181660D01*
X969955Y181660D01*
X969955Y186640D01*
X980935Y186640D01*
X980935Y182629D02*
X969955Y182629D01*
X969955Y183598D02*
X980935Y183598D01*
X980935Y184567D02*
X969955Y184567D01*
X969955Y185536D02*
X980935Y185536D01*
X980935Y186505D02*
X969955Y186505D01*
X209987Y1176857D02*
X209987Y1181837D01*
X220967Y1181837D01*
X220967Y1176857D01*
X209987Y1176857D01*
X209987Y1177826D02*
X220967Y1177826D01*
X220967Y1178795D02*
X209987Y1178795D01*
X209987Y1179764D02*
X220967Y1179764D01*
X220967Y1180733D02*
X209987Y1180733D01*
X209987Y1181702D02*
X220967Y1181702D01*
X209987Y1169137D02*
X209987Y1164157D01*
X209987Y1169137D02*
X220967Y1169137D01*
X220967Y1164157D01*
X209987Y1164157D01*
X209987Y1165126D02*
X220967Y1165126D01*
X220967Y1166095D02*
X209987Y1166095D01*
X209987Y1167064D02*
X220967Y1167064D01*
X220967Y1168033D02*
X209987Y1168033D01*
X209987Y1169002D02*
X220967Y1169002D01*
X209987Y1156437D02*
X209987Y1151457D01*
X209987Y1156437D02*
X220967Y1156437D01*
X220967Y1151457D01*
X209987Y1151457D01*
X209987Y1152426D02*
X220967Y1152426D01*
X220967Y1153395D02*
X209987Y1153395D01*
X209987Y1154364D02*
X220967Y1154364D01*
X220967Y1155333D02*
X209987Y1155333D01*
X209987Y1156302D02*
X220967Y1156302D01*
X209987Y1143737D02*
X209987Y1138757D01*
X209987Y1143737D02*
X220967Y1143737D01*
X220967Y1138757D01*
X209987Y1138757D01*
X209987Y1139726D02*
X220967Y1139726D01*
X220967Y1140695D02*
X209987Y1140695D01*
X209987Y1141664D02*
X220967Y1141664D01*
X220967Y1142633D02*
X209987Y1142633D01*
X209987Y1143602D02*
X220967Y1143602D01*
X153987Y1143737D02*
X153987Y1138757D01*
X153987Y1143737D02*
X164967Y1143737D01*
X164967Y1138757D01*
X153987Y1138757D01*
X153987Y1139726D02*
X164967Y1139726D01*
X164967Y1140695D02*
X153987Y1140695D01*
X153987Y1141664D02*
X164967Y1141664D01*
X164967Y1142633D02*
X153987Y1142633D01*
X153987Y1143602D02*
X164967Y1143602D01*
X153987Y1151457D02*
X153987Y1156437D01*
X164967Y1156437D01*
X164967Y1151457D01*
X153987Y1151457D01*
X153987Y1152426D02*
X164967Y1152426D01*
X164967Y1153395D02*
X153987Y1153395D01*
X153987Y1154364D02*
X164967Y1154364D01*
X164967Y1155333D02*
X153987Y1155333D01*
X153987Y1156302D02*
X164967Y1156302D01*
X153987Y1164157D02*
X153987Y1169137D01*
X164967Y1169137D01*
X164967Y1164157D01*
X153987Y1164157D01*
X153987Y1165126D02*
X164967Y1165126D01*
X164967Y1166095D02*
X153987Y1166095D01*
X153987Y1167064D02*
X164967Y1167064D01*
X164967Y1168033D02*
X153987Y1168033D01*
X153987Y1169002D02*
X164967Y1169002D01*
X153987Y1176857D02*
X153987Y1181837D01*
X164967Y1181837D01*
X164967Y1176857D01*
X153987Y1176857D01*
X153987Y1177826D02*
X164967Y1177826D01*
X164967Y1178795D02*
X153987Y1178795D01*
X153987Y1179764D02*
X164967Y1179764D01*
X164967Y1180733D02*
X153987Y1180733D01*
X153987Y1181702D02*
X164967Y1181702D01*
X589971Y1181837D02*
X589971Y1176857D01*
X589971Y1181837D02*
X600951Y1181837D01*
X600951Y1176857D01*
X589971Y1176857D01*
X589971Y1177826D02*
X600951Y1177826D01*
X600951Y1178795D02*
X589971Y1178795D01*
X589971Y1179764D02*
X600951Y1179764D01*
X600951Y1180733D02*
X589971Y1180733D01*
X589971Y1181702D02*
X600951Y1181702D01*
X589971Y1169137D02*
X589971Y1164157D01*
X589971Y1169137D02*
X600951Y1169137D01*
X600951Y1164157D01*
X589971Y1164157D01*
X589971Y1165126D02*
X600951Y1165126D01*
X600951Y1166095D02*
X589971Y1166095D01*
X589971Y1167064D02*
X600951Y1167064D01*
X600951Y1168033D02*
X589971Y1168033D01*
X589971Y1169002D02*
X600951Y1169002D01*
X589971Y1156437D02*
X589971Y1151457D01*
X589971Y1156437D02*
X600951Y1156437D01*
X600951Y1151457D01*
X589971Y1151457D01*
X589971Y1152426D02*
X600951Y1152426D01*
X600951Y1153395D02*
X589971Y1153395D01*
X589971Y1154364D02*
X600951Y1154364D01*
X600951Y1155333D02*
X589971Y1155333D01*
X589971Y1156302D02*
X600951Y1156302D01*
X589971Y1143737D02*
X589971Y1138757D01*
X589971Y1143737D02*
X600951Y1143737D01*
X600951Y1138757D01*
X589971Y1138757D01*
X589971Y1139726D02*
X600951Y1139726D01*
X600951Y1140695D02*
X589971Y1140695D01*
X589971Y1141664D02*
X600951Y1141664D01*
X600951Y1142633D02*
X589971Y1142633D01*
X589971Y1143602D02*
X600951Y1143602D01*
X533971Y1143737D02*
X533971Y1138757D01*
X533971Y1143737D02*
X544951Y1143737D01*
X544951Y1138757D01*
X533971Y1138757D01*
X533971Y1139726D02*
X544951Y1139726D01*
X544951Y1140695D02*
X533971Y1140695D01*
X533971Y1141664D02*
X544951Y1141664D01*
X544951Y1142633D02*
X533971Y1142633D01*
X533971Y1143602D02*
X544951Y1143602D01*
X533971Y1151457D02*
X533971Y1156437D01*
X544951Y1156437D01*
X544951Y1151457D01*
X533971Y1151457D01*
X533971Y1152426D02*
X544951Y1152426D01*
X544951Y1153395D02*
X533971Y1153395D01*
X533971Y1154364D02*
X544951Y1154364D01*
X544951Y1155333D02*
X533971Y1155333D01*
X533971Y1156302D02*
X544951Y1156302D01*
X533971Y1164157D02*
X533971Y1169137D01*
X544951Y1169137D01*
X544951Y1164157D01*
X533971Y1164157D01*
X533971Y1165126D02*
X544951Y1165126D01*
X544951Y1166095D02*
X533971Y1166095D01*
X533971Y1167064D02*
X544951Y1167064D01*
X544951Y1168033D02*
X533971Y1168033D01*
X533971Y1169002D02*
X544951Y1169002D01*
X533971Y1176857D02*
X533971Y1181837D01*
X544951Y1181837D01*
X544951Y1176857D01*
X533971Y1176857D01*
X533971Y1177826D02*
X544951Y1177826D01*
X544951Y1178795D02*
X533971Y1178795D01*
X533971Y1179764D02*
X544951Y1179764D01*
X544951Y1180733D02*
X533971Y1180733D01*
X533971Y1181702D02*
X544951Y1181702D01*
X969981Y1181837D02*
X969981Y1176857D01*
X969981Y1181837D02*
X980961Y1181837D01*
X980961Y1176857D01*
X969981Y1176857D01*
X969981Y1177826D02*
X980961Y1177826D01*
X980961Y1178795D02*
X969981Y1178795D01*
X969981Y1179764D02*
X980961Y1179764D01*
X980961Y1180733D02*
X969981Y1180733D01*
X969981Y1181702D02*
X980961Y1181702D01*
X969981Y1169137D02*
X969981Y1164157D01*
X969981Y1169137D02*
X980961Y1169137D01*
X980961Y1164157D01*
X969981Y1164157D01*
X969981Y1165126D02*
X980961Y1165126D01*
X980961Y1166095D02*
X969981Y1166095D01*
X969981Y1167064D02*
X980961Y1167064D01*
X980961Y1168033D02*
X969981Y1168033D01*
X969981Y1169002D02*
X980961Y1169002D01*
X969981Y1156437D02*
X969981Y1151457D01*
X969981Y1156437D02*
X980961Y1156437D01*
X980961Y1151457D01*
X969981Y1151457D01*
X969981Y1152426D02*
X980961Y1152426D01*
X980961Y1153395D02*
X969981Y1153395D01*
X969981Y1154364D02*
X980961Y1154364D01*
X980961Y1155333D02*
X969981Y1155333D01*
X969981Y1156302D02*
X980961Y1156302D01*
X969981Y1143737D02*
X969981Y1138757D01*
X969981Y1143737D02*
X980961Y1143737D01*
X980961Y1138757D01*
X969981Y1138757D01*
X969981Y1139726D02*
X980961Y1139726D01*
X980961Y1140695D02*
X969981Y1140695D01*
X969981Y1141664D02*
X980961Y1141664D01*
X980961Y1142633D02*
X969981Y1142633D01*
X969981Y1143602D02*
X980961Y1143602D01*
X913981Y1143737D02*
X913981Y1138757D01*
X913981Y1143737D02*
X924961Y1143737D01*
X924961Y1138757D01*
X913981Y1138757D01*
X913981Y1139726D02*
X924961Y1139726D01*
X924961Y1140695D02*
X913981Y1140695D01*
X913981Y1141664D02*
X924961Y1141664D01*
X924961Y1142633D02*
X913981Y1142633D01*
X913981Y1143602D02*
X924961Y1143602D01*
X913981Y1151457D02*
X913981Y1156437D01*
X924961Y1156437D01*
X924961Y1151457D01*
X913981Y1151457D01*
X913981Y1152426D02*
X924961Y1152426D01*
X924961Y1153395D02*
X913981Y1153395D01*
X913981Y1154364D02*
X924961Y1154364D01*
X924961Y1155333D02*
X913981Y1155333D01*
X913981Y1156302D02*
X924961Y1156302D01*
X913981Y1164157D02*
X913981Y1169137D01*
X924961Y1169137D01*
X924961Y1164157D01*
X913981Y1164157D01*
X913981Y1165126D02*
X924961Y1165126D01*
X924961Y1166095D02*
X913981Y1166095D01*
X913981Y1167064D02*
X924961Y1167064D01*
X924961Y1168033D02*
X913981Y1168033D01*
X913981Y1169002D02*
X924961Y1169002D01*
X913981Y1176857D02*
X913981Y1181837D01*
X924961Y1181837D01*
X924961Y1176857D01*
X913981Y1176857D01*
X913981Y1177826D02*
X924961Y1177826D01*
X924961Y1178795D02*
X913981Y1178795D01*
X913981Y1179764D02*
X924961Y1179764D01*
X924961Y1180733D02*
X913981Y1180733D01*
X913981Y1181702D02*
X924961Y1181702D01*
M02*
