M48
;GenerationSoftware,Autodesk,EAGLE,9.6.2*%
;CreationDate,2022-07-22T11:42:13Z*%
FMAT,2
ICI,OFF
METRIC,TZ,000.000
T5C0.300
T4C0.305
T3C1.100
T2C1.600
T1C3.800
%
G90
M71
T1
X30846Y60079
X68847Y76271
X6647Y76271
X82644Y60079
X30848Y76271
X44646Y60079
X68847Y60079
X6645Y60079
X106845Y60079
X82647Y76271
X106848Y76271
X44646Y76271
T2
X6245Y11430
X44246Y11430
X82245Y11430
X31248Y124920
X69246Y124920
X107247Y124920
T3
X31245Y11430
X69246Y11430
X107245Y11430
X44246Y124920
X82247Y124920
X6248Y124920
T4
X111447Y92350
X36745Y46100
X36745Y41900
X35445Y44000
X745Y41900
X745Y46100
X2045Y44000
X112745Y46100
X112745Y41900
X111445Y44000
X76745Y41900
X76745Y46100
X78045Y44000
X74746Y46100
X40046Y44000
X748Y90250
X748Y94450
X2048Y92350
X36748Y94450
X36748Y90250
X35448Y92350
X38746Y46100
X38746Y41900
X38746Y90250
X38746Y94450
X40046Y92350
X74746Y94450
X74746Y90250
X73446Y92350
X73446Y44000
X74746Y41900
X76747Y90250
X76747Y94450
X78047Y92350
X112747Y94450
X112747Y90250
T5
X8712Y23495
X6807Y23368
X10744Y23495
X7315Y9525
X6045Y13335
X965Y8890
X4013Y19939
X4013Y15875
X10744Y20701
X10744Y19050
X4775Y29210
X965Y27940
X27635Y20701
X14808Y27305
X25730Y26670
X965Y24130
X4775Y24130
X31445Y24130
X35255Y20320
X35255Y16510
X35255Y12700
X35255Y8890
X32715Y20320
X32715Y16510
X32715Y12700
X25095Y20320
X16205Y20320
X14935Y15240
X13665Y22860
X23317Y22225
X18745Y27940
X27635Y5080
X28905Y24130
X28905Y26670
X11125Y5842
X18618Y4399
X12014Y5842
X18618Y5080
X25730Y5715
X26619Y17145
X29794Y27559
X7315Y17907
X7315Y17145
X30556Y17145
X30556Y17907
X22555Y11430
X11379Y4445
X6807Y26670
X6807Y24176
X24015Y4681
X18618Y3683
X23952Y3683
X23444Y4191
X54968Y13970
X61318Y13970
X63731Y13970
X67795Y13970
X40363Y25400
X61699Y8890
X62588Y8890
X64874Y8890
X56111Y8890
X58905Y8890
X47983Y8890
X46205Y13970
X50523Y8890
X55730Y3683
X59286Y4318
X65636Y19050
X63731Y17145
X61318Y17145
X54968Y17145
X67795Y17145
X69446Y13970
X65636Y11430
X54206Y10160
X51666Y11430
X51666Y6350
X53444Y5842
X51666Y3683
X65001Y3683
X45316Y5080
X38966Y5080
X40363Y17907
X40363Y21971
X38966Y31750
X42776Y31750
X46586Y33020
X50396Y31750
X53952Y31750
X58016Y31750
X60556Y31750
X73256Y31750
X50396Y27940
X68176Y31750
X73256Y24130
X64366Y31750
X46205Y17145
X50396Y17780
X50396Y13970
X40363Y13843
X49126Y11430
X68176Y8890
X69446Y5080
X73256Y27940
X40363Y11557
X42014Y5080
X53825Y3683
X47983Y5715
X55603Y5715
X61826Y11430
X49761Y3683
X73256Y5080
X46713Y23495
X44808Y23368
X48745Y23495
X45316Y9525
X44046Y13335
X38966Y8890
X42014Y19939
X42014Y15875
X48745Y20701
X48745Y19050
X42776Y29210
X38966Y27940
X65636Y20701
X52809Y27305
X63731Y26670
X38966Y24130
X42776Y24130
X69446Y24130
X73256Y20320
X73256Y16510
X73256Y12700
X73256Y8890
X70716Y20320
X70716Y16510
X70716Y12700
X63096Y20320
X54206Y20320
X52936Y15240
X51666Y22860
X61318Y22225
X56746Y27940
X65636Y5080
X66906Y24130
X66906Y26670
X49126Y5842
X56619Y4399
X50015Y5842
X56619Y5080
X63731Y5715
X64620Y17145
X67795Y27559
X45316Y17907
X45316Y17145
X68557Y17145
X68557Y17907
X60556Y11430
X49380Y4445
X44808Y26670
X44808Y24176
X62016Y4681
X56619Y3683
X61953Y3683
X61445Y4191
X92967Y13970
X99317Y13970
X101730Y13970
X105794Y13970
X78362Y25400
X99698Y8890
X100587Y8890
X102873Y8890
X94110Y8890
X96904Y8890
X85982Y8890
X84204Y13970
X88522Y8890
X93729Y3683
X97285Y4318
X103635Y19050
X101730Y17145
X99317Y17145
X92967Y17145
X105794Y17145
X107445Y13970
X103635Y11430
X92205Y10160
X89665Y11430
X89665Y6350
X91443Y5842
X89665Y3683
X103000Y3683
X83315Y5080
X76965Y5080
X78362Y17907
X78362Y21971
X76965Y31750
X80775Y31750
X84585Y33020
X88395Y31750
X91951Y31750
X96015Y31750
X98555Y31750
X111255Y31750
X88395Y27940
X106175Y31750
X111255Y24130
X102365Y31750
X84204Y17145
X88395Y17780
X88395Y13970
X78362Y13843
X87125Y11430
X106175Y8890
X107445Y5080
X111255Y27940
X78362Y11557
X80013Y5080
X91824Y3683
X85982Y5715
X93602Y5715
X99825Y11430
X87760Y3683
X111255Y5080
X84712Y23495
X82807Y23368
X86744Y23495
X83315Y9525
X82045Y13335
X76965Y8890
X80013Y19939
X80013Y15875
X86744Y20701
X86744Y19050
X80775Y29210
X76965Y27940
X103635Y20701
X90808Y27305
X101730Y26670
X76965Y24130
X80775Y24130
X107445Y24130
X111255Y20320
X111255Y16510
X111255Y12700
X111255Y8890
X108715Y20320
X108715Y16510
X108715Y12700
X101095Y20320
X92205Y20320
X90935Y15240
X89665Y22860
X99317Y22225
X94745Y27940
X103635Y5080
X104905Y24130
X104905Y26670
X87125Y5842
X94618Y4399
X88014Y5842
X94618Y5080
X101730Y5715
X102619Y17145
X105794Y27559
X83315Y17907
X83315Y17145
X106556Y17145
X106556Y17907
X98555Y11430
X87379Y4445
X82807Y26670
X82807Y24176
X100014Y4681
X94618Y3683
X99952Y3683
X99444Y4191
X20526Y122380
X14176Y122380
X11763Y122380
X7699Y122380
X35131Y110950
X13795Y127460
X12906Y127460
X10620Y127460
X19383Y127460
X16589Y127460
X27511Y127460
X29289Y122380
X24971Y127460
X19764Y132667
X16208Y132032
X9858Y117300
X11763Y119205
X14176Y119205
X20526Y119205
X7699Y119205
X6048Y122380
X9858Y124920
X21288Y126190
X23828Y124920
X23828Y130000
X22050Y130508
X23828Y132667
X10493Y132667
X30178Y131270
X36528Y131270
X35131Y118443
X35131Y114379
X36528Y104600
X32718Y104600
X28908Y103330
X25098Y104600
X21542Y104600
X17478Y104600
X14938Y104600
X2238Y104600
X25098Y108410
X7318Y104600
X2238Y112220
X11128Y104600
X29289Y119205
X25098Y118570
X25098Y122380
X35131Y122507
X26368Y124920
X7318Y127460
X6048Y131270
X2238Y108410
X35131Y124793
X33480Y131270
X21669Y132667
X27511Y130635
X19891Y130635
X13668Y124920
X25733Y132667
X2238Y131270
X28781Y112855
X30686Y112982
X26749Y112855
X30178Y126825
X31448Y123015
X36528Y127460
X33480Y116411
X33480Y120475
X26749Y115649
X26749Y117300
X32718Y107140
X36528Y108410
X9858Y115649
X22685Y109045
X11763Y109680
X36528Y112220
X32718Y112220
X6048Y112220
X2238Y116030
X2238Y119840
X2238Y123650
X2238Y127460
X4778Y116030
X4778Y119840
X4778Y123650
X12398Y116030
X21288Y116030
X22558Y121110
X23828Y113490
X14176Y114125
X18748Y108410
X9858Y131270
X8588Y112220
X8588Y109680
X26368Y130508
X18875Y131951
X25479Y130508
X18875Y131270
X11763Y130635
X10874Y119205
X7699Y108791
X30178Y118443
X30178Y119205
X6937Y119205
X6937Y118443
X14938Y124920
X26114Y131905
X30686Y109680
X30686Y112174
X13478Y131669
X18875Y132667
X13541Y132667
X14049Y132159
X58524Y122380
X52174Y122380
X49761Y122380
X45697Y122380
X73129Y110950
X51793Y127460
X50904Y127460
X48618Y127460
X57381Y127460
X54587Y127460
X65509Y127460
X67287Y122380
X62969Y127460
X57762Y132667
X54206Y132032
X47856Y117300
X49761Y119205
X52174Y119205
X58524Y119205
X45697Y119205
X44046Y122380
X47856Y124920
X59286Y126190
X61826Y124920
X61826Y130000
X60048Y130508
X61826Y132667
X48491Y132667
X68176Y131270
X74526Y131270
X73129Y118443
X73129Y114379
X74526Y104600
X70716Y104600
X66906Y103330
X63096Y104600
X59540Y104600
X55476Y104600
X52936Y104600
X40236Y104600
X63096Y108410
X45316Y104600
X40236Y112220
X49126Y104600
X67287Y119205
X63096Y118570
X63096Y122380
X73129Y122507
X64366Y124920
X45316Y127460
X44046Y131270
X40236Y108410
X73129Y124793
X71478Y131270
X59667Y132667
X65509Y130635
X57889Y130635
X51666Y124920
X63731Y132667
X40236Y131270
X66779Y112855
X68684Y112982
X64747Y112855
X68176Y126825
X69446Y123015
X74526Y127460
X71478Y116411
X71478Y120475
X64747Y115649
X64747Y117300
X70716Y107140
X74526Y108410
X47856Y115649
X60683Y109045
X49761Y109680
X74526Y112220
X70716Y112220
X44046Y112220
X40236Y116030
X40236Y119840
X40236Y123650
X40236Y127460
X42776Y116030
X42776Y119840
X42776Y123650
X50396Y116030
X59286Y116030
X60556Y121110
X61826Y113490
X52174Y114125
X56746Y108410
X47856Y131270
X46586Y112220
X46586Y109680
X64366Y130508
X56873Y131951
X63477Y130508
X56873Y131270
X49761Y130635
X48872Y119205
X45697Y108791
X16967Y13970
X68176Y119205
X44935Y119205
X44935Y118443
X52936Y124920
X64112Y131905
X68684Y109680
X68684Y112174
X51476Y131669
X56873Y132667
X51539Y132667
X52047Y132159
X96525Y122380
X90175Y122380
X87762Y122380
X83698Y122380
X111130Y110950
X89794Y127460
X88905Y127460
X86619Y127460
X95382Y127460
X92588Y127460
X103510Y127460
X105288Y122380
X100970Y127460
X95763Y132667
X92207Y132032
X85857Y117300
X87762Y119205
X90175Y119205
X96525Y119205
X83698Y119205
X82047Y122380
X85857Y124920
X97287Y126190
X99827Y124920
X99827Y130000
X98049Y130508
X99827Y132667
X86492Y132667
X106177Y131270
X112527Y131270
X111130Y118443
X111130Y114379
X112527Y104600
X108717Y104600
X104907Y103330
X101097Y104600
X97541Y104600
X93477Y104600
X90937Y104600
X78237Y104600
X101097Y108410
X83317Y104600
X78237Y112220
X87127Y104600
X105288Y119205
X101097Y118570
X101097Y122380
X111130Y122507
X102367Y124920
X83317Y127460
X82047Y131270
X78237Y108410
X111130Y124793
X109479Y131270
X97668Y132667
X103510Y130635
X95890Y130635
X89667Y124920
X101732Y132667
X78237Y131270
X104780Y112855
X106685Y112982
X102748Y112855
X106177Y126825
X107447Y123015
X112527Y127460
X109479Y116411
X109479Y120475
X102748Y115649
X102748Y117300
X108717Y107140
X112527Y108410
X85857Y115649
X98684Y109045
X87762Y109680
X112527Y112220
X108717Y112220
X82047Y112220
X78237Y116030
X78237Y119840
X68176Y118443
X78237Y127460
X80777Y116030
X80777Y119840
X80777Y123650
X88397Y116030
X97287Y116030
X98557Y121110
X99827Y113490
X90175Y114125
X94747Y108410
X85857Y131270
X84587Y112220
X84587Y109680
X102367Y130508
X94874Y131951
X101478Y130508
X94874Y131270
X87762Y130635
X86873Y119205
X83698Y108791
X106177Y118443
X106177Y119205
X82936Y119205
X82936Y118443
X90937Y124920
X102113Y131905
X106685Y109680
X106685Y112174
X89477Y131669
X94874Y132667
X89540Y132667
X90048Y132159
X23317Y13970
X25730Y13970
X29794Y13970
X2362Y25400
X23698Y8890
X24587Y8890
X26873Y8890
X18110Y8890
X20904Y8890
X9982Y8890
X8204Y13970
X12522Y8890
X17729Y3683
X21285Y4318
X27635Y19050
X25730Y17145
X23317Y17145
X16967Y17145
X29794Y17145
X31445Y13970
X27635Y11430
X16205Y10160
X13665Y11430
X13665Y6350
X15443Y5842
X13665Y3683
X27000Y3683
X7315Y5080
X965Y5080
X2362Y17907
X2362Y21971
X965Y31750
X4775Y31750
X8585Y33020
X12395Y31750
X15951Y31750
X20015Y31750
X22555Y31750
X35255Y31750
X12395Y27940
X30175Y31750
X35255Y24130
X26365Y31750
X8204Y17145
X12395Y17780
X12395Y13970
X2362Y13843
X11125Y11430
X30175Y8890
X31445Y5080
X35255Y27940
X2362Y11557
X4013Y5080
X15824Y3683
X9982Y5715
X17602Y5715
X23825Y11430
X11760Y3683
X35255Y5080
X78237Y123650
M30