M48
;GenerationSoftware,Autodesk,EAGLE,9.6.2*%
;CreationDate,2022-05-23T16:37:00Z*%
FMAT,2
ICI,OFF
METRIC,TZ,000.000
T5C0.300
T4C0.305
T3C1.100
T2C1.600
T1C3.800
%
G90
M71
T1
X30846Y60079
X68847Y76271
X6647Y76271
X82644Y60079
X30848Y76271
X44646Y60079
X68847Y60079
X6645Y60079
X106845Y60079
X82647Y76271
X106848Y76271
X44646Y76271
T2
X6245Y11430
X44246Y11430
X82245Y11430
X31248Y124920
X69246Y124920
X107247Y124920
T3
X31245Y11430
X69246Y11430
X107245Y11430
X44246Y124920
X82247Y124920
X6248Y124920
T4
X111447Y92350
X36745Y46100
X36745Y41900
X35445Y44000
X745Y41900
X745Y46100
X2045Y44000
X112745Y46100
X112745Y41900
X111445Y44000
X76745Y41900
X76745Y46100
X78045Y44000
X74746Y46100
X40046Y44000
X748Y90250
X748Y94450
X2048Y92350
X36748Y94450
X36748Y90250
X35448Y92350
X38746Y46100
X38746Y41900
X38746Y90250
X38746Y94450
X40046Y92350
X74746Y94450
X74746Y90250
X73446Y92350
X73446Y44000
X74746Y41900
X76747Y90250
X76747Y94450
X78047Y92350
X112747Y94450
X112747Y90250
T5
X12395Y27940
X16205Y27940
X20015Y27940
X23825Y27940
X20015Y24130
X16205Y24130
X12395Y24130
X30175Y31750
X30175Y27940
X30175Y22860
X31445Y20320
X27762Y27940
X27762Y22860
X27762Y31750
X27762Y20320
X18745Y20320
X8585Y17780
X12395Y17780
X12395Y13970
X4775Y13970
X9855Y11430
X30175Y8890
X30175Y5080
X28905Y35560
X965Y11430
X6045Y8890
X15824Y3683
X10109Y5334
X21920Y17399
X17602Y5715
X27762Y18415
X2235Y24765
X2235Y23495
X11252Y5842
X18618Y4399
X12014Y5842
X18618Y5080
X28905Y17780
X25730Y5715
X22682Y11430
X3759Y33020
X26658Y19470
X22682Y18415
X3759Y35179
X3759Y37211
X11379Y4445
X7823Y24811
X24015Y4681
X18618Y3683
X22682Y19685
X23952Y3683
X23444Y4191
X52809Y22225
X54968Y13970
X61445Y13970
X63731Y13970
X67795Y13970
X61826Y23749
X63731Y22860
X42268Y24130
X44046Y24130
X45824Y24130
X48237Y21209
X48237Y19431
X41887Y18288
X41887Y29972
X40236Y40132
X61699Y8890
X62588Y8890
X64874Y8890
X56111Y8890
X58905Y8890
X48110Y8890
X46205Y13970
X50523Y8890
X55730Y3683
X59286Y4318
X65636Y17145
X63731Y17145
X61318Y17145
X54968Y17145
X67795Y17145
X69446Y13970
X65636Y11430
X61826Y11430
X54206Y10160
X51666Y11430
X51666Y6350
X53444Y5842
X51666Y3683
X64366Y3810
X47094Y4318
X38966Y5080
X38966Y16510
X38966Y24130
X38966Y31750
X42776Y31750
X46586Y31750
X50396Y31750
X54206Y31750
X58016Y31750
X61826Y31750
X61826Y34290
X58016Y34290
X54206Y34290
X50396Y34290
X50396Y38100
X54206Y38100
X58016Y38100
X61826Y38100
X44046Y39370
X46586Y27940
X50396Y27940
X54206Y27940
X58016Y27940
X61826Y27940
X58016Y24130
X54206Y24130
X50396Y24130
X68176Y31750
X68176Y27940
X68176Y22860
X69446Y20320
X65763Y27940
X65763Y22860
X65763Y31750
X65763Y20320
X56746Y20320
X46586Y17780
X50396Y17780
X50396Y13970
X42776Y13970
X47856Y11430
X68176Y8890
X68176Y5080
X66906Y35560
X38966Y11430
X44046Y8890
X53825Y3683
X48110Y5334
X59921Y17399
X55603Y5715
X65763Y18415
X40236Y24765
X40236Y23495
X49253Y5842
X56619Y4399
X50015Y5842
X56619Y5080
X66906Y17780
X63731Y5715
X60683Y11430
X41760Y33020
X64659Y19470
X60683Y18415
X41760Y35179
X41760Y37211
X49380Y4445
X45824Y24811
X62016Y4681
X56619Y3683
X60683Y19685
X61953Y3683
X61445Y4191
X90808Y22225
X92967Y13970
X99444Y13970
X101730Y13970
X105794Y13970
X99825Y23749
X101730Y22860
X80267Y24130
X82045Y24130
X83823Y24130
X86236Y21209
X86236Y19431
X79886Y18288
X79886Y29972
X78235Y40132
X99698Y8890
X100587Y8890
X102873Y8890
X94110Y8890
X96904Y8890
X86109Y8890
X84204Y13970
X88522Y8890
X93729Y3683
X97285Y4318
X103635Y17145
X101730Y17145
X99317Y17145
X92967Y17145
X105794Y17145
X107445Y13970
X103635Y11430
X99825Y11430
X92205Y10160
X89665Y11430
X89665Y6350
X91443Y5842
X89665Y3683
X102365Y3810
X85093Y4318
X76965Y5080
X76965Y16510
X76965Y24130
X76965Y31750
X80775Y31750
X84585Y31750
X88395Y31750
X92205Y31750
X96015Y31750
X99825Y31750
X99825Y34290
X96015Y34290
X92205Y34290
X88395Y34290
X88395Y38100
X92205Y38100
X96015Y38100
X99825Y38100
X82045Y39370
X84585Y27940
X88395Y27940
X92205Y27940
X96015Y27940
X99825Y27940
X96015Y24130
X92205Y24130
X88395Y24130
X106175Y31750
X106175Y27940
X106175Y22860
X107445Y20320
X103762Y27940
X103762Y22860
X103762Y31750
X103762Y20320
X94745Y20320
X84585Y17780
X88395Y17780
X88395Y13970
X80775Y13970
X85855Y11430
X106175Y8890
X106175Y5080
X104905Y35560
X76965Y11430
X82045Y8890
X91824Y3683
X86109Y5334
X97920Y17399
X93602Y5715
X103762Y18415
X78235Y24765
X78235Y23495
X87252Y5842
X94618Y4399
X88014Y5842
X94618Y5080
X104905Y17780
X101730Y5715
X98682Y11430
X79759Y33020
X102658Y19470
X98682Y18415
X79759Y35179
X79759Y37211
X87379Y4445
X83823Y24811
X100014Y4681
X94618Y3683
X98682Y19685
X99952Y3683
X99444Y4191
X22685Y114125
X20526Y122380
X14049Y122380
X11763Y122380
X7699Y122380
X13668Y112601
X11763Y113490
X33226Y112220
X31448Y112220
X29670Y112220
X27257Y115141
X27257Y116919
X33607Y118062
X33607Y106378
X35258Y96218
X13795Y127460
X12906Y127460
X10620Y127460
X19383Y127460
X16589Y127460
X27384Y127460
X29289Y122380
X24971Y127460
X19764Y132667
X16208Y132032
X9858Y119205
X11763Y119205
X14176Y119205
X20526Y119205
X7699Y119205
X6048Y122380
X9858Y124920
X13668Y124920
X21288Y126190
X23828Y124920
X23828Y130000
X22050Y130508
X23828Y132667
X11128Y132540
X28400Y132032
X36528Y131270
X36528Y119840
X36528Y112220
X36528Y104600
X32718Y104600
X28908Y104600
X25098Y104600
X21288Y104600
X17478Y104600
X13668Y104600
X13668Y102060
X17478Y102060
X21288Y102060
X25098Y102060
X25098Y98250
X21288Y98250
X17478Y98250
X13668Y98250
X31448Y96980
X28908Y108410
X25098Y108410
X21288Y108410
X17478Y108410
X13668Y108410
X17478Y112220
X21288Y112220
X25098Y112220
X7318Y104600
X7318Y108410
X7318Y113490
X6048Y116030
X9731Y108410
X9731Y113490
X9731Y104600
X9731Y116030
X18748Y116030
X28908Y118570
X25098Y118570
X25098Y122380
X32718Y122380
X27638Y124920
X7318Y127460
X7318Y131270
X8588Y100790
X36528Y124920
X31448Y127460
X21669Y132667
X27384Y131016
X15573Y118951
X19891Y130635
X9731Y117935
X35258Y111585
X35258Y112855
X26241Y130508
X18875Y131951
X25479Y130508
X18875Y131270
X8588Y118570
X11763Y130635
X14811Y124920
X33734Y103330
X10835Y116880
X14811Y117935
X33734Y101171
X33734Y99139
X26114Y131905
X29670Y111539
X13478Y131669
X18875Y132667
X14811Y116665
X13541Y132667
X14049Y132159
X60683Y114125
X58524Y122380
X52047Y122380
X49761Y122380
X45697Y122380
X51666Y112601
X49761Y113490
X71224Y112220
X69446Y112220
X67668Y112220
X65255Y115141
X65255Y116919
X71605Y118062
X71605Y106378
X73256Y96218
X51793Y127460
X50904Y127460
X48618Y127460
X57381Y127460
X54587Y127460
X65382Y127460
X67287Y122380
X62969Y127460
X57762Y132667
X54206Y132032
X47856Y119205
X49761Y119205
X52174Y119205
X58524Y119205
X45697Y119205
X44046Y122380
X47856Y124920
X51666Y124920
X59286Y126190
X61826Y124920
X61826Y130000
X60048Y130508
X61826Y132667
X49126Y132540
X66398Y132032
X74526Y131270
X74526Y119840
X74526Y112220
X74526Y104600
X70716Y104600
X66906Y104600
X63096Y104600
X59286Y104600
X55476Y104600
X51666Y104600
X51666Y102060
X55476Y102060
X59286Y102060
X63096Y102060
X63096Y98250
X59286Y98250
X55476Y98250
X51666Y98250
X69446Y96980
X66906Y108410
X63096Y108410
X59286Y108410
X55476Y108410
X51666Y108410
X55476Y112220
X59286Y112220
X63096Y112220
X45316Y104600
X45316Y108410
X45316Y113490
X44046Y116030
X47729Y108410
X47729Y113490
X47729Y104600
X47729Y116030
X56746Y116030
X66906Y118570
X63096Y118570
X63096Y122380
X70716Y122380
X65636Y124920
X45316Y127460
X45316Y131270
X46586Y100790
X74526Y124920
X69446Y127460
X59667Y132667
X65382Y131016
X53571Y118951
X57889Y130635
X47729Y117935
X73256Y111585
X73256Y112855
X64239Y130508
X56873Y131951
X63477Y130508
X56873Y131270
X46586Y118570
X49761Y130635
X52809Y124920
X71732Y103330
X14808Y22225
X52809Y117935
X71732Y101171
X71732Y99139
X64112Y131905
X67668Y111539
X51476Y131669
X56873Y132667
X52809Y116665
X51539Y132667
X52047Y132159
X98684Y114125
X96525Y122380
X90048Y122380
X87762Y122380
X83698Y122380
X89667Y112601
X87762Y113490
X109225Y112220
X107447Y112220
X105669Y112220
X103256Y115141
X103256Y116919
X109606Y118062
X109606Y106378
X111257Y96218
X89794Y127460
X88905Y127460
X86619Y127460
X95382Y127460
X92588Y127460
X103383Y127460
X105288Y122380
X100970Y127460
X95763Y132667
X92207Y132032
X85857Y119205
X87762Y119205
X90175Y119205
X96525Y119205
X83698Y119205
X82047Y122380
X85857Y124920
X89667Y124920
X97287Y126190
X99827Y124920
X99827Y130000
X98049Y130508
X99827Y132667
X87127Y132540
X104399Y132032
X112527Y131270
X112527Y119840
X112527Y112220
X112527Y104600
X108717Y104600
X104907Y104600
X101097Y104600
X97287Y104600
X93477Y104600
X89667Y104600
X89667Y102060
X93477Y102060
X97287Y102060
X101097Y102060
X101097Y98250
X97287Y98250
X93477Y98250
X89667Y98250
X107447Y96980
X104907Y108410
X101097Y108410
X97287Y108410
X93477Y108410
X89667Y108410
X93477Y112220
X97287Y112220
X101097Y112220
X83317Y104600
X83317Y108410
X83317Y113490
X82047Y116030
X85730Y108410
X85730Y113490
X85730Y104600
X85730Y116030
X94747Y116030
X104907Y118570
X101097Y118570
X101097Y122380
X108717Y122380
X48833Y116880
X83317Y127460
X83317Y131270
X84587Y100790
X112527Y124920
X107447Y127460
X97668Y132667
X103383Y131016
X91572Y118951
X95890Y130635
X85730Y117935
X111257Y111585
X111257Y112855
X102240Y130508
X94874Y131951
X101478Y130508
X94874Y131270
X84587Y118570
X87762Y130635
X90810Y124920
X109733Y103330
X86834Y116880
X90810Y117935
X109733Y101171
X109733Y99139
X102113Y131905
X105669Y111539
X89477Y131669
X94874Y132667
X90810Y116665
X89540Y132667
X90048Y132159
X16967Y13970
X23444Y13970
X25730Y13970
X29794Y13970
X23825Y23749
X25730Y22860
X4267Y24130
X6045Y24130
X7823Y24130
X10236Y21209
X10236Y19431
X3886Y18288
X3886Y29972
X2235Y40132
X23698Y8890
X24587Y8890
X26873Y8890
X18110Y8890
X20904Y8890
X10109Y8890
X8204Y13970
X12522Y8890
X17729Y3683
X21285Y4318
X27635Y17145
X25730Y17145
X23317Y17145
X16967Y17145
X29794Y17145
X31445Y13970
X27635Y11430
X23825Y11430
X16205Y10160
X13665Y11430
X13665Y6350
X15443Y5842
X13665Y3683
X26365Y3810
X9093Y4318
X965Y5080
X965Y16510
X965Y24130
X965Y31750
X4775Y31750
X8585Y31750
X12395Y31750
X16205Y31750
X20015Y31750
X23825Y31750
X23825Y34290
X20015Y34290
X16205Y34290
X12395Y34290
X12395Y38100
X16205Y38100
X20015Y38100
X23825Y38100
X6045Y39370
X8585Y27940
X103637Y124920
M30